<svg width="70" height="50" viewBox="0 0 70 50" fill="none" xmlns="http://www.w3.org/2000/svg">
<rect width="70" height="50" rx="4" fill="white"/>
<path fill-rule="evenodd" clip-rule="evenodd" d="M23.5813 19.9265C23.1594 20.4313 22.4844 20.8294 21.8094 20.7725C21.725 20.09 22.0555 19.3649 22.4422 18.9171C22.8641 18.3981 23.6024 18.0284 24.2 18C24.2703 18.7109 23.9961 19.4076 23.5813 19.9265ZM24.193 20.9076C23.5983 20.873 23.0557 21.0884 22.6175 21.2624C22.3354 21.3744 22.0966 21.4692 21.9149 21.4692C21.711 21.4692 21.4623 21.3693 21.183 21.2571C20.8172 21.1102 20.3988 20.9422 19.9602 20.9502C18.9547 20.9645 18.0196 21.5403 17.5063 22.4573C16.4516 24.2915 17.2321 27.0071 18.2516 28.5C18.7508 29.2393 19.3485 30.0498 20.136 30.0213C20.4824 30.0081 20.7316 29.9012 20.9896 29.7905C21.2865 29.6631 21.5949 29.5308 22.0766 29.5308C22.5415 29.5308 22.8365 29.6597 23.1197 29.7834C23.3889 29.9011 23.6474 30.014 24.0313 30.0071C24.8469 29.9929 25.3602 29.2678 25.8594 28.5284C26.3981 27.7349 26.6349 26.9605 26.6708 26.843L26.675 26.8294C26.6742 26.8285 26.6675 26.8254 26.6558 26.82C26.4757 26.7366 25.0992 26.0995 25.086 24.391C25.0727 22.957 26.1778 22.2304 26.3517 22.116C26.3623 22.109 26.3695 22.1043 26.3727 22.1019C25.6696 21.0498 24.5727 20.936 24.193 20.9076ZM29.8391 29.9289V18.846H33.9524C36.0758 18.846 37.5594 20.3246 37.5594 22.4858C37.5594 24.6469 36.0477 26.1398 33.8961 26.1398H31.5407V29.9289H29.8391ZM31.5407 20.2962H33.5024C34.9789 20.2962 35.8227 21.0924 35.8227 22.4929C35.8227 23.8934 34.9789 24.6967 33.4953 24.6967H31.5407V20.2962ZM43.1774 28.5995C42.7274 29.4668 41.736 30.0142 40.6672 30.0142C39.0852 30.0142 37.9813 29.0616 37.9813 27.6256C37.9813 26.2038 39.05 25.3863 41.0258 25.2654L43.1492 25.1374V24.5261C43.1492 23.6232 42.5657 23.1327 41.525 23.1327C40.6672 23.1327 40.0414 23.5806 39.9149 24.263H38.3821C38.4313 22.827 39.7672 21.782 41.5742 21.782C43.5219 21.782 44.7875 22.8128 44.7875 24.4123V29.9289H43.2125V28.5995H43.1774ZM41.1242 28.6991C40.2172 28.6991 39.6407 28.2583 39.6407 27.5829C39.6407 26.8863 40.1961 26.481 41.2578 26.4171L43.1492 26.2962V26.9218C43.1492 27.9597 42.2774 28.6991 41.1242 28.6991ZM50.0117 30.3626C49.3297 32.3033 48.5492 32.9431 46.8899 32.9431C46.7633 32.9431 46.3414 32.9289 46.243 32.9005V31.5711C46.3485 31.5853 46.6086 31.5995 46.7422 31.5995C47.4946 31.5995 47.9164 31.2796 48.1766 30.4479L48.3313 29.9573L45.4485 21.8886H47.2274L49.2313 28.436H49.2664L51.2703 21.8886H53L50.0117 30.3626Z" fill="black"/>
</svg>
