<svg width="70" height="50" viewBox="0 0 70 50" fill="none" xmlns="http://www.w3.org/2000/svg">
<rect width="70" height="50" rx="4" fill="white"/>
<path d="M15.2031 31.3911C15.2117 26.5947 15.2048 21.7982 15.2065 17C15.9793 17.0089 16.7504 17.0089 17.5231 17.0107C17.5146 21.7929 17.5009 26.5751 17.5299 31.3573C16.7555 31.4018 15.9793 31.3662 15.2031 31.3911Z" fill="#2093FD"/>
<path fill-rule="evenodd" clip-rule="evenodd" d="M6.02026 31.4053C5.99126 26.8453 5.99638 22.2853 6.01685 17.7253C6.54795 17.7473 7.07932 17.7526 7.61064 17.7579C8.41216 17.7659 9.21357 17.7739 10.0137 17.8391C10.1942 17.8537 10.3786 17.8601 10.5642 17.8665C11.2136 17.8889 11.8771 17.9118 12.4344 18.2907C14.3791 19.4711 14.6009 22.8187 12.7312 24.1893C13.6046 24.6196 14.3057 25.48 14.4559 26.4898C14.6401 27.672 14.5173 28.9805 13.8161 29.9689C13.1918 30.7956 12.2092 31.3093 11.201 31.3502C10.2663 31.4012 9.33103 31.3944 8.39582 31.3876H8.39578H8.39577C7.60379 31.3818 6.81185 31.376 6.02026 31.4053ZM8.42726 20.0045L8.43056 20.4156V20.4156C8.43879 21.4092 8.44701 22.4028 8.41703 23.3965C8.62813 23.3727 8.84456 23.3584 9.06257 23.3439C9.7765 23.2965 10.5074 23.248 11.1243 22.8667C11.5917 22.2249 11.6275 21.1885 11.1157 20.5609C10.51 20.0179 9.68103 20.0145 8.90358 20.0113H8.90357C8.74174 20.0106 8.58215 20.01 8.42726 20.0045ZM8.43995 27.2209C8.44238 26.6077 8.44482 25.9948 8.45626 25.3822C8.66431 25.3947 8.8734 25.402 9.08274 25.4093C9.68014 25.4302 10.2797 25.4511 10.8633 25.592C12.129 25.8996 12.3849 27.8658 11.4637 28.696C10.8605 29.1402 10.1333 29.1511 9.4112 29.1619C9.07551 29.1669 8.74093 29.1719 8.42044 29.2205C8.43465 28.5538 8.4373 27.8872 8.43995 27.2209Z" fill="#2093FD"/>
<path fill-rule="evenodd" clip-rule="evenodd" d="M35.4741 23.7715C34.3516 22.2089 32.2022 21.9227 30.4878 22.376C28.6182 22.8844 27.3132 24.872 27.3695 26.8595C27.3166 28.3564 27.8215 29.9724 29.0191 30.8827C30.2132 31.9244 31.9259 31.9795 33.3759 31.6098C34.715 31.2649 35.701 30.1555 36.3714 28.9538C36.0967 28.7875 35.8171 28.6297 35.5375 28.4718C35.1503 28.2532 34.7628 28.0344 34.3875 27.7929C33.9781 28.4098 33.5004 29.0178 32.8385 29.3484C32.2739 29.6524 31.5984 29.5831 31.0166 29.3751C30.3002 29.0391 29.8771 28.2569 29.7952 27.464C31.9838 27.4462 34.1724 27.4533 36.361 27.4604H36.3612C36.3748 26.1875 36.2418 24.8151 35.4741 23.7715ZM31.7771 25.6416C31.1941 25.6405 30.6108 25.6393 30.0272 25.6489C30.4162 23.7502 33.5516 23.7093 33.9337 25.6258C33.2149 25.6444 32.4962 25.643 31.7771 25.6416Z" fill="#2093FD"/>
<path d="M18.2344 22.4418C19.0088 22.4382 19.785 22.4436 20.5612 22.4365C20.5834 24.1485 20.5663 25.8622 20.568 27.576C20.5902 28.1822 20.6943 28.9129 21.2282 29.2667C21.9123 29.6436 22.7601 29.6507 23.4714 29.3538C24.0207 29.1476 24.3329 28.5165 24.3227 27.9298C24.3756 26.0845 24.3141 24.2391 24.3466 22.3938C25.1142 22.392 25.8818 22.408 26.6495 22.3654C26.7092 23.8587 26.6751 25.3538 26.6802 26.8489C26.6478 28.1325 26.525 29.5476 25.6959 30.568C24.611 31.7574 22.8863 31.7645 21.4295 31.6098C20.3736 31.5387 19.3261 30.9289 18.8366 29.9334C18.3487 28.9894 18.422 27.8854 18.3384 26.8507C18.3401 25.3805 18.2463 23.912 18.2344 22.4418Z" fill="#2093FD"/>
<path fill-rule="evenodd" clip-rule="evenodd" d="M40.0138 17.7689C39.3218 17.7663 38.6295 17.7636 37.9372 17.7592C37.9247 20.3245 37.9263 22.8892 37.928 25.4541C37.9292 27.427 37.9305 29.4 37.9253 31.3734C38.5448 31.3407 39.1655 31.3489 39.7863 31.3572C39.9416 31.3592 40.0968 31.3613 40.2521 31.3627C40.2385 29.3769 40.2351 27.3894 40.2487 25.4036C40.5845 25.3962 40.9223 25.4052 41.2603 25.4143C42.0626 25.4357 42.8665 25.4572 43.6502 25.2596C44.9604 24.8809 45.7399 23.48 45.8935 22.1414C45.9839 20.9503 45.6888 19.6596 44.8819 18.776C44.1654 17.9956 43.0839 17.8 42.0911 17.7787C41.399 17.7743 40.7065 17.7716 40.0138 17.7689ZM40.3896 21.2488C40.3923 20.8322 40.395 20.4157 40.3937 19.9992C40.4059 20.0002 40.4181 20.0012 40.4304 20.0022C41.0973 20.0581 41.7703 20.1144 42.4203 20.2925C43.4865 20.5325 43.6673 22.2232 42.9048 22.9023C42.3458 23.1923 41.7177 23.2487 41.0961 23.3045C40.8602 23.3257 40.6253 23.3468 40.3954 23.3805C40.3804 22.6699 40.385 21.9593 40.3896 21.2488Z" fill="#1B49A9"/>
<path d="M54.5713 20.9182C55.3969 20.9164 56.2243 20.9413 57.0516 20.9235C57.8193 22.5217 58.3873 24.2124 59.068 25.8497C59.8749 24.2391 60.5623 22.5644 61.3539 20.9431C62.1966 20.9271 63.0393 20.9146 63.882 20.936C62.229 24.6124 60.5862 28.296 58.9469 31.9777C58.7899 32.28 58.7268 32.6835 58.4232 32.8666C57.6163 32.8951 56.8077 32.8808 56.0008 32.9004C56.5518 31.5955 57.1728 30.3173 57.6521 28.984C57.5208 28.392 57.2615 27.8426 57.0533 27.2773C56.1868 25.1742 55.4345 23.0213 54.5713 20.9182Z" fill="#1B49A9"/>
<path fill-rule="evenodd" clip-rule="evenodd" d="M49.4282 22.1645C48.084 22.1005 46.7534 22.8934 46.1205 24.1289C45.3256 25.6578 45.3187 27.5209 45.7981 29.1565C46.303 30.8081 47.9407 31.9938 49.609 31.8445C50.3961 31.8333 51.0866 31.4381 51.7587 31.0535C51.8339 31.0105 51.9088 30.9676 51.9836 30.9254C51.9896 30.9876 51.999 31.0814 52.0084 31.1752C52.0177 31.2689 52.0271 31.3627 52.0331 31.4249C52.308 31.4204 52.5831 31.4241 52.8583 31.4279C53.3377 31.4344 53.8171 31.4409 54.2951 31.4036C54.2942 31.096 54.2933 30.7883 54.2923 30.4806C54.2842 27.8141 54.2761 25.1477 54.3036 22.4827C53.7553 22.475 53.206 22.4747 52.6572 22.4745C52.4513 22.4744 52.2456 22.4743 52.0399 22.4738L52.0399 22.4793C52.0382 22.705 52.0365 22.929 52.0365 23.1529C51.2586 22.6196 50.392 22.1058 49.4282 22.1645ZM48.0823 25.7716C48.2307 25.2063 48.6128 24.6818 49.1399 24.4543C50.085 24.0347 51.3917 24.4276 51.7721 25.4783C52.3265 26.8223 52.1047 28.7547 50.723 29.4445C49.8939 29.7574 48.8192 29.5245 48.3382 28.7067C47.8605 27.8232 47.8008 26.7334 48.0823 25.7716Z" fill="#1B49A9"/>
</svg>
