<svg width="70" height="50" viewBox="0 0 70 50" fill="none" xmlns="http://www.w3.org/2000/svg">
<rect width="70" height="50" rx="4" fill="white"/>
<path fill-rule="evenodd" clip-rule="evenodd" d="M36.0285 9.00332C32.861 8.91162 29.7908 10.7266 28.1899 13.4356C29.3247 12.5052 30.727 11.8537 32.2152 11.8404C34.7103 11.6608 37.1232 12.7841 38.9687 14.3966C39.5132 14.9239 40.18 15.455 40.99 15.3786C42.3541 15.3403 43.4755 13.7336 42.7954 12.4842C41.2613 10.3426 38.6745 8.97658 36.0285 9.00332ZM32.5859 12.4613C30.7384 12.4498 28.8509 13.3267 27.8326 14.8971C26.9901 16.1542 26.7895 17.7896 27.2194 19.232C27.7428 20.9227 29.1871 22.2467 30.876 22.73C32.3681 23.2497 33.9595 22.9975 35.4649 22.6823C33.8812 22.3728 32.3623 21.4366 31.686 19.9274C30.8225 18.1659 31.2428 15.9001 32.6718 14.559C33.5526 13.661 34.7963 13.2847 36.0228 13.2006C34.9319 12.7593 33.7742 12.425 32.5859 12.4613ZM37.2493 15.3136C37.6792 15.1627 37.7327 15.69 37.7116 15.9899C37.7051 16.5263 37.7088 17.0629 37.7125 17.5995C37.7186 18.4696 37.7246 19.3397 37.6868 20.2082C37.7288 20.7164 37.1003 20.5425 36.8443 20.3591C36.384 20.0783 35.9126 19.8146 35.4412 19.5509L35.4412 19.5509C34.6329 19.0988 33.8248 18.6468 33.073 18.1086C33.074 18.0628 33.0759 17.9935 33.0778 17.9242C33.0797 17.855 33.0816 17.7857 33.0826 17.7399C33.4917 17.4139 33.9494 17.1603 34.4065 16.907L34.4065 16.907L34.4065 16.907C34.6217 16.7878 34.8368 16.6686 35.0465 16.542C35.3173 16.3951 35.5811 16.2354 35.8448 16.0757C36.3013 15.7994 36.7577 15.5231 37.2493 15.3136ZM41.9873 21.8894C41.3301 20.9457 39.8858 20.7336 39.0012 21.4749C36.8672 23.0701 34.1219 24.0425 31.4472 23.5439C30.0144 23.3204 28.7573 22.5237 27.7256 21.5341C28.8433 23.9394 30.9944 25.8727 33.5774 26.5491C36.3533 27.3075 39.517 26.656 41.6778 24.7303C42.5069 24.0578 42.6196 22.73 41.9873 21.8894Z" fill="#26ACE3"/>
<path fill-rule="evenodd" clip-rule="evenodd" d="M39.5595 31.8645C39.007 31.8645 38.4572 31.8645 37.906 31.8632C37.9118 33.2923 37.9107 34.7222 37.9096 36.1517C37.9091 36.7235 37.9087 37.2952 37.9087 37.8668C37.8899 38.6969 38.1273 39.535 38.6047 40.2162C39.6466 41.7316 41.8324 42.2948 43.4711 41.4499C45.2077 40.6681 46.0807 38.5078 45.4558 36.7229C45.0334 35.4678 43.9378 34.4714 42.6411 34.1884C41.5683 33.8867 40.4257 34.2702 39.5527 34.9099C39.5589 34.3242 39.5584 33.7386 39.5579 33.1529C39.5576 32.7235 39.5572 32.294 39.5595 31.8645ZM39.6319 38.5051C39.3047 37.3907 40.069 36.1517 41.1646 35.8338C42.4761 35.3994 43.9821 36.4909 43.9941 37.8681C44.088 39.0965 42.979 40.2109 41.7627 40.1988C40.7811 40.1787 39.8692 39.4612 39.6319 38.5051Z" fill="#26ACE3"/>
<path fill-rule="evenodd" clip-rule="evenodd" d="M51.4863 34.2206C49.8623 33.7486 47.9983 34.5398 47.1508 35.9907C46.3234 37.3626 46.4642 39.244 47.4713 40.4871C48.7091 42.0225 51.1162 42.2518 52.7227 41.1683C52.7173 41.3882 52.7133 41.6068 52.7106 41.8268C53.2698 41.8308 53.8317 41.8308 54.3922 41.8241C54.3907 41.1923 54.3913 40.5605 54.3919 39.9287C54.3923 39.4234 54.3928 38.918 54.3922 38.4126C54.3801 37.7367 54.3453 37.0381 54.0529 36.4172C53.5916 35.343 52.6194 34.5089 51.4863 34.2206ZM48.2746 38.0063C48.2263 36.9777 49.0081 36.035 49.9937 35.8017C51.3334 35.445 52.7911 36.617 52.716 38.0036C52.7723 39.2976 51.4702 40.3758 50.2123 40.1773C49.1623 40.0298 48.2612 39.0871 48.2746 38.0063Z" fill="#26ACE3"/>
<path d="M56.3056 35.3899C57.3114 34.2434 59.0198 33.7847 60.4614 34.289C61.5583 34.6162 62.4031 35.5187 62.8363 36.5566C62.2248 36.562 61.6146 36.562 61.0045 36.5593C60.3943 35.8204 59.3188 35.5374 58.4284 35.8928C57.3556 36.283 56.6905 37.5757 57.0995 38.6633C57.4414 39.7187 58.6376 40.4106 59.7211 40.1424C60.224 40.0566 60.637 39.7374 60.983 39.3807C61.5985 39.37 62.2154 39.37 62.8309 39.3834C62.3656 40.3731 61.5985 41.2769 60.5271 41.6188C58.7503 42.2961 56.5671 41.4257 55.7451 39.7133C55.037 38.3361 55.2596 36.5378 56.3056 35.3899Z" fill="#26ACE3"/>
<path d="M30.4619 31.8658C31.0238 31.8618 31.5857 31.8658 32.1475 31.8578C32.1435 32.8407 32.1543 33.8237 32.1408 34.8066C33.0983 34.2488 34.3602 34.2367 35.327 34.7798C36.3475 35.3189 36.9389 36.4601 36.955 37.5932C36.9657 39.0053 36.9537 40.416 36.959 41.8268C36.3985 41.8294 35.838 41.8281 35.2761 41.8294C35.2707 40.4174 35.2707 39.004 35.26 37.5919C35.2734 36.7779 34.5385 36.0202 33.7125 36.0672C32.8462 36.039 32.1368 36.8825 32.1636 37.7179C32.161 39.0898 32.1636 40.4603 32.1636 41.8321C31.5964 41.8281 31.0292 41.8294 30.4619 41.8268C30.4633 38.5064 30.4646 35.1861 30.4619 31.8658Z" fill="#2A2E34"/>
<path d="M9.32927 34.4191C10.504 33.8827 11.9308 34.0115 13.0143 34.6994C13.7023 35.1379 14.1957 35.8165 14.5136 36.5594C13.9034 36.5607 13.2933 36.5621 12.6844 36.5567C12.0434 35.7682 10.8513 35.5107 9.94345 35.9653C8.94843 36.4105 8.38387 37.6711 8.79422 38.6969C9.14422 39.7053 10.2774 40.3852 11.3314 40.1546C11.8557 40.0741 12.313 39.767 12.6603 39.3755C13.2731 39.3755 13.886 39.3714 14.5002 39.3781C14.0321 40.4442 13.1605 41.3803 12.0086 41.682C10.1164 42.2962 7.86625 41.1818 7.24268 39.2843C6.50916 37.4444 7.50552 35.1674 9.32927 34.4191Z" fill="#2A2E34"/>
<path fill-rule="evenodd" clip-rule="evenodd" d="M20.4273 34.2488C18.617 33.6601 16.4875 34.6832 15.7687 36.4332C14.9225 38.2396 15.7499 40.6762 17.6045 41.4794C18.8677 42.0681 20.4045 41.93 21.5645 41.1643C21.5591 41.3842 21.5565 41.6055 21.5538 41.8254L21.5537 41.8294C21.6915 41.8294 21.8293 41.8293 21.9671 41.8292C22.3805 41.829 22.7942 41.8287 23.2085 41.8308C23.2051 41.2561 23.2063 40.6816 23.2074 40.1072C23.209 39.3211 23.2106 38.5352 23.2005 37.7488C23.1468 36.149 21.9695 34.6725 20.4273 34.2488ZM17.1137 38.1497C17.0078 37.1064 17.752 36.0859 18.7551 35.8204C19.9673 35.4543 21.3311 36.3555 21.5216 37.5945C21.7468 38.6901 21.0053 39.8622 19.9137 40.117C18.6357 40.5099 17.1955 39.4693 17.1137 38.1497Z" fill="#2A2E34"/>
<path d="M24.5952 35.3122C25.0619 34.5277 25.9872 34.0986 26.8803 34.0798C27.933 34.104 28.8904 34.8201 29.2565 35.8003C28.704 35.8204 28.1502 35.8204 27.5964 35.8017C27.1431 35.4477 26.3828 35.4249 26.014 35.913C25.8987 36.1772 25.9255 36.566 26.2406 36.6747C27.0198 37.0662 27.9357 37.1695 28.637 37.718C29.7138 38.485 29.8211 40.2819 28.8153 41.1509C28.2146 41.6752 27.3872 41.9126 26.5987 41.8429C25.3341 41.7342 24.1862 40.6829 24.146 39.3795C24.6958 39.3714 25.2443 39.3741 25.7941 39.3768C25.9067 39.834 26.195 40.345 26.7368 40.3329C27.3081 40.4509 27.9155 39.9346 27.7855 39.3406C27.7425 38.9275 27.2853 38.8082 26.9594 38.6942C26.254 38.4877 25.4897 38.3295 24.9345 37.8132C24.2627 37.1869 24.1272 36.0954 24.5952 35.3122Z" fill="#2A2E34"/>
</svg>
