<svg width="70" height="50" viewBox="0 0 70 50" fill="none" xmlns="http://www.w3.org/2000/svg">
<rect width="70" height="50" rx="4" fill="#FD6542"/>
<path fill-rule="evenodd" clip-rule="evenodd" d="M29.213 10.0474C29.026 10.1833 29.0321 10.4117 29.0378 10.6266V10.6267V10.6267V10.6267C29.0395 10.6913 29.0412 10.7547 29.0376 10.8139C29.0494 11.065 28.9924 11.307 28.9353 11.5491C28.8877 11.7511 28.8401 11.9533 28.8324 12.1609C28.8285 12.2813 28.8143 12.4007 28.8002 12.5201C28.785 12.6485 28.7698 12.777 28.7674 12.9065C28.7605 13.3418 28.6834 13.7694 28.6063 14.1968C28.5694 14.4017 28.5324 14.6065 28.5032 14.8121C28.4981 15.0295 28.4788 15.2456 28.4596 15.4618V15.4618V15.4618V15.4618C28.4411 15.6699 28.4225 15.878 28.4166 16.0873C28.3875 16.2852 28.3487 16.4822 28.3099 16.6793L28.3099 16.6793C28.2292 17.0894 28.1483 17.5 28.1552 17.9198C28.1658 18.356 28.0874 18.7826 28.0089 19.2096V19.2096V19.2096V19.2096L28.0089 19.2096C27.9477 19.5429 27.8864 19.8764 27.8674 20.2148C27.831 20.4179 27.8249 20.6234 27.8188 20.829V20.8291V20.8291V20.8291C27.8143 20.9794 27.8098 21.1298 27.7935 21.2794C27.7685 21.4268 27.7404 21.5739 27.7122 21.7211C27.6312 22.144 27.5502 22.5675 27.5437 22.9995C27.5302 23.4101 27.4583 23.8142 27.3864 24.2181L27.3864 24.2181C27.3495 24.4257 27.3126 24.6332 27.2836 24.8415C27.2829 25.0319 27.2641 25.2208 27.2453 25.4097V25.4097V25.4098V25.4098L27.2453 25.4098C27.2264 25.6004 27.2074 25.7911 27.2071 25.9832C27.1983 26.2927 27.1352 26.5956 27.0722 26.8984C27.0047 27.2225 26.9373 27.5465 26.9362 27.8787C26.9355 28.077 26.9152 28.2738 26.8949 28.4707C26.8782 28.6331 26.8614 28.7955 26.8556 28.9589C26.8347 29.0749 26.8127 29.191 26.7906 29.3071C26.6931 29.8199 26.5953 30.3346 26.5969 30.8591C26.594 31.2502 26.5231 31.6336 26.4522 32.017C26.4062 32.2656 26.3603 32.5141 26.3328 32.7647C26.3353 32.9687 26.3136 33.172 26.2919 33.3752C26.2604 33.6707 26.2289 33.9659 26.2719 34.262C26.3143 34.3474 26.403 34.3482 26.4878 34.3489H26.4878H26.4878H26.4878C26.514 34.3491 26.5398 34.3494 26.5637 34.3521C27.1955 34.3483 27.8276 34.3487 28.4596 34.3491C28.8546 34.3493 29.2495 34.3495 29.6443 34.3487C29.8522 33.7101 29.9355 33.037 29.9829 32.3699C29.9733 31.9224 30.0595 31.4855 30.1456 31.0493C30.1801 30.8743 30.2147 30.6993 30.243 30.5239C30.2633 29.9239 30.3039 29.3232 30.4109 28.732C30.524 28.2085 30.6114 27.6749 30.5924 27.1379C30.5839 26.7837 30.6576 26.4395 30.7314 26.0952C30.8037 25.7573 30.8761 25.4195 30.8707 25.0724C30.8743 24.971 30.8868 24.8704 30.8994 24.7698C30.9135 24.6573 30.9276 24.5448 30.929 24.4311C30.9309 24.0847 30.9987 23.7466 31.0666 23.4082L31.0666 23.4082L31.0666 23.4082L31.0666 23.4082L31.0666 23.4082C31.1161 23.1612 31.1657 22.9142 31.1897 22.6636C31.2175 22.0345 31.252 21.4006 31.3969 20.7857C31.4544 20.533 31.4747 20.2756 31.4949 20.0182L31.4949 20.0182L31.4949 20.0181L31.4949 20.0181C31.5054 19.8844 31.5159 19.7507 31.5317 19.6176C31.5266 19.2146 31.6003 18.8202 31.6739 18.4257C31.7475 18.0312 31.8212 17.6367 31.8161 17.2338C31.8116 16.7698 31.8971 16.3165 31.9826 15.863C32.0648 15.4271 32.147 14.9911 32.1493 14.5453C32.1416 14.0978 32.2233 13.6594 32.3049 13.2214L32.305 13.2214C32.3451 13.0058 32.3853 12.7904 32.4148 12.574C32.4114 12.3359 32.435 12.0999 32.4587 11.864C32.4774 11.6777 32.4961 11.4915 32.5014 11.3042C32.5148 11.1295 32.5566 10.9589 32.5984 10.7885C32.6521 10.5693 32.7057 10.3506 32.6985 10.1239C32.5492 10.0254 32.3732 10.029 32.2008 10.0326C32.1503 10.0336 32.1002 10.0347 32.0511 10.0331C31.6569 10.0391 31.2625 10.0368 30.8681 10.0344C30.316 10.0312 29.764 10.028 29.213 10.0474ZM37.7707 10.1692C37.4227 10.2932 37.0692 10.4286 36.7827 10.669C36.396 10.9548 36.1773 11.3963 35.9755 11.8196C35.86 12.0752 35.8663 12.3571 35.8725 12.6333L35.8725 12.6335C35.8738 12.6894 35.875 12.745 35.8753 12.8002C35.8701 13.1154 36.0165 13.3997 36.1573 13.6731L36.1814 13.7198C36.5125 14.3659 37.1633 14.8216 37.8683 14.9652C38.4953 15.0695 39.1021 14.7972 39.5911 14.4268C39.9547 14.1431 40.2093 13.7442 40.3976 13.3284C40.4926 13.1342 40.4899 12.9194 40.4871 12.707V12.7069V12.7068V12.7067C40.4863 12.6392 40.4854 12.5719 40.4877 12.5056C40.4855 12.4455 40.4862 12.3849 40.487 12.3242C40.4888 12.1796 40.4906 12.0345 40.4525 11.8948C40.2141 11.2717 39.7854 10.6968 39.1746 10.4002L39.117 10.3752C38.6951 10.1919 38.2286 9.98922 37.7707 10.1692ZM21.7773 11.1972C22.3617 10.8099 23.0376 10.5986 23.708 10.4137C24.6811 10.2695 25.6766 10.2688 26.6518 10.4042C26.8746 10.455 27.1617 10.5546 27.2003 10.8146C27.193 11.0804 27.1221 11.3353 27.0512 11.5904C26.9915 11.8052 26.9318 12.0202 26.9098 12.2422C26.8975 12.2933 26.8913 12.3498 26.885 12.4073C26.8674 12.5679 26.8489 12.7359 26.6938 12.8158C26.274 13.0804 25.7939 13.0732 25.3137 13.0659C24.8417 13.0587 24.3697 13.0516 23.9552 13.3027C23.62 13.4862 23.3003 13.7097 23.047 13.9981C22.6983 14.4126 22.4924 14.9212 22.313 15.4264C22.2446 15.6329 22.2019 15.8483 22.1985 16.0656C22.1941 16.3906 22.1182 16.7051 22.0425 17.0195L22.0424 17.0195L22.0424 17.0195C22.0025 17.1853 21.9625 17.351 21.933 17.5182C21.8999 17.6632 22.0394 17.7796 22.1667 17.8115C22.3135 17.8239 22.4589 17.8058 22.6045 17.7876C22.7274 17.7723 22.8505 17.7569 22.9746 17.76C23.4472 17.7619 23.9198 17.7615 24.3925 17.7611H24.3926H24.3926C24.7794 17.7608 25.1663 17.7604 25.5534 17.7613C25.7193 17.7539 25.9719 17.8419 25.919 18.0532C25.8899 18.2441 25.8462 18.4331 25.8025 18.6222C25.7252 18.9561 25.6478 19.2903 25.6509 19.6358C25.6604 19.8939 25.6163 20.1492 25.5378 20.395C24.9045 20.3998 24.2711 20.3991 23.6377 20.3984H23.6377H23.6377C23.1216 20.3979 22.6054 20.3973 22.0895 20.3997C21.8525 20.3889 21.65 20.5907 21.6595 20.8284C21.6115 21.1074 21.6037 21.3898 21.5959 21.6719C21.5862 22.0192 21.5766 22.3663 21.4922 22.7063C21.3705 23.2413 21.3262 23.7872 21.2818 24.3328L21.2818 24.3328L21.2818 24.3329C21.2654 24.5345 21.249 24.736 21.2288 24.937C21.1197 25.5288 21.0161 26.1234 20.9829 26.7255C20.9843 27.2686 20.8949 27.8076 20.7723 28.3358C20.7146 28.5555 20.7084 28.7807 20.7022 29.0063C20.6969 29.196 20.6917 29.386 20.6558 29.5731C20.6478 29.9435 20.5798 30.3071 20.5119 30.6707C20.4375 31.0689 20.3631 31.4671 20.3674 31.8742C20.3779 32.3098 20.2963 32.7351 20.2147 33.1609C20.165 33.4202 20.1153 33.6797 20.0863 33.9417C20.0603 34.1791 19.9898 34.4056 19.9193 34.6322C19.8558 34.8361 19.7924 35.0401 19.7613 35.2521C19.7287 35.48 19.6622 35.6997 19.5957 35.9194C19.5225 36.1612 19.4493 36.403 19.4213 36.6559C19.2771 37.2295 18.9981 37.8146 18.499 38.1613C18.1739 38.3476 17.8062 38.4871 17.4263 38.4742C17.1862 38.472 16.9461 38.4722 16.7061 38.4724C16.506 38.4726 16.3058 38.4727 16.1057 38.4715C16.0929 38.1045 16.0874 37.7374 16.1118 37.3711C16.1395 37.136 16.1847 36.9031 16.23 36.6701L16.23 36.6701C16.2988 36.3159 16.3676 35.9617 16.3746 35.6002C16.3791 35.479 16.3931 35.3587 16.4071 35.2384C16.4246 35.0876 16.4421 34.937 16.4409 34.7848C16.4414 34.5608 16.4932 34.3447 16.5451 34.1284C16.5794 33.9851 16.6138 33.8417 16.6333 33.6959C16.6739 32.7844 16.7667 31.8729 16.9617 30.9803C16.9748 30.6603 16.9999 30.3417 17.0249 30.023C17.0399 29.8318 17.0549 29.6406 17.0674 29.4492C17.0946 29.2343 17.1375 29.0213 17.1805 28.8082C17.2561 28.4331 17.3317 28.058 17.3213 27.6735C17.3192 27.274 17.3924 26.8825 17.4656 26.4912C17.5104 26.2518 17.5552 26.0124 17.5827 25.7713C17.5834 25.5867 17.6026 25.4034 17.6218 25.2203C17.64 25.0461 17.6583 24.8719 17.6606 24.6966C17.6735 24.3845 17.736 24.0792 17.7985 23.7739C17.8312 23.614 17.8639 23.4542 17.8895 23.2934C17.9301 23.0664 17.931 22.8362 17.9318 22.606C17.9328 22.3527 17.9337 22.0993 17.9877 21.8503C18.0102 21.6848 18.0497 21.5221 18.0892 21.3594C18.1423 21.1406 18.1954 20.9219 18.2071 20.697C18.2425 20.4442 17.9779 20.388 17.7723 20.3443L17.7723 20.3443L17.7723 20.3443C17.7378 20.337 17.705 20.33 17.6755 20.3225C17.5128 20.2745 17.3416 20.2681 17.171 20.2617C16.9326 20.2527 16.6952 20.2438 16.4836 20.1214C16.3123 20.0056 16.1213 19.8756 16.0556 19.669C16.0204 19.4795 16.0451 19.2906 16.0698 19.1015C16.086 18.9778 16.1022 18.854 16.1017 18.7297C16.1064 18.6523 16.1058 18.5734 16.1052 18.4942C16.1036 18.2895 16.1021 18.0831 16.1924 17.8961C16.2879 17.7735 16.4579 17.7566 16.6021 17.7573C17.2427 17.762 17.8827 17.7634 18.5227 17.762C18.5361 17.6352 18.5404 17.5076 18.5447 17.3802V17.3801C18.5508 17.1993 18.5569 17.0187 18.589 16.8404C18.61 16.628 18.6597 16.4213 18.7094 16.2147C18.7625 15.9938 18.8156 15.773 18.8335 15.5455C18.8606 15.2191 18.9744 14.913 19.1003 14.6144C19.2879 14.0388 19.5953 13.5133 19.9048 12.9966C20.389 12.2706 21.0527 11.6767 21.7773 11.1972ZM51.261 17.4397C51.3725 17.4171 51.484 17.3944 51.5938 17.3659C52.0077 17.2456 52.4426 17.265 52.8697 17.2841L52.9433 17.2873L53.024 17.2907C53.0876 17.3042 53.1515 17.3174 53.2154 17.3306C53.5764 17.4051 53.9406 17.4802 54.2789 17.6286C55.2439 18.0207 55.9807 18.8557 56.3924 19.7977C56.4903 19.9953 56.5587 20.2039 56.6272 20.4127C56.6577 20.506 56.6883 20.5992 56.7215 20.6916C56.8996 21.134 56.9347 21.6053 56.9697 22.0766C56.9884 22.3274 57.007 22.5783 57.0473 22.8248C57.0823 23.154 57.0749 23.4866 57.0676 23.8177C57.0661 23.8836 57.0646 23.9495 57.0635 24.0153C57.0187 24.3133 56.9984 24.6155 56.9781 24.9177V24.9178V24.9178C56.9413 25.4652 56.9046 26.0127 56.7222 26.5345C56.6734 26.686 56.6394 26.8415 56.6053 26.9969L56.6053 26.997L56.6053 26.997C56.5599 27.2042 56.5145 27.4112 56.4344 27.6085C56.3818 27.741 56.3422 27.8779 56.3027 28.0149L56.3027 28.0149L56.3026 28.015C56.2577 28.1706 56.2127 28.3262 56.1486 28.4753C55.5798 29.8426 54.8335 31.1537 53.8102 32.2345C52.9732 33.1121 51.9737 33.8672 50.8157 34.262C50.3238 34.4912 49.787 34.5296 49.2537 34.5677C49.0969 34.5789 48.9404 34.59 48.7854 34.606C48.649 34.5895 48.5117 34.5772 48.3744 34.565C48.0572 34.5367 47.7396 34.5084 47.431 34.4266C46.8391 34.2383 46.2635 33.9762 45.7725 33.5909C45.7303 33.5539 45.689 33.5156 45.6477 33.4772L45.6476 33.4771C45.503 33.3427 45.3583 33.2083 45.1719 33.1325C45.125 33.3059 45.1063 33.4835 45.0876 33.6612C45.0719 33.8097 45.0563 33.9581 45.0242 34.1042C44.8827 34.7212 44.819 35.3537 44.8075 35.9855C44.7823 36.2937 44.7189 36.5964 44.6556 36.899L44.6556 36.899L44.6556 36.899C44.6272 37.0346 44.5988 37.1701 44.5739 37.306C44.5535 37.5206 44.5402 37.7372 44.5269 37.9541L44.5269 37.9542L44.5268 37.9545C44.4894 38.5646 44.4517 39.1778 44.2549 39.7582C44.1595 39.9834 43.9444 39.9521 43.7421 39.9228C43.6803 39.9138 43.6198 39.9051 43.5642 39.9038C43.1236 39.9005 42.6829 39.9012 42.2423 39.902H42.2418H42.2417H42.2417C41.7833 39.9027 41.325 39.9035 40.8669 39.8997C40.7907 39.5975 40.8253 39.2925 40.8599 38.9877L40.86 38.9877C40.8773 38.8349 40.8947 38.6821 40.8981 38.5297C40.9269 38.308 40.967 38.0878 41.007 37.8676C41.0703 37.5196 41.1336 37.1716 41.1527 36.8178C41.1601 36.2713 41.2218 35.7248 41.3525 35.1939C41.4166 34.9466 41.4265 34.6935 41.4364 34.4402C41.4443 34.2389 41.4521 34.0375 41.4872 33.8388C41.4933 33.4943 41.561 33.1572 41.6287 32.8203L41.6287 32.8203C41.7051 32.4398 41.7815 32.0597 41.7689 31.6697C41.7652 31.2262 41.8447 30.7911 41.9241 30.3562C41.9598 30.1608 41.9954 29.9655 42.0236 29.7695C42.0306 29.6222 42.0471 29.4757 42.0635 29.3293V29.3293L42.0635 29.3292C42.0848 29.139 42.1061 28.949 42.1069 28.7577C42.0931 28.413 42.1661 28.079 42.2392 27.7448L42.2392 27.7448C42.3029 27.4535 42.3667 27.1619 42.373 26.8629C42.3777 26.2136 42.4903 25.5734 42.6024 24.9358L42.6024 24.9357L42.6027 24.9346C42.6204 24.8337 42.6381 24.733 42.6554 24.6322C42.7018 24.391 42.7066 24.1468 42.7114 23.9027C42.7146 23.7404 42.7179 23.5781 42.7333 23.4167C42.7613 23.2483 42.7954 23.0808 42.8294 22.9132L42.8295 22.9131L42.8295 22.913C42.899 22.571 42.9686 22.2289 42.9872 21.8794C42.9921 21.7585 43.0057 21.6383 43.0193 21.518C43.0374 21.3567 43.0556 21.1955 43.0529 21.0329C43.0451 20.7858 43.1008 20.5471 43.1564 20.3085C43.2118 20.0711 43.2672 19.8336 43.2601 19.5878C43.2701 19.4721 43.2792 19.3561 43.2882 19.2401L43.2883 19.2395C43.3328 18.6705 43.3774 18.0996 43.5303 17.5474C43.9099 17.4708 44.2963 17.4789 44.6828 17.4869H44.6829C44.8984 17.4914 45.114 17.4959 45.3283 17.4857C45.868 17.4458 46.4342 17.848 46.5019 18.3993C46.5317 18.83 46.5161 19.2634 46.4511 19.69C46.4532 19.9024 46.4322 20.1133 46.4112 20.324V20.324V20.3241C46.3839 20.5977 46.3567 20.8711 46.38 21.1474C46.4653 21.1433 46.552 21.1413 46.6387 21.1406C46.8263 20.6855 47.152 20.3076 47.4825 19.9501C47.5859 19.8458 47.6882 19.7404 47.7907 19.635L47.7908 19.6349L47.791 19.6346L47.7911 19.6346L47.7911 19.6346C48.0783 19.3389 48.3658 19.043 48.6757 18.7711C49.2534 18.274 49.9285 17.9015 50.6315 17.6117C50.8331 17.5267 51.0471 17.4832 51.261 17.4397ZM52.0813 20.4363C51.6269 20.1668 51.0662 20.1437 50.5624 20.2663C49.7789 20.5115 49.1125 21.0282 48.5558 21.62C47.7622 22.5227 47.1263 23.5582 46.6299 24.6505C46.078 25.732 45.761 26.9374 45.7604 28.1537C45.7448 28.5356 45.6694 28.9102 45.5941 29.2847L45.5941 29.2847L45.5941 29.2847C45.5253 29.6267 45.4565 29.9685 45.4333 30.316C45.5858 30.782 46.0279 31.0588 46.4248 31.3073L46.466 31.3331L46.5498 31.3681C47.0014 31.5569 47.4645 31.7505 47.9606 31.7652C48.0118 31.766 48.0634 31.767 48.1151 31.7681L48.1153 31.7681C48.5639 31.7775 49.027 31.7873 49.4423 31.5972C50.3972 31.2417 51.1976 30.5489 51.7488 29.699C52.2534 29.0236 52.5714 28.2376 52.8848 27.4628L52.8872 27.4568C53.1045 26.8287 53.2182 26.1771 53.3319 25.5252L53.3619 25.3534C53.5023 24.827 53.494 24.285 53.4858 23.7445V23.7443V23.744C53.483 23.5623 53.4803 23.3807 53.4832 23.1999C53.4557 22.8727 53.375 22.5535 53.2943 22.2349L53.2943 22.2349L53.2943 22.2348C53.2555 22.0813 53.2166 21.9279 53.1838 21.7738C52.9712 21.2313 52.6319 20.6841 52.0813 20.4363ZM35.8331 18.2304C35.862 18.0013 35.8908 17.7723 35.9403 17.5467C36.2222 17.5464 36.5041 17.5456 36.786 17.5449C37.6834 17.5425 38.581 17.5401 39.4786 17.5514C39.4774 17.7974 39.4322 18.0379 39.387 18.2786C39.3559 18.4441 39.3248 18.6097 39.308 18.7772C39.2661 18.9862 39.2632 19.1981 39.2603 19.41C39.2575 19.6163 39.2546 19.8225 39.2159 20.0259C39.1933 20.2232 39.1518 20.4177 39.1102 20.6122C39.0471 20.9079 38.984 21.2033 38.9877 21.5076C38.9858 21.6262 38.9712 21.7435 38.9566 21.8609C38.9403 21.9922 38.9239 22.1236 38.9254 22.2566C38.928 22.596 38.858 22.9269 38.788 23.2577C38.7159 23.5981 38.6439 23.9386 38.6511 24.2882C38.6554 24.445 38.6373 24.6002 38.6192 24.7555C38.6058 24.8705 38.5924 24.9857 38.5881 25.1015C38.5839 25.4206 38.5181 25.7324 38.4523 26.0443C38.3811 26.3816 38.3099 26.7191 38.3166 27.0661C38.3206 27.5573 38.2346 28.0396 38.1487 28.5216C38.1179 28.6941 38.0872 28.8666 38.0606 29.0395C38.0508 29.2924 38.0279 29.5442 38.005 29.796C37.9898 29.9642 37.9745 30.1324 37.9631 30.3011C37.9343 30.513 37.8969 30.7242 37.8594 30.9355C37.7804 31.3809 37.7014 31.8267 37.7037 32.2805C37.7051 32.6439 37.6384 32.9997 37.5718 33.3556C37.5384 33.5337 37.5051 33.7118 37.4802 33.8909C37.4735 33.9181 37.4675 33.9463 37.4613 33.9749C37.4317 34.1134 37.4001 34.2615 37.2777 34.344C36.7712 34.3522 36.2644 34.3508 35.7577 34.3493C35.3106 34.348 34.8635 34.3467 34.4166 34.3521C34.3801 34.3489 34.3414 34.3495 34.3023 34.35C34.1838 34.3517 34.0614 34.3535 33.9845 34.2512C33.9511 33.9922 33.9804 33.7353 34.0096 33.4782C34.032 33.2816 34.0544 33.0847 34.0488 32.8866C34.0378 32.4895 34.1123 32.1015 34.1869 31.7135C34.2539 31.3644 34.321 31.0153 34.3258 30.6593C34.3325 30.5646 34.343 30.4702 34.3534 30.3758C34.3706 30.2212 34.3877 30.0666 34.3881 29.911C34.3925 29.6707 34.445 29.4371 34.4975 29.2036C34.5262 29.0759 34.5549 28.9482 34.5757 28.8194L34.5779 28.7874C34.6408 27.8858 34.704 26.9805 34.9014 26.0957C34.9129 25.9469 34.9254 25.7982 34.9379 25.6495C34.9681 25.2905 34.9983 24.9314 35.0145 24.5713C35.0417 24.4048 35.0747 24.2392 35.1077 24.0736C35.1699 23.7609 35.2322 23.4483 35.2556 23.1295C35.278 22.4963 35.3193 21.8598 35.4696 21.2422C35.5205 21.0217 35.5355 20.7967 35.5506 20.5715C35.5614 20.41 35.5722 20.2483 35.5962 20.0882C35.595 19.6375 35.6759 19.1944 35.7566 18.7523C35.7632 18.7161 35.7698 18.6799 35.7764 18.6437C35.7983 18.5065 35.8157 18.3684 35.8331 18.2304Z" fill="white"/>
</svg>
