<svg width="70" height="50" viewBox="0 0 70 50" fill="none" xmlns="http://www.w3.org/2000/svg">
<rect width="70" height="50" rx="4" fill="white"/>
<path fill-rule="evenodd" clip-rule="evenodd" d="M11.2866 19.1473C11.9505 19.0392 12.6316 19.0517 13.2986 19.1183C13.917 19.2461 14.5409 19.3887 15.1084 19.6748C16.2566 20.2227 17.234 21.1107 17.8853 22.2041C18.4253 23.2144 18.7968 24.3477 18.7412 25.5054C18.7569 27.8818 17.2512 30.1462 15.1185 31.1565C13.736 31.8141 12.1276 31.9042 10.6502 31.5437C9.65087 31.2364 8.68682 30.7395 7.95868 29.9761C7.26503 29.3326 6.74147 28.5128 6.40914 27.6302C5.97571 26.5447 5.93652 25.3377 6.12071 24.1941C6.45774 22.4957 7.50722 20.9383 8.99249 20.0354C9.68379 19.58 10.4785 19.3096 11.2866 19.1473ZM10.3994 22.197C9.89933 22.248 9.35303 22.4235 9.07636 22.875C8.77069 23.3074 8.7388 23.8483 8.7085 24.3621C8.70602 24.4043 8.70354 24.4463 8.70092 24.488C8.69469 24.6176 8.68312 24.7471 8.67155 24.8765L8.67155 24.8766C8.6482 25.1378 8.62484 25.3991 8.64528 25.6621C8.66051 25.8398 8.67126 26.018 8.68201 26.1963V26.1963C8.70888 26.6417 8.73576 27.0872 8.8326 27.5244C8.95252 28.0754 9.44865 28.5026 9.99574 28.6029C11.0153 28.7867 12.054 28.7706 13.0865 28.7545C13.181 28.753 13.2755 28.7516 13.3699 28.7502C13.7924 28.7267 14.2148 28.6836 14.6326 28.617C15.2581 28.5355 15.8106 28.026 15.9133 27.399C16.0928 26.6301 16.1249 25.8369 16.0716 25.0524C15.9713 24.5492 15.6155 24.0954 15.1319 23.9112C14.914 23.8059 14.6723 23.8065 14.4353 23.8072C14.3935 23.8073 14.3518 23.8074 14.3105 23.8069C13.8442 23.8075 13.3779 23.8072 12.9117 23.807H12.9116C12.0957 23.8065 11.2799 23.8061 10.4644 23.8101C10.3707 23.8118 10.2832 23.7797 10.1965 23.7479C10.1643 23.7362 10.1322 23.7244 10.1 23.7144C10.0976 23.5389 10.1039 23.2763 10.3398 23.2716C10.9541 23.2577 11.569 23.2618 12.1838 23.2659H12.1839C12.9936 23.2713 13.8033 23.2767 14.6114 23.241C14.5237 22.8335 14.2752 22.4079 13.8472 22.295C13.4608 22.1915 13.0611 22.139 12.6637 22.1022C12.5504 22.1008 12.4369 22.0986 12.3233 22.0964H12.3233C11.6795 22.0841 11.0329 22.0718 10.3994 22.197ZM14.776 25.6206C14.5699 25.565 14.323 25.6465 14.2509 25.8589C14.2056 26.1034 14.2782 26.339 14.3502 26.573C14.3805 26.6713 14.4106 26.7693 14.432 26.8676C14.4555 26.8813 14.4907 26.9017 14.5259 26.922C14.5612 26.9424 14.5965 26.9628 14.6201 26.9765C14.7008 26.9295 14.7831 26.8872 14.8685 26.8504C14.8777 26.6435 14.9276 26.4446 14.9774 26.2457C14.9995 26.1575 15.0216 26.0692 15.0402 25.9804C15.0018 25.8338 14.9054 25.6998 14.776 25.6206Z" fill="#01ACD7"/>
<path fill-rule="evenodd" clip-rule="evenodd" d="M26.7939 21.1005C26.1896 20.8638 25.5186 20.8904 24.8853 20.9688C23.5153 21.1804 22.313 22.226 21.907 23.5514C21.7228 24.0765 21.7267 24.6432 21.7753 25.1911C21.9391 26.5925 22.9933 27.823 24.3312 28.2517C25.2796 28.5386 26.3737 28.548 27.2492 28.0346C27.3636 27.9714 27.4674 27.8932 27.5713 27.8151L27.5713 27.8151L27.5713 27.8151L27.5713 27.8151L27.5713 27.8151C27.6682 27.7421 27.7652 27.6692 27.8708 27.6083L27.8724 27.6811C27.8854 28.2588 27.9 28.9121 27.4616 29.3483C27.1677 29.7072 26.7233 29.8961 26.2742 29.9651C25.3031 30.143 24.2763 29.8115 23.5545 29.1468C23.394 29.3103 23.2259 29.4664 23.0578 29.6225C22.7858 29.8752 22.5138 30.1277 22.2746 30.4111C23.0301 31.1259 23.9871 31.6416 25.0249 31.7788C26.0391 31.9065 27.1301 31.8446 28.0338 31.3234C28.8003 30.8978 29.4039 30.1712 29.6406 29.324C29.7875 28.9018 29.7855 28.4508 29.7835 28.0095V28.0095L29.7832 27.9351C29.7824 25.5986 29.7824 23.263 29.7832 20.9265C29.4159 20.9219 29.0487 20.9221 28.6814 20.9224C28.4162 20.9225 28.1509 20.9227 27.8857 20.921C27.8858 20.9852 27.8862 21.0494 27.8866 21.1135V21.1136C27.8877 21.3221 27.8889 21.5307 27.8841 21.7393C27.5573 21.472 27.1959 21.2361 26.7939 21.1005ZM24.3869 23.1368C24.7011 22.8577 25.1181 22.7511 25.5249 22.6908C26.3346 22.5677 27.2453 22.9385 27.6599 23.6635C27.8271 23.9572 27.8202 24.2892 27.8133 24.6181V24.6181C27.8109 24.7333 27.8085 24.848 27.8136 24.9606C27.8817 25.6519 27.3433 26.2617 26.7264 26.4968C25.9811 26.7774 25.0617 26.7963 24.4111 26.2782C23.4361 25.5469 23.4165 23.8782 24.3869 23.1368ZM43.4461 20.9226C42.6357 20.9171 41.7908 21.1593 41.2069 21.744C41.2017 21.6692 41.1968 21.5946 41.192 21.52C41.1836 21.3914 41.1752 21.263 41.1653 21.135C40.5273 21.1271 39.8893 21.1248 39.2513 21.135C39.2522 23.0694 39.2521 25.0037 39.2519 26.9381C39.2519 28.3889 39.2518 29.8397 39.2521 31.2905C39.7004 31.3194 40.1498 31.3168 40.599 31.3143H40.5991C40.808 31.3132 41.0169 31.312 41.2257 31.314C41.2403 30.4177 41.237 29.521 41.2338 28.6242C41.2327 28.318 41.2315 28.0117 41.2311 27.7054C42.6388 28.8239 44.8797 28.7008 46.1455 27.4178C47.5234 26.036 47.6025 23.5733 46.2756 22.1312C45.5772 21.3286 44.505 20.885 43.4461 20.9226ZM41.3236 23.832C41.5298 23.212 42.1599 22.8421 42.7721 22.7206C43.403 22.5928 44.1084 22.7519 44.5959 23.1814C45.422 23.9323 45.4283 25.3753 44.6492 26.1614C43.8678 26.9177 42.4852 26.9036 41.7085 26.1473C41.3777 25.8549 41.2045 25.3972 41.2335 24.9598C41.24 24.8445 41.2369 24.7275 41.2338 24.6104C41.2268 24.3454 41.2198 24.0798 41.3236 23.832ZM33.5281 21.019C34.6419 20.7948 35.8607 20.9296 36.8302 21.5496C37.5677 21.9948 38.1289 22.7167 38.3797 23.5404C38.7238 24.6228 38.5694 25.8612 37.9251 26.8033C37.2848 27.7525 36.1914 28.334 35.0628 28.443C34.3676 28.49 33.6488 28.4665 32.9912 28.2133C31.9018 27.8473 30.9879 26.9483 30.6665 25.8377C30.3217 24.7968 30.4816 23.6055 31.0725 22.6837C31.6196 21.8216 32.5366 21.233 33.5281 21.019ZM33.9945 22.7308C33.717 22.8099 33.4576 22.9479 33.2303 23.1242C32.4434 23.7442 32.2513 24.97 32.8117 25.8001C33.4521 26.8558 35.1043 27.0643 35.9712 26.1802C36.3952 25.7907 36.5966 25.2091 36.5402 24.6393C36.588 23.3758 35.1866 22.3577 33.9945 22.7308ZM52.1884 20.9696C51.048 20.8199 49.8128 20.979 48.8668 21.6758C48.3205 22.11 47.8533 22.7073 47.7609 23.4174C48.0332 23.464 48.3033 23.5229 48.5734 23.5818L48.5735 23.5818C48.9253 23.6586 49.2772 23.7353 49.6341 23.785C49.7885 23.165 50.3262 22.672 50.9571 22.5701C51.3655 22.4995 51.7903 22.5207 52.1877 22.6414C52.5349 22.7543 52.799 23.1344 52.647 23.4965C52.3637 23.7548 51.9784 23.8329 51.6114 23.9072C51.564 23.9168 51.517 23.9264 51.4705 23.9362L51.2794 23.9634C50.3477 24.095 49.3791 24.2318 48.5862 24.7702C47.6057 25.456 47.6017 27.0698 48.5086 27.8191C49.2571 28.4626 50.3113 28.5363 51.2503 28.4116C51.9 28.2901 52.5545 28.0088 52.9691 27.4734C52.9714 27.6055 52.9714 27.7376 52.9714 27.8697C52.9714 28.0019 52.9714 28.1342 52.9738 28.2666C53.1168 28.2664 53.2598 28.266 53.4029 28.2655L53.4031 28.2655C53.8568 28.2641 54.3109 28.2626 54.7655 28.2698C54.7673 27.3843 54.7671 26.4991 54.7668 25.6139C54.7666 24.9502 54.7664 24.2864 54.7671 23.6227C54.7741 23.0843 54.5774 22.5599 54.2811 22.1163C53.7999 21.4407 52.9832 21.0997 52.1884 20.9696ZM49.7211 26.3338C49.6176 26.0885 49.8175 25.8463 50.0174 25.7256C50.4205 25.5034 50.8742 25.4206 51.327 25.3378C51.8727 25.2382 52.4172 25.1387 52.8703 24.796C52.866 24.9036 52.8695 25.0163 52.873 25.1305V25.1306C52.8847 25.5163 52.897 25.9198 52.614 26.2076C52.067 26.7531 51.2338 26.8535 50.4978 26.8064C50.1921 26.7884 49.7901 26.6826 49.7211 26.3338ZM55.5545 21.1295C55.3437 21.1299 55.133 21.1303 54.9223 21.1303C55.4783 22.292 56.0466 23.448 56.615 24.604C57.1483 25.6886 57.6816 26.7733 58.2048 27.863C57.9476 28.4284 57.668 28.9835 57.3884 29.5386C57.0928 30.1253 56.7973 30.7119 56.5283 31.3108C56.7547 31.3099 56.9812 31.3116 57.2079 31.3134C57.7116 31.3172 58.2156 31.3211 58.7189 31.2952C60.3704 27.9108 62.0202 24.5264 63.6685 21.1405C62.9279 21.1217 62.188 21.1248 61.4481 21.1373C60.738 22.6963 60.0192 24.2521 59.2966 25.8048C59.0835 25.3447 58.8682 24.8856 58.6528 24.4266C58.3011 23.6766 57.9493 22.9268 57.6075 22.1727C57.5528 22.0499 57.4925 21.9296 57.4322 21.8093C57.3216 21.5886 57.211 21.368 57.1349 21.1326C56.6081 21.1276 56.0813 21.1286 55.5545 21.1295Z" fill="#010101"/>
</svg>
