<svg width="70" height="50" viewBox="0 0 70 50" fill="none" xmlns="http://www.w3.org/2000/svg">
<rect width="70" height="50" rx="4" fill="white"/>
<path fill-rule="evenodd" clip-rule="evenodd" d="M33.9175 29.1182V24.6071V24.6062H36.3579C37.364 24.6068 38.2095 24.2907 38.8946 23.6578C39.5868 23.0571 39.9739 22.1935 39.9542 21.2934C39.9679 20.3982 39.5816 19.541 38.8946 18.9422C38.2156 18.3059 37.3023 17.9587 36.3579 17.9778H32.4404V29.1182H33.9175ZM33.9175 23.2382V19.3494V19.3485H36.3946C36.9466 19.3334 37.4788 19.5487 37.856 19.9396C38.2355 20.2971 38.4496 20.7881 38.4496 21.3009C38.4496 21.8137 38.2355 22.3048 37.856 22.6622C37.4742 23.0449 36.9437 23.254 36.3946 23.2382H33.9175Z" fill="#5F6368"/>
<path fill-rule="evenodd" clip-rule="evenodd" d="M45.9431 22.0952C45.3113 21.5299 44.4496 21.2472 43.3578 21.2472C41.9554 21.2472 40.8963 21.745 40.1807 22.7405L41.4817 23.5343C41.9624 22.8599 42.6153 22.5227 43.4404 22.5227C43.9664 22.5168 44.4755 22.7031 44.8661 23.0445C45.2555 23.3565 45.4795 23.8216 45.4762 24.3112V24.6383C44.9086 24.3272 44.1863 24.1716 43.3092 24.1716C42.2817 24.1728 41.4603 24.4063 40.845 24.8721C40.2297 25.3379 39.922 25.9651 39.922 26.7539C39.9086 27.4721 40.2302 28.1578 40.7973 28.6205C41.3807 29.1183 42.1058 29.3672 42.9725 29.3672C43.9878 29.3672 44.8012 28.9316 45.4129 28.0605H45.4771V29.1183H46.8899V24.4205C46.8905 23.4356 46.5749 22.6605 45.9431 22.0952ZM41.9367 27.7183C41.6273 27.5022 41.4448 27.1545 41.4468 26.785C41.4468 26.3699 41.6477 26.0241 42.0523 25.7396C42.4529 25.4593 42.9532 25.3192 43.5532 25.3192C44.3771 25.3192 45.0193 25.497 45.4798 25.8525C45.4798 26.4534 45.2352 26.977 44.7459 27.4232C44.3052 27.8503 43.7077 28.0906 43.0844 28.0916C42.6689 28.0992 42.2634 27.9673 41.9367 27.7183Z" fill="#5F6368"/>
<path fill-rule="evenodd" clip-rule="evenodd" d="M54.9999 21.496L50.0677 32.4782H48.543L50.3732 28.6355L47.1301 21.496H48.7356L51.0797 26.9715H51.1118L53.3916 21.496H54.9999Z" fill="#5F6368"/>
<path fill-rule="evenodd" clip-rule="evenodd" d="M27.9486 23.6347C27.9491 23.1986 27.9111 22.7632 27.8348 22.3334H21.6055V24.7983H25.1734C25.0258 25.5938 24.5493 26.2964 23.8541 26.7432V28.3432H25.9835C27.2302 27.2294 27.9486 25.5823 27.9486 23.6347Z" fill="#4285F4"/>
<path fill-rule="evenodd" clip-rule="evenodd" d="M21.6054 29.889C23.388 29.889 24.8889 29.3219 25.9834 28.3441L23.8541 26.7441C23.2614 27.1334 22.4981 27.3556 21.6054 27.3556C19.8825 27.3556 18.4201 26.2303 17.8972 24.7139H15.7036V26.3628C16.8249 28.5245 19.1084 29.8889 21.6054 29.889Z" fill="#34A853"/>
<path fill-rule="evenodd" clip-rule="evenodd" d="M17.8972 24.7138C17.6207 23.9192 17.6207 23.0586 17.8972 22.264V20.6151H15.7036C14.7658 22.4232 14.7658 24.5546 15.7036 26.3627L17.8972 24.7138Z" fill="#FBBC04"/>
<path fill-rule="evenodd" clip-rule="evenodd" d="M21.6054 19.6223C22.5475 19.6073 23.4577 19.9522 24.1394 20.5823L26.0247 18.7556C24.8292 17.6677 23.2455 17.0704 21.6054 17.0889C19.1084 17.089 16.8249 18.4534 15.7036 20.6151L17.8972 22.264C18.4201 20.7476 19.8825 19.6223 21.6054 19.6223Z" fill="#EA4335"/>
</svg>
