<svg width="70" height="50" viewBox="0 0 70 50" fill="none" xmlns="http://www.w3.org/2000/svg">
<rect width="70" height="50" rx="4" fill="#0881D0"/>
<path d="M11.7439 15.5294C14.5757 13.6886 18.0623 12.4733 21.4547 13.2267C25.9479 14.0361 29.9591 17.1191 31.7999 21.3097C28.5982 19.9778 24.7618 19.9375 21.6901 21.646C21.1161 21.9307 20.6251 22.3545 20.0466 22.6325C18.4591 19.2289 15.4502 16.4038 11.7439 15.5294Z" fill="#A5C937"/>
<path d="M33.8975 21.8881C32.9154 19.5428 31.4266 17.4195 29.5679 15.6841C31.5298 16.2581 33.5791 16.5159 35.6217 16.3769C36.1755 17.8814 37.0342 19.3253 38.3392 20.2962C39.1934 20.9621 40.2181 21.359 41.2585 21.6303C38.9602 22.6684 36.2674 22.7289 33.8975 21.8881Z" fill="#A5C937"/>
<path fill-rule="evenodd" clip-rule="evenodd" d="M42.7551 20.4038C42.8089 19.6661 43.6744 19.5428 44.2619 19.6145C45.643 19.5406 46.93 20.776 46.8583 22.1661C46.8548 23.6069 46.8563 25.048 46.8579 26.4893V26.4894V26.4896V26.4898V26.4922C46.8603 28.798 46.8627 31.1042 46.8448 33.4105C46.7977 34.7087 45.2932 35.6415 44.0982 35.1437C43.4435 34.9531 43.0376 34.3791 42.7641 33.7939C41.7394 35.0697 40.0376 35.7917 38.4121 35.4554C36.4749 35.1325 34.9973 33.4419 34.6049 31.5697C34.2305 29.6975 34.374 27.5876 35.5332 26.0024C37.1251 23.6885 40.7394 23.498 42.7439 25.3746C42.7446 24.8444 42.7417 24.3142 42.7387 23.784C42.7324 22.6572 42.7262 21.5305 42.7551 20.4038ZM39.7417 27.545C38.2596 28.3903 38.2125 30.8567 39.5556 31.8545C40.5713 32.5338 41.9076 32.0563 42.7462 31.3096C42.7305 30.276 42.7327 29.2424 42.7439 28.2087C41.9592 27.48 40.7596 27.0899 39.7417 27.545ZM11.5421 19.6168C10.9524 19.545 10.0511 19.6482 10.0107 20.4038C9.99535 24.1171 9.99975 27.832 10.0041 31.5457L10.0062 33.4015C10.0309 35.0069 12.226 35.8746 13.3829 34.7872C14.1976 34.1143 14.1487 33.1016 14.1008 32.1093C14.0798 31.6732 14.0589 31.241 14.1116 30.8432L14.4862 31.3592L14.4862 31.3592L14.4863 31.3593C15.1768 32.3108 15.8671 33.262 16.5735 34.202C17.0713 34.8612 17.8762 35.3432 18.726 35.2603C19.5982 35.1751 20.3426 34.6549 20.9861 34.0989C20.7588 33.7677 20.5314 33.4368 20.3041 33.106L20.3038 33.1057C19.466 31.8863 18.6288 30.668 17.8 29.4441C18.2824 28.7669 18.7596 28.0865 19.2366 27.4062C19.7372 26.6924 20.2376 25.9788 20.7439 25.2693C20.1228 24.6953 19.3941 24.0742 18.4928 24.1056C17.6139 24.1258 16.6654 24.4935 16.1834 25.267C15.8389 25.7804 15.4943 26.2933 15.1498 26.8062L15.1476 26.8095L15.1472 26.8101C14.802 27.3239 14.4568 27.8378 14.1116 28.3522C14.0923 27.2028 14.0957 26.054 14.0992 24.9056V24.9056V24.9055C14.1021 23.9212 14.1051 22.9372 14.0937 21.9531C14.0645 20.6549 12.8269 19.5607 11.5421 19.6168ZM21.9166 25.7693C21.9076 25.0249 22.4749 24.3567 23.1767 24.1571C23.7013 24.0854 24.2394 24.0719 24.7596 24.1684C25.4412 24.3814 26.0152 25.0383 25.9883 25.7782C26.0016 26.4617 25.996 27.1461 25.9904 27.8305C25.9828 28.7626 25.9751 29.6949 26.0152 30.6258C26.2125 32.2199 28.948 32.2334 29.143 30.6325C29.1876 29.682 29.1793 28.7307 29.171 27.7792C29.165 27.1033 29.1591 26.4273 29.1722 25.7513C29.1946 24.1459 31.2798 23.6975 32.4524 24.3702C32.9367 24.6549 33.2506 25.211 33.2372 25.776C33.2439 28.8208 33.2417 31.8657 33.2372 34.9105C32.4323 35.2267 31.5062 35.4845 30.6699 35.1302C30.0309 34.8724 29.6094 34.2984 29.2753 33.7222C28.2439 35.0876 26.439 35.8567 24.7506 35.4128C23.0264 35.0563 21.9726 33.2805 21.9143 31.6123L21.9129 31.0275C21.9087 29.274 21.9045 27.5207 21.9166 25.7693ZM52.8448 24.258C54.5713 23.841 56.4861 24.2737 57.8426 25.4307C59.4412 26.7356 60.2103 28.9509 59.7798 30.9688C59.2977 33.4957 56.9323 35.5002 54.3515 35.5249C51.6587 35.6639 49.069 33.6235 48.5847 30.9688C47.8941 28.0585 49.93 24.8881 52.8448 24.258ZM53.3403 27.489C52.6049 27.767 52.0085 28.4038 51.8 29.1639C51.3336 30.628 52.5802 32.3119 54.1206 32.2648C55.782 32.4105 57.152 30.5047 56.4995 28.9778C56.0847 27.711 54.578 27.0406 53.3403 27.489Z" fill="white"/>
</svg>
