<svg width="70" height="50" viewBox="0 0 70 50" fill="none" xmlns="http://www.w3.org/2000/svg">
<rect width="70" height="50" rx="4" fill="white"/>
<path fill-rule="evenodd" clip-rule="evenodd" d="M6.62951 27.6291C6.28191 27.6291 6 27.3492 6 27.0039V22.4554C6 22.1102 6.28191 21.8302 6.62951 21.8302C6.97712 21.8302 7.25902 22.1102 7.25902 22.4554V27.0039C7.25902 27.3492 6.97712 27.6291 6.62951 27.6291Z" fill="#89C7E8"/>
<path fill-rule="evenodd" clip-rule="evenodd" d="M14.1835 27.6291C13.8359 27.6291 13.554 27.3491 13.554 27.0039V22.459C13.554 22.1137 13.8359 21.8337 14.1835 21.8337C14.5311 21.8337 14.813 22.1137 14.813 22.459V27.0039C14.813 27.3491 14.5311 27.6291 14.1835 27.6291Z" fill="#0BADDC"/>
<path fill-rule="evenodd" clip-rule="evenodd" d="M10.4064 29.4532C10.0588 29.4532 9.77686 29.1732 9.77686 28.828V20.635C9.77686 20.2897 10.0588 20.0098 10.4064 20.0098C10.754 20.0098 11.0359 20.2897 11.0359 20.635V28.828C11.0359 29.1732 10.754 29.4532 10.4064 29.4532Z" fill="#307FC2"/>
<path fill-rule="evenodd" clip-rule="evenodd" d="M59.6171 26.9098C59.5415 26.856 59.4658 26.7485 59.4658 26.6085C59.4658 26.4151 59.6283 26.2537 59.8337 26.2537C59.9094 26.2537 59.9854 26.2751 60.0396 26.3186C60.613 26.7054 61.2086 26.9098 61.8146 26.9098C62.486 26.9098 62.9733 26.5658 62.9733 26.0279V26.0066C62.9733 25.4474 62.3132 25.2323 61.5769 25.0282C60.6998 24.7807 59.7254 24.4797 59.7254 23.4587V23.4369C59.7254 22.4799 60.5266 21.8452 61.6307 21.8452C62.2264 21.8452 62.8762 22.0283 63.4169 22.3186C63.5256 22.3834 63.6227 22.5013 63.6227 22.6626C63.6227 22.8564 63.4603 23.0177 63.2548 23.0177C63.1788 23.0177 63.1139 22.996 63.0709 22.9746C62.5943 22.7057 62.0858 22.5444 61.6092 22.5444C60.9486 22.5444 60.5266 22.8884 60.5266 23.3511V23.3725C60.5266 23.8992 61.2194 24.1037 61.9663 24.3291C62.8324 24.5873 63.7633 24.9207 63.7633 25.9208V25.9417C63.7633 26.996 62.8869 27.6086 61.7716 27.6086C61.0354 27.6086 60.2235 27.3397 59.6171 26.9098Z" fill="#123049"/>
<path fill-rule="evenodd" clip-rule="evenodd" d="M58.2636 24.1638C58.2636 22.9129 57.1591 21.8239 55.8276 21.8239C54.4806 21.8239 53.3884 22.9086 53.3884 24.2464V27.1115C53.3884 27.3586 53.5807 27.5492 53.8292 27.5492C54.0785 27.5492 54.2592 27.3586 54.2592 27.1115L54.2588 25.8247V24.1634C54.2588 23.304 54.9604 22.6072 55.8256 22.6072C56.6913 22.6072 57.3928 23.304 57.3928 24.1634V25.8274V27.1115C57.3928 27.3586 57.5848 27.5492 57.8225 27.5492C58.0713 27.5492 58.2636 27.3586 58.2636 27.1115C58.2636 27.1115 58.2716 24.4331 58.2636 24.1638Z" fill="#123049"/>
<path fill-rule="evenodd" clip-rule="evenodd" d="M49.1866 26.8759C48.4285 26.8759 47.8309 26.5548 47.8309 25.8561V25.8343C47.8309 25.1355 48.4154 24.6839 49.4654 24.6839C50.1474 24.6839 51.1102 24.901 51.1106 24.9204V24.9216C51.1106 25.9407 50.1522 26.8759 49.1866 26.8759ZM51.901 24.1034H51.8994C51.8233 22.9103 50.7538 21.8979 49.4705 21.8979H49.097C48.8792 21.8979 48.7028 22.0731 48.7028 22.2894C48.7028 22.5058 48.8792 22.6813 49.097 22.6813H49.4685C50.3342 22.6813 51.1002 23.3781 51.1002 24.2375V24.3075C50.6021 24.1679 50.0933 24.071 49.3789 24.071C47.9607 24.071 46.9863 24.6946 46.9863 25.8667V25.8881C46.9863 27.0282 47.9981 27.6194 49.0373 27.6194C49.981 27.6194 50.7256 27.1389 51.1106 26.52V27.1571C51.1106 27.3738 51.2878 27.5494 51.506 27.5494C51.7242 27.5494 51.9014 27.3738 51.9014 27.1571L51.901 24.1034Z" fill="#123049"/>
<path fill-rule="evenodd" clip-rule="evenodd" d="M46.8287 22.2886C46.8287 22.0723 46.6519 21.8967 46.4341 21.8967H46.165H46.1646C44.8175 21.8967 43.7253 22.9815 43.7253 24.3189V27.1116C43.7253 27.3587 43.9177 27.5494 44.1661 27.5494C44.4154 27.5494 44.5961 27.3587 44.5961 27.1116L44.5957 25.8248V24.2362C44.5957 23.3769 45.2973 22.6801 46.1626 22.6801H46.165V22.6805H46.4341C46.6519 22.6805 46.8287 22.5049 46.8287 22.2886Z" fill="#123049"/>
<path fill-rule="evenodd" clip-rule="evenodd" d="M42.3418 22.2687C42.3418 22.0666 42.177 21.9029 41.9735 21.9029H40.5122V20.4437C40.5122 20.2143 40.3239 20.0035 40.0934 20.002C39.8533 20 39.6785 20.1942 39.6785 20.4211V26.0283C39.6785 27.1569 40.3601 27.5979 41.2588 27.5979C41.5837 27.5979 41.8437 27.5441 42.0818 27.4476C42.2224 27.3938 42.3199 27.2756 42.3199 27.1249C42.3199 26.9311 42.1575 26.7702 41.9628 26.7702C41.8979 26.7702 41.7462 26.8453 41.4539 26.8453C40.8909 26.8453 40.5122 26.5978 40.5122 25.9207V22.6345H41.9735C42.177 22.6345 42.3418 22.4708 42.3418 22.2687Z" fill="#123049"/>
<path fill-rule="evenodd" clip-rule="evenodd" d="M37.956 27.1356C37.956 27.3721 37.772 27.5548 37.5446 27.5548C37.3065 27.5548 37.1222 27.3721 37.1222 27.1356V26.5392C36.6675 27.206 36.0073 27.6192 34.9788 27.6192C33.6366 27.6192 32.3047 26.5657 32.3047 24.7379V24.7162C32.3047 22.8995 33.6366 21.8242 34.9788 21.8242C36.018 21.8242 36.6894 22.2268 37.1222 22.8504V20.4196C37.1222 20.1831 37.2954 20 37.5339 20C37.772 20 37.956 20.1831 37.956 20.4196V27.1356ZM33.1604 24.7055V24.7273C33.1604 26.039 34.0801 26.8777 35.1305 26.8777C36.1698 26.8777 37.1548 26.0066 37.1548 24.7273V24.7055C37.1548 23.4262 36.1698 22.5661 35.1305 22.5661C34.0475 22.5661 33.1604 23.3618 33.1604 24.7055Z" fill="#123049"/>
<path fill-rule="evenodd" clip-rule="evenodd" d="M30.0764 22.2394C30.0764 22.0136 30.2604 21.8202 30.4877 21.8202C30.7258 21.8202 30.9102 22.0029 30.9102 22.2394V27.1355C30.9102 27.3724 30.7366 27.5547 30.4985 27.5547C30.2604 27.5547 30.0764 27.3724 30.0764 27.1355V22.2394Z" fill="#123049"/>
<path fill-rule="evenodd" clip-rule="evenodd" d="M26.0147 21.8202C25.2168 21.8202 24.5128 22.2188 24.092 22.8254C23.6735 22.2216 22.9779 21.8241 22.1827 21.8241C20.8938 21.8241 19.8486 22.8622 19.8486 24.1423V27.1355C19.8486 27.372 20.0322 27.5547 20.2707 27.5547C20.5088 27.5547 20.6824 27.372 20.6824 27.1355L20.6816 24.0632C20.6816 23.2403 21.3529 22.5739 22.1815 22.5739C23.0093 22.5739 23.681 23.2403 23.681 24.0632L23.6807 26.7926V26.7938C23.6807 27.0224 23.867 27.2079 24.0975 27.2079C24.3277 27.2079 24.5144 27.0224 24.5144 26.7938L24.5132 24.0593C24.5132 23.2367 25.1849 22.57 26.0131 22.57C26.8413 22.57 27.5127 23.2367 27.5127 24.0593V27.1315C27.5127 27.3684 27.6966 27.5507 27.924 27.5507C28.1621 27.5507 28.3464 27.3684 28.3464 27.1315L28.3488 24.1423C28.3488 22.8219 27.2503 21.8202 26.0147 21.8202Z" fill="#123049"/>
</svg>
