<svg width="70" height="50" viewBox="0 0 70 50" fill="none" xmlns="http://www.w3.org/2000/svg">
<rect width="70" height="50" rx="4" fill="white"/>
<path fill-rule="evenodd" clip-rule="evenodd" d="M11.816 19H7.74443C7.34699 21.4492 6.96023 23.9002 6.57347 26.351L6.57346 26.3511L6.57345 26.3511L6.57338 26.3516L6.57325 26.3524C6.40257 27.434 6.23189 28.5156 6.0603 29.597C6.41025 29.5985 6.76037 29.5982 7.11059 29.5979H7.11064H7.11069C7.55655 29.5975 8.00257 29.5971 8.44859 29.6005C8.51902 29.1571 8.58878 28.7136 8.65853 28.27C8.79955 27.3733 8.94056 26.4767 9.08712 25.5813C10.0006 25.7463 10.9264 25.8775 11.8568 25.8731C12.5414 25.8704 13.2527 25.6514 13.7245 25.1344C14.3861 24.4134 14.6131 23.4192 14.7443 22.4765C14.8454 21.5639 14.8073 20.5219 14.1564 19.8044C13.5826 19.141 12.6452 18.9982 11.816 19ZM10.1171 23.7892C9.86653 23.7871 9.61593 23.785 9.36559 23.789C9.45518 23.235 9.54375 22.681 9.63235 22.1267L9.63237 22.1266C9.68672 21.7866 9.74109 21.4465 9.79572 21.1063C10.0362 21.1066 10.2768 21.1063 10.5174 21.106H10.5174H10.5175C10.9025 21.1055 11.2876 21.105 11.6723 21.1072C11.9596 21.101 12.2408 21.2943 12.3046 21.5807C12.4013 22.0446 12.3108 22.5279 12.1725 22.9749C12.0563 23.358 11.7654 23.7376 11.3379 23.773C10.9317 23.7961 10.5244 23.7927 10.1172 23.7892H10.1172H10.1171ZM20.9425 19H18.2172C17.0986 21.2612 16.0005 23.5327 14.9023 25.804C14.2906 27.0693 13.679 28.3345 13.0638 29.5979C13.3795 29.5976 13.6953 29.5978 14.0111 29.5981C14.5795 29.5985 15.1479 29.599 15.7163 29.5961C15.8818 29.2396 16.0504 28.8847 16.219 28.5298C16.383 28.1847 16.5469 27.8397 16.7078 27.4934L17.018 27.4928C17.9458 27.4912 18.8731 27.4895 19.8003 27.4943C19.92 28.1958 20.0397 28.8964 20.1648 29.597C20.9807 29.5988 21.7966 29.5988 22.6125 29.597C22.3863 28.1719 22.1637 26.746 21.9411 25.3202L21.9411 25.3198L21.941 25.3194L21.941 25.3194L21.941 25.3193C21.6121 23.2122 21.2831 21.105 20.9425 19ZM19.4189 25.4062C18.8201 25.4079 18.222 25.4096 17.6231 25.404C17.8875 24.8293 18.1496 24.2532 18.4117 23.6772C18.6531 23.1464 18.8945 22.6157 19.1378 22.0863C19.2099 22.6285 19.2868 23.1699 19.3638 23.7113L19.3638 23.7114L19.3638 23.7115C19.444 24.276 19.5243 24.8404 19.599 25.4058L19.4189 25.4062ZM25.0336 19H22.4981C22.5167 19.1198 22.5353 19.2395 22.5655 19.3574C22.9861 20.9243 23.4036 22.4924 23.8212 24.0607C23.9961 24.7177 24.1711 25.3748 24.3463 26.0319C24.3579 26.0793 24.3717 26.1268 24.3857 26.1746C24.4334 26.3385 24.4819 26.5047 24.442 26.6757C24.3157 27.4551 24.1916 28.2344 24.0676 29.0138C24.0366 29.2082 24.0057 29.4026 23.9747 29.597C24.316 29.5985 24.6571 29.5981 24.9982 29.5977C25.4531 29.5971 25.9079 29.5965 26.363 29.6006C26.3945 29.4036 26.4262 29.2067 26.4579 29.0098C26.5758 28.2773 26.6937 27.5446 26.8055 26.8114C26.8095 26.7887 26.8132 26.7658 26.8168 26.7429C26.8343 26.6339 26.852 26.5234 26.9084 26.4274C27.5508 25.3678 28.2028 24.3137 28.8547 23.2596C29.7301 21.8442 30.6055 20.4288 31.4579 19H28.7637C28.2612 19.8797 27.7707 20.7659 27.28 21.6522C26.8709 22.3914 26.4617 23.1306 26.0455 23.8662C25.891 23.1047 25.7375 22.3431 25.5839 21.5818C25.4712 21.0229 25.3585 20.4641 25.2455 19.9055C25.2266 19.8179 25.2104 19.7295 25.1941 19.6412C25.1542 19.4237 25.1143 19.2063 25.0336 19Z" fill="#3A8FF3"/>
<path fill-rule="evenodd" clip-rule="evenodd" d="M42.1329 19H44.7731C44.8784 19.0401 44.891 19.1423 44.9031 19.2408V19.2408C44.9076 19.2775 44.9121 19.3136 44.9212 19.3459C45.1865 21.0625 45.4561 22.7782 45.7257 24.4938L45.7257 24.4939L45.7257 24.494L45.7257 24.4941L45.726 24.4959L45.7268 24.501L45.7269 24.5015C45.9939 26.201 46.2609 27.9004 46.5237 29.6005C45.9478 29.5961 45.3719 29.5971 44.796 29.598C44.556 29.5984 44.316 29.5987 44.076 29.5987L44.0256 29.3049C43.9219 28.7005 43.8183 28.0961 43.7107 27.4925C43.271 27.4913 42.8312 27.4917 42.3912 27.492H42.3912H42.3911H42.391H42.3906C41.8041 27.4924 41.2173 27.4929 40.6306 27.4898C40.4493 27.86 40.2731 28.233 40.097 28.6061L40.0969 28.6061L40.0969 28.6062L40.0969 28.6062C39.9406 28.9373 39.7842 29.2685 39.6241 29.5979C39.3067 29.5972 38.9893 29.5976 38.6719 29.598H38.6718H38.6718H38.6718C38.1073 29.5987 37.5428 29.5994 36.9786 29.5943C37.6428 28.2342 38.3014 26.8711 38.9601 25.508L38.9601 25.508C40.0102 23.3348 41.0604 21.1615 42.1329 19ZM41.5388 25.4066C42.1977 25.4084 42.8566 25.4075 43.5155 25.4066C43.4657 25.054 43.4164 24.7012 43.3671 24.3483L43.367 24.3474L43.3667 24.3448C43.262 23.5949 43.1573 22.8448 43.0464 22.096C42.7937 22.6472 42.5431 23.1992 42.2926 23.7513L42.292 23.7526C42.0416 24.3043 41.7913 24.8559 41.5388 25.4066ZM55.974 19H48.6415C48.5612 19.441 48.4911 19.8837 48.4211 20.3263C48.3753 20.6163 48.3294 20.9063 48.2806 21.1958C48.7039 21.1958 49.1273 21.1956 49.5507 21.1953H49.5507H49.5508H49.5509C50.6094 21.1945 51.6681 21.1938 52.7273 21.1976C51.511 22.5997 50.2919 23.9994 49.0727 25.3991L49.0727 25.3991L49.0711 25.4008C48.511 26.0439 47.9509 26.6869 47.3911 27.3302C47.3036 27.4169 47.2837 27.5405 47.2649 27.6573L47.2607 27.6832C47.1966 28.107 47.1277 28.5304 47.0588 28.9539L47.0588 28.9544L47.0587 28.9548C47.0239 29.1691 46.989 29.3834 46.9548 29.5979L48.7925 29.5977C50.6299 29.5976 52.467 29.5974 54.3041 29.5987C54.3467 29.3308 54.3902 29.0632 54.4337 28.7955L54.4337 28.7952L54.4338 28.7949C54.5078 28.3389 54.5819 27.883 54.6517 27.426C53.8445 27.4249 53.037 27.4251 52.2293 27.4252H52.2293H52.2292C51.6234 27.4253 51.0176 27.4255 50.4117 27.4251C51.2909 26.3793 52.168 25.3316 53.045 24.284L53.0469 24.2817L53.0473 24.2813L53.0473 24.2812C53.8689 23.2997 54.6905 22.3184 55.5137 21.3386C55.5891 21.2526 55.6503 21.1524 55.6583 21.0344C55.6991 20.7584 55.7444 20.483 55.7897 20.2074L55.7897 20.2074L55.7897 20.2074C55.8558 19.8057 55.9219 19.404 55.974 19ZM56.6392 19H63.9716C63.8705 19.7317 63.765 20.466 63.6196 21.1896C62.574 22.4704 61.5089 23.7369 60.4437 25.0036L60.4434 25.004C59.7658 25.8097 59.0882 26.6155 58.4155 27.4251H62.6547C62.6176 27.6545 62.5812 27.8841 62.5448 28.1136L62.5448 28.114C62.4661 28.61 62.3874 29.1059 62.3026 29.6005C59.8549 29.5961 57.4072 29.5952 54.9595 29.6014C55.0079 29.2644 55.0626 28.9285 55.1174 28.5926L55.1174 28.5923C55.163 28.3131 55.2085 28.0339 55.2503 27.7541C55.2564 27.7237 55.2613 27.6925 55.2661 27.6612C55.2848 27.5413 55.3039 27.4186 55.3931 27.3293C56.1436 26.4686 56.8932 25.6071 57.6428 24.7455L57.6438 24.7444C58.6734 23.561 59.7031 22.3775 60.7355 21.1958L60.0992 21.1954H60.0991C58.8267 21.1946 57.5543 21.1937 56.2826 21.1967C56.3219 20.9545 56.3605 20.7122 56.399 20.4699L56.3992 20.4688C56.4771 19.9787 56.5549 19.4887 56.6392 19ZM34.9069 19.0293C34.1185 18.9823 33.2636 19.1321 32.6605 19.6784C32.0956 20.1795 31.849 20.9369 31.7595 21.6668C31.3416 24.5038 30.8216 27.3246 30.3018 30.1447C30.2777 30.2752 30.2537 30.4057 30.2296 30.5361C30.3696 30.5132 30.5094 30.4886 30.6492 30.4641C30.8061 30.4365 30.9629 30.4089 31.12 30.3836C31.0926 30.4951 31.0651 30.6067 31.0376 30.7182C30.6632 32.2367 30.2888 33.7555 29.9343 35.2781C31.1384 33.4881 32.3299 31.6896 33.5212 29.8911C33.9997 29.1688 34.4782 28.4465 34.9574 27.7248C34.6462 27.762 34.336 27.8066 34.0258 27.8511C33.7367 27.8926 33.4477 27.9341 33.158 27.9696C33.2056 27.6731 33.2518 27.3765 33.2979 27.08C33.38 26.5526 33.4621 26.0254 33.5518 25.4997C34.1681 25.4741 34.7849 25.4538 35.4017 25.4336C36.0868 25.4111 36.7719 25.3886 37.4566 25.3587C37.4942 25.1133 37.5321 24.8678 37.5701 24.6224C37.6333 24.2133 37.6966 23.8043 37.7581 23.3952C37.0087 23.3548 36.2588 23.3259 35.5087 23.2969C34.9761 23.2764 34.4435 23.2558 33.911 23.2312C33.9437 23.0432 33.9717 22.8544 33.9997 22.6655C34.0429 22.3739 34.086 22.0824 34.1469 21.7945C34.2036 21.4743 34.5114 21.2553 34.8289 21.2624C36.1467 21.2606 37.4655 21.2606 38.7833 21.2632C38.8906 20.5937 38.9944 19.9232 39.0928 19.2528C37.9023 19.1221 36.704 19.0851 35.5073 19.0482C35.3071 19.042 35.107 19.0359 34.9069 19.0293Z" fill="#18BA62"/>
</svg>
