<svg width="70" height="50" viewBox="0 0 70 50" fill="none" xmlns="http://www.w3.org/2000/svg">
<rect width="70" height="50" rx="4" fill="white"/>
<path fill-rule="evenodd" clip-rule="evenodd" d="M29.4419 13H36.266C38.188 13 40.4675 13.0625 41.9925 14.4073C43.0111 15.3057 43.5457 16.7371 43.4221 18.2737C43.0037 23.4845 39.8868 26.4031 35.7072 26.4031H32.3415C31.7688 26.4031 31.3891 26.7826 31.2275 27.8107L30.2883 33.7851C30.2274 34.1727 30.0594 34.4011 29.7527 34.4288H25.5489C25.0825 34.4288 24.9167 34.0719 25.0386 33.2991L28.0658 14.1337C28.187 13.3656 28.6072 13 29.4419 13Z" fill="#1B3D92"/>
<path fill-rule="evenodd" clip-rule="evenodd" d="M33.8306 19H40.6479C44.3077 19 45.6858 20.8526 45.4731 23.5791C45.1222 28.0735 42.4048 30.5587 38.8005 30.5587H36.9806C36.4867 30.5587 36.1543 30.8853 36.0197 31.7728L35.2392 36.9251C35.1885 37.2598 35.0125 37.4563 34.7481 37.4803H30.4734C30.0712 37.4803 29.9281 37.1725 30.0333 36.506L32.6438 19.9778C32.7483 19.3153 33.1106 19 33.8306 19Z" fill="#00A2D3"/>
<path fill-rule="evenodd" clip-rule="evenodd" d="M31 27.5204L32.1916 19.9777C32.2963 19.3154 32.6587 19.0001 33.3787 19.0001H40.196C41.3245 19.0001 42.2362 19.1762 42.9507 19.5006C42.2657 24.1383 39.2662 26.715 35.3385 26.715H31.9727C31.5298 26.715 31.1988 26.9415 31 27.5204Z" fill="#1B2E7F"/>
</svg>
