<svg width="70" height="50" viewBox="0 0 70 50" fill="none" xmlns="http://www.w3.org/2000/svg">
<rect width="70" height="50" rx="4" fill="#8A2784"/>
<path fill-rule="evenodd" clip-rule="evenodd" d="M33.3308 10C33.7999 10.0069 34.2689 10.006 34.7381 10.0051C35.0034 10.0046 35.2687 10.0041 35.5342 10.005C37.2783 14.5417 39.03 19.0758 40.7842 23.6092C39.8033 23.6075 38.8233 23.6083 37.8425 23.6092H37.8417H37.8408H37.84H37.8392H37.8383H37.8375C37.6938 23.1873 37.5442 22.7678 37.3946 22.3483L37.3943 22.3474L37.3937 22.3458L37.3936 22.3456C37.2581 21.9655 37.1226 21.5856 36.9917 21.2042C35.5289 21.2099 34.0662 21.2082 32.6034 21.2066H32.6029L31.8717 21.2058C31.7158 21.6593 31.552 22.1096 31.3882 22.5601L31.3882 22.5601C31.2612 22.9092 31.1342 23.2584 31.0108 23.6092L30.4233 23.6085H30.4227C29.6396 23.6076 28.8565 23.6067 28.0733 23.61C28.9595 21.3372 29.8351 19.0602 30.7106 16.7832L30.7106 16.7831L30.7106 16.7831L30.7107 16.783L30.7107 16.783L30.7107 16.7829L30.711 16.7822L30.711 16.7821L30.711 16.7821C31.5808 14.5201 32.4505 12.2581 33.3308 10ZM34.4708 13.9975C34.1257 14.9831 33.7645 15.9632 33.4033 16.9432C33.1541 17.6196 32.9048 18.296 32.6608 18.9742C33.522 18.9694 34.3833 18.9702 35.2441 18.971H35.2444H35.2446H35.2447H35.2449H35.245H35.2452C35.576 18.9713 35.9068 18.9717 36.2375 18.9717L36.1156 18.626C35.5713 17.082 35.0268 15.5376 34.4708 13.9975ZM19.0025 10.0008C20.0975 10.0074 21.1923 10.0063 22.2869 10.0052C22.9874 10.0044 23.6879 10.0037 24.3883 10.005C25.0725 10.01 25.765 10.1042 26.3983 10.3725C27.3 10.7275 28.0742 11.41 28.5142 12.2767C29.0233 13.2708 29.1275 14.4675 28.7875 15.5333C28.4217 16.8042 27.365 17.8242 26.1108 18.2158C25.5325 18.425 24.9142 18.4858 24.3033 18.4917C23.936 18.4927 23.5686 18.4921 23.2011 18.4916H23.2011H23.201H23.201H23.201H23.201C22.6998 18.4908 22.1985 18.49 21.6975 18.4933C21.6991 19.3052 21.6988 20.1171 21.6985 20.9291C21.6982 21.8221 21.6978 22.7152 21.7 23.6083C21.4 23.6086 21.1 23.6083 20.7999 23.6081C20.2 23.6075 19.6 23.6069 19 23.6108C19.0021 21.3425 19.0017 19.0742 19.0012 16.8058C19.0008 14.5375 19.0004 12.2692 19.0025 10.0008ZM21.6983 12.3692L21.6985 13.3029V13.3031C21.6989 14.2368 21.6992 15.1705 21.6967 16.1042C22.1421 16.1024 22.5876 16.1027 23.0332 16.1031H23.0333H23.0333H23.0334H23.0335H23.0335C23.4297 16.1034 23.826 16.1037 24.2225 16.1025C24.6058 16.1008 24.995 16.0333 25.3333 15.8475C26.14 15.445 26.4242 14.3925 26.1317 13.58C25.9008 12.8833 25.2025 12.3692 24.4667 12.3683C23.5433 12.3708 22.6208 12.3725 21.6983 12.3692ZM38.9733 10.0042L39.4212 10.0046C40.3169 10.0054 41.2126 10.0062 42.1083 10.0033C43.0458 11.8308 43.97 13.665 44.8917 15.5008C45.7967 13.6642 46.7075 11.83 47.6267 10C48.6742 10.0092 49.7208 10.0067 50.7683 10.0008C50.2471 10.9382 49.7263 11.8757 49.2054 12.8132L49.2035 12.8165L49.1812 12.8568L49.1768 12.8648L49.1754 12.8673C48.2438 14.5439 47.3123 16.2206 46.3792 17.8958C46.32 17.9942 46.3058 18.1092 46.3083 18.2217C46.3101 19.1725 46.3098 20.1232 46.3094 21.0739V21.074V21.074V21.0741C46.3091 21.919 46.3088 22.7637 46.31 23.6083C45.9369 23.6064 45.5637 23.6073 45.1905 23.6082H45.1905H45.1904H45.1904C44.5899 23.6097 43.9894 23.6111 43.3892 23.6008C43.4237 23.3514 43.4208 23.0998 43.4179 22.8482C43.4168 22.7535 43.4158 22.6587 43.4167 22.5642C43.4169 22.1224 43.4166 21.6807 43.4163 21.2389V21.2389V21.2389V21.2388C43.4156 20.2923 43.4149 19.346 43.42 18.4C43.4182 18.3669 43.4176 18.3335 43.4169 18.3V18.3C43.4148 18.1927 43.4127 18.0847 43.3733 17.985C43.2908 17.7867 43.1846 17.6002 43.0788 17.4141L43.0788 17.4141C43.0329 17.3335 42.9871 17.253 42.9433 17.1717C42.3648 16.1288 41.7875 15.0852 41.2102 14.0415L41.2098 14.0408L41.2095 14.0401L41.2091 14.0394L41.2086 14.0386C40.4644 12.6931 39.7202 11.3477 38.9733 10.0042ZM19.0017 39.0508C19.0011 36.0258 19.0013 33.0008 19.0015 29.9758L19.0017 25.4383C20.4274 25.4404 21.8531 25.4396 23.2787 25.4388L24.1342 25.4383C25.4275 25.4433 26.6758 26.1558 27.3875 27.2275C27.8792 27.9608 28.1125 28.85 28.0767 29.7308C28.1092 30.8208 27.69 31.9167 26.9283 32.6983C26.2058 33.4508 25.1808 33.9175 24.1333 33.9175C23.6891 33.9183 23.2447 33.9181 22.8004 33.9179H22.7979H22.7955C22.3511 33.9177 21.9067 33.9175 21.4625 33.9183C21.4617 34.696 21.4618 35.4737 21.4619 36.2513C21.4621 37.1845 21.4622 38.1177 21.4608 39.0508C20.6417 39.0492 19.8217 39.0475 19.0017 39.0508ZM21.4625 27.7992C21.4619 28.6292 21.4621 29.4589 21.4623 30.2884L21.4625 31.5325C21.7691 31.5309 22.0758 31.532 22.3826 31.533H22.3831H22.3831H22.3831C22.8848 31.5348 23.3865 31.5365 23.8875 31.5267C24.6708 31.5 25.37 30.8992 25.56 30.1467C25.8758 29.1008 25.0658 27.8942 23.9717 27.8167C23.4726 27.7943 22.9729 27.7974 22.4733 27.8006H22.4732H22.473C22.1361 27.8027 21.7991 27.8049 21.4625 27.7992ZM30.9487 25.44H30.9444H30.9444C30.291 25.4398 29.6376 25.4397 28.9842 25.44C28.9885 28.0699 28.9878 30.6997 28.9871 33.3294C28.9866 35.2286 28.9861 37.1277 28.9875 39.0267C29.8417 39.0258 30.695 39.0258 31.5483 39.0283C31.5499 37.8992 31.5498 36.77 31.5498 35.6408C31.5497 34.9633 31.5497 34.2858 31.55 33.6083C31.8053 33.6076 32.0606 33.6079 32.3159 33.6082C32.6806 33.6087 33.0453 33.6091 33.41 33.6067C33.9016 34.6144 34.3851 35.6263 34.8687 36.6383L34.8688 36.6385L34.8689 36.6387C35.2535 37.4434 35.638 38.2481 36.0267 39.0508C36.5172 39.0479 37.0079 39.0483 37.4988 39.0487H37.4988H37.4997C37.9908 39.0492 38.4821 39.0496 38.9733 39.0467C38.3841 37.8904 37.8027 36.7303 37.2213 35.57L37.2212 35.5697L37.2207 35.5688L37.2199 35.5673C36.8209 34.7709 36.4217 33.9745 36.02 33.1792C37.4083 32.6833 38.4542 31.305 38.4483 29.815C38.5167 28.8392 38.2567 27.835 37.6483 27.06C36.8892 26.0558 35.6467 25.4367 34.3875 25.4383C33.241 25.4405 32.0948 25.4402 30.9487 25.44ZM31.5497 28.2528L31.55 27.8025C31.8727 27.8018 32.1952 27.802 32.5177 27.8021C33.0014 27.8023 33.4848 27.8025 33.9683 27.8C34.3642 27.7917 34.7675 27.875 35.1017 28.095C35.805 28.52 36.1558 29.4783 35.8175 30.2425C35.5458 30.9833 34.7467 31.4483 33.9708 31.4033C33.6703 31.403 33.3696 31.4031 33.0689 31.4031H33.0689H33.064C32.56 31.4032 32.0558 31.4032 31.5517 31.4017C31.548 30.3519 31.5488 29.3029 31.5497 28.2533V28.2531V28.2528ZM44.0633 25.4967C46.255 25.1125 48.6792 26.3783 49.4417 28.5033C49.8066 29.4758 49.8287 30.5251 49.8503 31.5532C49.8521 31.6379 49.8539 31.7224 49.8558 31.8067C49.8561 31.9805 49.8568 32.1544 49.8575 32.3283V32.3284C49.8614 33.2965 49.8653 34.2651 49.7925 35.2308C49.7092 36.2333 49.4408 37.2583 48.8008 38.0558C47.9083 39.19 46.5042 39.9075 45.0592 39.945C43.6325 40.0167 42.195 39.4317 41.215 38.3933C40.54 37.6925 40.145 36.7592 40.0125 35.8017C39.8675 34.7291 39.873 33.6465 39.8784 32.5661V32.5661V32.5658C39.8798 32.2865 39.8812 32.0072 39.88 31.7283L39.8841 31.5532C39.9067 30.5631 39.9297 29.5542 40.25 28.6083C40.7875 26.9517 42.3692 25.7625 44.0633 25.4967ZM44.3367 27.9425C43.5433 28.1133 42.8608 28.7508 42.6833 29.5492C42.4908 30.4525 42.4887 31.3795 42.4866 32.2997C42.4864 32.3871 42.4862 32.4744 42.4858 32.5617C42.4863 32.6932 42.4863 32.8249 42.4863 32.9567V32.9582V32.9582C42.4863 33.8972 42.4862 34.841 42.6725 35.765C42.7575 36.1942 42.9917 36.585 43.3092 36.8833C44.1875 37.7192 45.7617 37.6583 46.5458 36.7208C47.075 36.1392 47.135 35.3158 47.1767 34.5683C47.2508 33.1842 47.25 31.7933 47.1517 30.4108C47.1 29.7875 46.9883 29.1183 46.5433 28.645C46.0183 28.0133 45.1258 27.7675 44.3367 27.9425Z" fill="white"/>
</svg>
