<svg width="70" height="50" viewBox="0 0 70 50" fill="none" xmlns="http://www.w3.org/2000/svg">
<rect width="70" height="50" rx="4" fill="white"/>
<path d="M14.3063 18.0419C14.8712 18.0276 15.4377 18.0184 16.0018 18.0604C17.0762 18.2207 18.0935 18.7243 18.8825 19.4697C19.8603 20.4198 20.4428 21.7603 20.4739 23.1226C20.5142 24.5671 19.9468 26.0343 18.8875 27.0273C17.9718 27.938 16.711 28.4769 15.4218 28.518C14.0368 28.539 12.6527 28.5205 11.2686 28.544C10.9925 29.417 10.765 30.3042 10.4838 31.1754C10.2975 31.7512 9.79636 32.1869 9.23567 32.3841C8.83697 32.4874 8.42065 32.4605 8.01356 32.4731C7.3429 32.4722 6.67225 32.4941 6.00244 32.4664C6.25425 31.6018 6.5069 30.7373 6.77969 29.8794C7.00884 29.1047 7.78693 28.5264 8.59607 28.5381C9.49084 28.5222 10.3856 28.5373 11.2804 28.523C11.35 28.1705 11.4608 27.8289 11.5624 27.4847C12.484 24.3397 13.4241 21.1988 14.3063 18.0419Z" fill="#FB4C0F"/>
<path fill-rule="evenodd" clip-rule="evenodd" d="M27.6159 21.2139C26.5709 21.1551 25.52 21.1484 24.4767 21.2223C24.478 21.33 24.4788 21.4377 24.4796 21.5453C24.4808 21.707 24.482 21.8685 24.4851 22.0297C24.4846 22.1137 24.484 22.1976 24.4834 22.2815C24.4828 22.3655 24.4821 22.4494 24.4817 22.5334C24.4776 23.9163 24.4772 25.2997 24.4767 26.683C24.4765 27.2978 24.4763 27.9126 24.4758 28.5272C24.8441 28.5298 25.2128 28.5294 25.5813 28.5291H25.5814L25.9498 28.5289C25.9501 28.2806 25.95 28.0322 25.95 27.7839C25.9499 27.37 25.9499 26.9561 25.9514 26.5422C26.1172 26.5391 26.2831 26.5373 26.449 26.5354H26.449H26.4491H26.4491H26.4491H26.4491H26.4491C26.8822 26.5305 27.3156 26.5257 27.7477 26.5002C28.8254 26.4397 29.7739 25.6029 30.0542 24.5738C30.3405 23.6044 30.0081 22.4796 29.2342 21.8274C28.7801 21.4556 28.2026 21.2315 27.6159 21.2139ZM25.9499 24.0283C25.9498 23.5134 25.9496 22.9985 25.9506 22.4838C26.1456 22.4923 26.3428 22.488 26.5402 22.4837H26.5402H26.5402H26.5402H26.5402H26.5402H26.5402C26.9689 22.4743 27.3988 22.465 27.8115 22.5862C28.2001 22.692 28.462 23.0193 28.6424 23.3601C28.6453 23.4098 28.6487 23.4597 28.6521 23.5096C28.6703 23.777 28.6886 24.0472 28.6349 24.3103C28.4603 24.8047 27.9726 25.2 27.4346 25.1799C27.0733 25.1878 26.7116 25.1873 26.3498 25.1868C26.2164 25.1866 26.0831 25.1864 25.9498 25.1866C25.9501 24.8006 25.95 24.4145 25.9499 24.0284V24.0284V24.0284V24.0283V24.0283V24.0283V24.0283ZM44.0061 21.213C44.1874 21.2067 44.369 21.2072 44.5507 21.2078C44.8268 21.2086 45.1031 21.2095 45.3785 21.1862C45.4019 21.6307 45.4045 22.076 45.4071 22.5212C45.4082 22.7133 45.4093 22.9054 45.4121 23.0974C45.6421 23.097 45.872 23.097 46.1021 23.097C46.3322 23.097 46.5624 23.097 46.7928 23.0966C46.7998 23.4824 46.7982 23.8681 46.7966 24.2539L46.7962 24.3506C46.4879 24.35 46.1795 24.3502 45.8712 24.3504L45.4087 24.3506C45.4115 24.6933 45.4136 25.0362 45.4156 25.3791C45.4185 25.8592 45.4214 26.3393 45.4263 26.8191C45.4137 27.0718 45.6513 27.3026 45.8997 27.3043C46.0352 27.3275 46.16 27.2852 46.2849 27.2429C46.3634 27.2162 46.442 27.1896 46.5234 27.1792C46.5796 27.3019 46.6569 27.4198 46.7344 27.5381C46.894 27.7818 47.0549 28.0273 47.0362 28.3199C46.3328 28.6506 45.4633 28.7765 44.7624 28.377C44.3142 28.1327 44.1077 27.6216 44.0548 27.1373C43.9915 26.5195 43.9966 25.8979 44.0018 25.2766V25.2766V25.2765V25.2765V25.2764V25.2763C44.0044 24.9675 44.007 24.6588 44.0011 24.3506H43.0207L43.0205 24.037V24.037V24.037V24.0369V24.0369V24.0368C43.0202 23.7235 43.0199 23.4102 43.0224 23.0974C43.3489 23.0974 43.6746 23.0974 44.0011 23.0966C44.0011 22.8574 44.003 22.6182 44.005 22.379C44.0082 21.9904 44.0113 21.6017 44.0061 21.213ZM31.7623 23.4172C32.3684 23.0059 33.1599 22.885 33.8641 23.0831C34.2485 23.1906 34.5549 23.4583 34.8436 23.7227C34.8457 23.6186 34.8472 23.5144 34.8487 23.4103L34.8487 23.4101L34.8487 23.4099L34.8487 23.4096L34.8487 23.4094L34.8487 23.4092L34.8487 23.409C34.8502 23.3047 34.8516 23.2005 34.8537 23.0966C34.9685 23.0966 35.0833 23.0968 35.1981 23.097C35.5428 23.0976 35.8878 23.0982 36.2328 23.0932C36.2692 24.2135 36.2637 25.335 36.2583 26.4567V26.4568C36.2549 27.147 36.2516 27.8373 36.258 28.5272C35.9061 28.5298 35.5543 28.5294 35.2025 28.5291H35.2023L34.8504 28.5289L34.8496 28.4229V28.4229V28.4229V28.4228V28.4228V28.4228C34.8483 28.2452 34.847 28.068 34.8428 27.8902C34.5003 28.2074 34.1134 28.4794 33.6568 28.6019C33.6094 28.6038 33.5617 28.606 33.5139 28.6082C33.1321 28.6256 32.741 28.6435 32.3784 28.5063C31.6944 28.2847 31.1295 27.7575 30.8357 27.1037C30.2632 25.8656 30.5881 24.1903 31.7623 23.4172ZM32.5824 24.5738C32.1988 24.8273 31.9755 25.2747 31.9378 25.7255C31.9034 26.2979 32.2299 26.8653 32.7326 27.1356C33.0575 27.3328 33.4562 27.3328 33.8205 27.2774C34.3963 27.1406 34.8059 26.6278 34.9301 26.0646C34.9295 25.9496 34.9297 25.8347 34.9299 25.7196V25.7194V25.7192V25.719V25.7189V25.7187L34.9301 25.545L34.925 25.5295C34.8275 25.2352 34.7245 24.9243 34.4869 24.7107C33.9925 24.2213 33.1439 24.1718 32.5824 24.5738ZM49.9203 23.1142C50.4315 22.9195 51.0056 22.9975 51.5058 23.1889C51.4276 23.4318 51.3399 23.6713 51.2522 23.9106C51.1714 24.1312 51.0906 24.3517 51.0173 24.5747C50.6421 24.4001 50.2057 24.3665 49.8087 24.4782C49.4167 24.5881 49.1456 24.9801 49.1414 25.3813C49.1229 26.1494 49.1193 26.9179 49.1158 27.6862V27.6864C49.1145 27.9659 49.1132 28.2453 49.1111 28.5247C48.647 28.5314 48.1828 28.5306 47.7195 28.5264C47.7182 27.8472 47.719 27.1681 47.7197 26.489V26.489V26.489V26.4889C47.721 25.3705 47.7223 24.2522 47.7144 23.1335C48.1786 23.0789 48.6554 23.0663 49.1187 23.1411C49.1145 23.3786 49.1179 23.6161 49.1237 23.8528C49.3008 23.5297 49.5636 23.2376 49.9203 23.1142ZM52.5542 23.6455C53.4255 22.8825 54.7659 22.7961 55.7774 23.3207C56.4606 23.6833 56.9659 24.3598 57.122 25.1169C57.1863 25.4197 57.1878 25.7293 57.1893 26.0379C57.1897 26.1202 57.1901 26.2024 57.1917 26.2845C55.7564 26.2929 54.3211 26.2979 52.8858 26.3021C53.0318 26.8133 53.4381 27.2623 53.9685 27.3756C54.4226 27.4764 54.9405 27.4621 55.3317 27.1843C55.4637 27.0876 55.5781 26.9711 55.6924 26.8545C55.73 26.8162 55.7677 26.7779 55.8059 26.7402C56.1903 26.9341 56.5563 27.1616 56.9164 27.3966C56.4757 28.0018 55.8177 28.4769 55.0656 28.5877C54.6383 28.6322 54.2069 28.6171 53.7788 28.5994C52.5601 28.3585 51.5319 27.243 51.5738 25.9714C51.4815 25.0926 51.8785 24.2045 52.5542 23.6455ZM53.5732 24.4009C53.271 24.5722 53.0746 24.8693 52.9437 25.1815C53.898 25.1908 54.8524 25.1908 55.8067 25.1815C55.6968 24.8534 55.4962 24.5436 55.1873 24.3716C54.6912 24.113 54.06 24.1248 53.5732 24.4009ZM60.5273 23.0412C61.1392 22.9245 61.8317 22.9891 62.332 23.3937C62.7986 23.7689 63.1 24.3632 63.0882 24.9667C63.1252 25.7471 63.1252 26.5285 63.1251 27.3101V27.3104C63.1251 27.7166 63.125 28.1228 63.1302 28.5289C62.6559 28.5289 62.1817 28.5289 61.7075 28.5298C61.702 28.2475 61.7032 27.9652 61.7045 27.6829V27.6829C61.7069 27.1434 61.7093 26.6041 61.6647 26.0662C61.6545 25.9088 61.6575 25.7506 61.6606 25.5925C61.6648 25.373 61.669 25.1536 61.6378 24.9364C61.5228 24.6435 61.2995 24.3598 60.9873 24.2692C60.6247 24.2263 60.2075 24.1903 59.9146 24.4538C59.6586 24.6267 59.5469 24.9213 59.4706 25.2067C59.4592 26.0377 59.4592 26.8682 59.4592 27.6986C59.4592 27.9754 59.4592 28.2521 59.4588 28.5289H58.0327C58.033 27.9255 58.0326 27.322 58.0323 26.7185V26.7184C58.0315 25.5114 58.0308 24.3041 58.0353 23.0966C58.2103 23.0969 58.3854 23.0968 58.5606 23.0968C58.8526 23.0967 59.1448 23.0967 59.437 23.0982L59.437 23.0997V23.1001C59.4395 23.3077 59.442 23.516 59.4487 23.7236C59.7526 23.4214 60.0909 23.1201 60.5273 23.0412ZM38.6325 23.0966C38.1583 23.0974 37.6849 23.0974 37.2115 23.0966C37.2048 24.1961 37.2039 25.2957 37.2199 26.3944C37.23 26.9996 37.3718 27.6526 37.8293 28.0824C38.3278 28.5969 39.1068 28.6892 39.7841 28.5885C40.2315 28.5105 40.5849 28.2091 40.8946 27.896C40.9273 28.3938 40.7914 28.9427 40.3885 29.2692C39.7598 29.7661 38.7668 29.7007 38.1919 29.1484C38.1569 29.1256 38.1245 29.0943 38.0919 29.0628C38.0233 28.9965 37.9536 28.9292 37.857 28.9377C37.6277 29.0965 37.4094 29.2704 37.1911 29.4443C37.0506 29.5564 36.91 29.6684 36.7666 29.7762C37.0126 30.0247 37.2736 30.2647 37.58 30.4376C38.6166 30.9757 39.947 31.0277 40.9811 30.4544C41.7533 30.0062 42.2754 29.1408 42.267 28.2419C42.2905 26.527 42.3047 24.8122 42.3073 23.0982C42.1307 23.0973 41.9542 23.0974 41.7778 23.0975C41.4838 23.0977 41.1901 23.0979 40.8963 23.0932L40.8939 23.106C40.8467 23.359 40.7971 23.6254 40.8871 23.8755C40.8518 23.9838 40.835 24.0954 40.8384 24.2096C40.8375 24.9398 40.8367 25.6692 40.8249 26.3986C40.8392 26.6941 40.6537 26.9526 40.4472 27.144C40.1786 27.4 39.7774 27.4084 39.4316 27.3639C38.9842 27.2774 38.6711 26.8376 38.6653 26.3927C38.6305 25.7035 38.6331 25.0136 38.6357 24.3237C38.6372 23.9146 38.6388 23.5055 38.6325 23.0966Z" fill="#2E4251"/>
</svg>
