<svg width="70" height="50" viewBox="0 0 70 50" fill="none" xmlns="http://www.w3.org/2000/svg">
<rect width="70" height="50" rx="4" fill="#F0592C"/>
<path fill-rule="evenodd" clip-rule="evenodd" d="M8.11613 33.0379C8.62724 33.5259 9.28017 33.7597 9.93247 33.9933C10.5895 34.2286 11.2459 34.4637 11.756 34.958C12.2198 35.3495 12.2717 36.0637 12.0083 36.5832C11.667 37.1638 10.949 37.3846 10.3127 37.4106C9.26078 37.4143 8.34803 36.8243 7.51134 36.2548C7.48837 36.2739 7.46382 36.2938 7.43836 36.3145L7.43834 36.3145L7.43834 36.3145L7.43823 36.3146L7.43807 36.3147L7.43803 36.3148C7.16731 36.5343 6.79435 36.8369 7.13844 37.1657C8.50757 38.4217 10.8618 38.943 12.396 37.6944C13.4925 36.8132 13.4461 35.0304 12.3868 34.1399C11.8766 33.6075 11.2041 33.3744 10.531 33.1411C9.97044 32.9468 9.40953 32.7524 8.94169 32.3849C8.16807 31.8506 8.52612 30.5019 9.40734 30.3034C10.3034 30.0028 11.2254 30.333 12.0306 30.73C12.5704 31.0324 12.9174 30.077 12.4313 29.8303C11.3831 29.1346 9.93978 28.9194 8.77843 29.4518C7.45382 30.0195 7.00487 32.0547 8.11613 33.0379ZM13.9637 37.303L13.9647 37.3972C13.9673 37.671 13.97 37.948 14.0249 38.2176C14.229 38.4773 14.7354 38.5088 14.9043 38.1972C15.0449 37.6977 15.0161 37.1551 14.9873 36.6139V36.6139V36.6139C14.9433 35.7841 14.8994 34.9574 15.4664 34.2939C16.0971 33.4572 17.7186 33.524 18.0636 34.587C18.1777 35.214 18.1606 35.8513 18.1435 36.4888C18.128 37.0642 18.1125 37.6398 18.1935 38.2083C18.4681 38.5942 19.2417 38.4179 19.1545 37.8966C19.1638 36.8948 19.1712 35.893 19.1638 34.8912C19.173 33.6835 18.0043 32.6557 16.8188 32.7003C16.1454 32.6353 15.5406 32.9618 14.9803 33.2884C14.9797 32.9085 14.984 32.5282 14.9883 32.1478C14.9974 31.3282 15.0066 30.5079 14.9673 29.6893C14.9803 29.3795 14.7354 29.0956 14.4071 29.1773C14.0138 29.142 13.9674 29.6002 13.9692 29.8896C13.966 30.9604 13.9673 32.0311 13.9687 33.1018V33.1021C13.9704 34.5024 13.9721 35.9027 13.9637 37.303ZM45.5278 38.622C45.7377 38.6192 45.9476 38.6169 46.1577 38.6146C46.3655 38.6123 46.5735 38.6099 46.782 38.6072C46.8791 37.9845 46.9888 37.3648 47.0985 36.7452L47.0985 36.7448C47.1627 36.3825 47.2268 36.0202 47.2884 35.6574C47.4492 35.6548 47.6102 35.6542 47.7713 35.6537C48.2867 35.6519 48.8026 35.6502 49.3143 35.5795C50.7316 35.3625 51.9728 33.9785 51.739 32.5073C51.611 31.5946 50.7391 30.9564 49.8541 30.9156C49.32 30.8954 48.7859 30.8993 48.2518 30.9033C47.8027 30.9066 47.3535 30.9099 46.9044 30.8989C46.6402 32.3586 46.3814 33.8189 46.1226 35.2795L46.1217 35.2845C45.9246 36.3969 45.7274 37.5095 45.5278 38.622ZM47.4999 34.4683C47.5859 34.0136 47.6677 33.5584 47.7494 33.1035C47.8104 32.764 47.8714 32.4248 47.934 32.0862C48.1485 32.0944 48.3658 32.0878 48.5835 32.0812C49.055 32.0668 49.5285 32.0524 49.9803 32.1882C50.6982 32.5073 50.5962 33.5574 50.0842 34.0249C49.5778 34.5258 48.8805 34.4986 48.204 34.4723C47.9635 34.4629 47.7257 34.4537 47.4999 34.4683ZM20.7704 37.4403C20.032 36.572 19.8372 35.2419 20.4216 34.2401C20.8149 33.5351 21.5273 33.0509 22.2935 32.8283C23.7312 32.409 25.3582 33.3793 25.7831 34.7911C25.9872 35.5906 25.9 36.4941 25.4176 37.1805C24.4418 38.7203 21.9132 38.8558 20.7704 37.4403ZM24.7739 36.1862C25.31 34.8987 23.9186 33.4627 22.607 33.8319C21.3084 34.0007 20.6015 35.7224 21.505 36.7093C22.3399 37.8707 24.3379 37.5367 24.7739 36.1862ZM27.4045 32.7986C27.0594 32.6539 26.7033 33.0657 26.7682 33.4034C26.7548 34.5866 26.7572 35.7699 26.7596 36.9534V36.9535V36.9536V36.9537V36.9539V36.954V36.9544C26.7619 38.064 26.7641 39.1739 26.7533 40.2843C26.7583 40.3678 26.758 40.454 26.7577 40.541C26.7566 40.8094 26.7555 41.0851 26.911 41.312C27.2004 41.4289 27.7681 41.4734 27.7718 41.0356C27.8225 40.2901 27.8101 39.5419 27.7976 38.7941C27.7919 38.4459 27.7861 38.0978 27.7867 37.7501C29.1428 38.815 31.434 38.6146 32.3041 37.0303C33.1927 35.6315 32.4914 33.613 30.9702 33.0027C29.9554 32.4739 28.7236 32.7708 27.8646 33.4627C27.8291 33.3976 27.8041 33.3174 27.7785 33.2354C27.7145 33.0303 27.6471 32.8145 27.4045 32.7986ZM28.9814 33.9525C29.8626 33.5815 31.011 33.8727 31.4525 34.7632C32.0425 35.6611 31.4637 36.9208 30.5064 37.2751C29.5473 37.7334 28.3117 37.1546 27.9926 36.1565C27.6327 35.3049 28.1781 34.3106 28.9814 33.9525ZM38.4169 37.9467C37.3186 38.6294 35.7937 38.7222 34.6861 38.0042C33.1816 36.88 33.2391 34.2642 34.7715 33.1919C35.9829 32.3274 37.9772 32.7392 38.5765 34.151C38.7842 34.6612 38.9197 35.2586 38.7193 35.7929C38.5477 35.9132 38.3377 35.9186 38.1345 35.9239C38.0807 35.9253 38.0274 35.9266 37.9754 35.9301C37.5829 35.9321 37.1903 35.9302 36.7975 35.9283H36.7974H36.7973H36.7972H36.7971H36.7971C36.0575 35.9248 35.3176 35.9213 34.5785 35.9431C34.6099 36.0209 34.6398 36.1017 34.6701 36.1835C34.8277 36.6096 34.9958 37.0639 35.4393 37.2585C36.2556 37.6406 37.1943 37.4124 37.9921 37.0915C38.4651 36.8262 38.8826 37.7111 38.4169 37.9467ZM37.0738 33.9525C36.6155 33.7633 36.0886 33.7596 35.6156 33.8913C35.206 34.0054 34.9953 34.383 34.7993 34.7343C34.7627 34.7999 34.7266 34.8646 34.6898 34.9265C35.725 34.9432 36.7621 34.9413 37.7991 34.9265C37.7629 34.8584 37.7286 34.7871 37.6939 34.7152C37.5472 34.4111 37.3948 34.095 37.0738 33.9525ZM40.7433 37.8985C41.8249 38.7389 43.4259 38.6443 44.5706 37.9783C45.0789 37.7167 44.6281 36.7483 44.1142 37.1137C43.361 37.4254 42.4816 37.6072 41.7006 37.2937C41.2047 37.1002 41.0123 36.5975 40.8349 36.1339C40.8099 36.0686 40.7852 36.0041 40.76 35.9413C41.5202 35.921 42.2804 35.925 43.0405 35.9289C43.3935 35.9307 43.7464 35.9326 44.0993 35.932C44.158 35.9281 44.2185 35.9271 44.2798 35.926C44.513 35.922 44.7557 35.9178 44.9379 35.7576C45.1457 34.9821 44.8693 34.1306 44.3702 33.524C43.4649 32.5964 41.8546 32.4702 40.8342 33.2865C39.4818 34.3866 39.4206 36.7483 40.7433 37.8985ZM40.8862 34.9302C41.144 34.2957 41.6746 33.7095 42.4278 33.8022C43.1773 33.7039 43.7895 34.2289 43.9806 34.9283C42.9491 34.9413 41.9176 34.9395 40.8862 34.9302ZM55.0097 34.1974C54.2398 33.6909 53.2899 34.1139 52.6592 34.6445L51.919 33.9933C52.5367 33.4498 53.2788 33.0045 54.1211 32.9526C54.8427 32.9099 55.6924 32.9822 56.1989 33.5666C56.5773 33.9599 56.6386 34.5554 56.5514 35.073C56.4115 35.9583 56.2498 36.8393 56.0881 37.7209L56.088 37.7213L56.0878 37.7223L56.0877 37.7233C56.0329 38.0215 55.9782 38.3198 55.9243 38.6183C55.5236 38.6165 55.1229 38.6146 54.724 38.6146L54.865 37.969C54.0914 38.7463 52.802 39.1155 51.8299 38.4884C50.9135 37.8725 51.112 36.4607 51.8726 35.8003C52.8095 34.9209 54.225 34.9877 55.377 35.3272C55.364 35.2366 55.3594 35.1384 55.3547 35.0383C55.3395 34.7122 55.3234 34.3663 55.0097 34.1974ZM55.2026 36.3105C54.481 36.021 53.5886 35.8244 52.8948 36.2863C52.4236 36.585 52.2455 37.4032 52.8336 37.6814C53.8558 38.1267 54.9114 37.2752 55.2026 36.3105ZM57.6427 34.7828C57.4979 34.2317 57.3531 33.6807 57.2062 33.1307H58.5624C58.7045 33.6982 58.8399 34.2674 58.9753 34.8366C59.1334 35.5011 59.2914 36.1656 59.4603 36.828C59.9667 36.0571 60.4265 35.2586 60.8862 34.4601C61.1422 34.0154 61.3983 33.5706 61.6624 33.1307C62.1058 33.1307 62.5492 33.1325 62.9944 33.1343L63 33.1344C62.4108 34.0863 61.8255 35.0408 61.2403 35.9953C60.2242 37.6523 59.208 39.3095 58.1709 40.954C57.8901 40.9503 57.6093 40.9482 57.3285 40.9462C57.1882 40.9451 57.0479 40.9441 56.9076 40.9429C57.0983 40.64 57.2912 40.3384 57.4841 40.0367C57.856 39.4553 58.228 38.8737 58.5847 38.2825C58.2569 37.1203 57.9497 35.9512 57.6427 34.7828Z" fill="white"/>
</svg>
