<svg width="70" height="50" viewBox="0 0 70 50" fill="none" xmlns="http://www.w3.org/2000/svg">
<rect width="70" height="50" rx="4" fill="#3BB8EA"/>
<path fill-rule="evenodd" clip-rule="evenodd" d="M18.4236 10.7889C17.9187 11.4023 18.0339 12.2461 18 12.9814C18.0407 18.5253 17.9661 24.0691 18.0373 29.6096C18.2542 34.8993 23.1745 39.3452 28.4405 39.1589C33.6387 39.23 38.4303 34.8112 38.637 29.5893C38.7387 24.3741 38.6472 19.1555 38.6844 13.9404C41.9274 13.9404 45.1737 13.9404 48.4201 13.9404C48.4269 21.3107 48.4235 28.6811 48.4201 36.0515C45.9362 36.0786 43.4489 36.0108 40.9684 36.0786C39.7078 36.0243 38.6709 37.3866 39.0809 38.5862C39.3283 39.5384 40.3313 40.0704 41.2734 39.9925C44.3401 39.9789 47.4103 40.0264 50.4804 39.9688C51.6292 39.9755 52.4729 38.8471 52.3577 37.7458C52.3713 29.8299 52.3509 21.9139 52.3679 14.0014C52.3577 13.1373 52.4255 12.263 52.2662 11.409C52.029 10.4873 51.0599 9.93498 50.1415 10.0061C45.7159 10.0028 41.2869 9.99597 36.8613 10.0061C35.7804 9.93159 34.7129 10.8262 34.7671 11.9445C34.6926 17.7086 34.7875 23.4795 34.7231 29.247C34.6655 31.6292 33.0491 33.8319 30.86 34.7265C28.4778 35.7668 25.489 35.1806 23.6964 33.2897C22.5476 32.1308 21.9173 30.5076 21.9309 28.881C21.9342 23.4592 21.9071 18.0339 21.9546 12.6154C21.958 11.8902 21.9173 11.077 21.3378 10.5585C20.5483 9.73843 19.0776 9.8672 18.4236 10.7889Z" fill="white"/>
</svg>
