<svg width="70" height="50" viewBox="0 0 70 50" fill="none" xmlns="http://www.w3.org/2000/svg">
<rect width="70" height="50" rx="4" fill="#003D5E"/>
<path fill-rule="evenodd" clip-rule="evenodd" d="M18.3199 24.7818L17.3582 19.6514C17.1959 18.9603 16.4837 19.0004 16.4837 19.0004L14.9081 19.0548C13.2451 19.1105 12.1821 20.7839 12.1821 20.7839L9.61595 24.7818H18.3199ZM37.2594 22.434H33.1145C32.8315 22.434 32.5987 22.2232 32.5666 21.9513H32.5624V21.8866V20.4723V19.5394C32.5624 19.2373 32.8096 19.0003 33.1145 19.0003H42.4603C42.7649 19.0003 43.0121 19.2373 43.0121 19.5394V21.0153C43.0121 21.0153 43.0565 21.6499 42.4606 22.2408L40.5377 24.7817H35.4771C36.174 23.8626 36.8369 22.9901 37.1824 22.5354L37.2594 22.434ZM38.1281 27.9658H42.4603C42.7542 27.9658 42.9935 28.1937 43.0103 28.4808L43.0121 28.4806V30.7962C43.0121 31.0981 42.7649 31.2969 42.4603 31.2969H33.1145C32.8096 31.2969 32.5624 31.0981 32.5624 30.7962V29.0916C32.5624 29.0916 32.6272 28.5769 33.0492 27.9982C33.2276 27.7532 34.0396 26.6792 34.9164 25.5215H39.9778L38.1281 27.9658ZM15.1028 30.5068L14.262 25.5212H18.4595L19.447 30.7243C19.447 30.7243 19.6587 31.2968 19.0745 31.2968H16.1413C16.1413 31.2968 15.2692 31.3341 15.1028 30.5068ZM9.14741 25.5212L6.27562 30.0563C5.5292 31.214 6.53532 31.2968 6.53532 31.2968H9.71565C10.17 31.361 10.6894 30.5708 10.6894 30.5708L13.7958 25.5212H9.14741ZM27.6943 24.7818L28.1487 25.5215H31.3941V30.7317C31.3941 31.0336 31.1472 31.2969 30.842 31.2969H27.987C27.4785 31.3179 27.0929 30.9409 26.7859 30.4746L24.1574 25.9723V30.7319C24.1574 31.0341 23.91 31.2969 23.6053 31.2969H20.8472C20.5423 31.2969 20.2952 31.0336 20.2952 30.7317V25.5213H23.9301L23.4758 24.7818H20.2952V19.5392C20.2952 19.2373 20.5423 19.0004 20.8472 19.0004H23.6053C24.1266 19.0004 24.6601 19.33 24.9683 19.925C25.1384 20.2534 27.4352 24.2652 27.4352 24.2652V19.5716C27.4352 19.2694 27.6821 19.0004 27.987 19.0004H30.842C31.1472 19.0004 31.3941 19.2373 31.3941 19.5392V24.7818H27.6943Z" fill="white"/>
<path fill-rule="evenodd" clip-rule="evenodd" d="M55.764 20.2806C55.764 19.2303 54.929 18.379 53.8693 18.379C52.8096 18.379 51.9749 19.2303 51.9749 20.2806C51.9749 20.6819 52.1008 21.0537 52.3151 21.3605C52.4005 21.5117 52.4941 21.6443 52.5808 21.7672C52.711 21.9517 52.8258 22.1144 52.8752 22.286C53.0004 22.7194 52.8679 23.0102 52.655 23.0969C52.3796 23.2093 51.9472 23.0177 51.9472 23.0177C49.9979 22.2632 48.6169 20.3844 48.6169 18.1853C48.6169 15.3216 50.9795 13 53.8693 13C56.7591 13 59.1217 15.3216 59.1217 18.1853C59.1217 20.3844 57.7409 22.2632 55.7914 23.0177C55.7914 23.0177 55.359 23.2093 55.0839 23.0969C54.8707 23.0102 54.7385 22.7194 54.8637 22.286C54.9129 22.1145 55.0277 21.9518 55.1577 21.7675C55.2445 21.6445 55.3381 21.5119 55.4235 21.3605C55.6378 21.0537 55.764 20.6819 55.764 20.2806ZM50.3104 30.8852C51.2938 30.2811 51.5794 28.9207 51.5794 27.6835C51.5794 25.086 49.4543 22.9798 46.833 22.9798C45.8368 22.9798 44.9347 23.1334 44.3079 23.6852C43.8136 24.1202 43.9928 24.5813 44.2993 24.9265L49.1572 30.7278C49.1572 30.7278 49.6068 31.3176 50.3104 30.8852ZM57.4282 30.8852C56.4448 30.2811 56.1593 28.9207 56.1593 27.6835C56.1593 25.086 58.2844 22.9798 60.9059 22.9798C61.9018 22.9798 62.8039 23.1334 63.4309 23.6852C63.925 24.1202 63.7458 24.5813 63.4393 24.9265L58.5814 30.7278C58.5814 30.7278 58.132 31.3176 57.4282 30.8852Z" fill="#169CD4"/>
</svg>
