<svg width="70" height="50" viewBox="0 0 70 50" fill="none" xmlns="http://www.w3.org/2000/svg">
<rect width="70" height="50" rx="4" fill="white"/>
<path d="M25.2426 21.7646H25.2222V21.7666C25.2291 21.7659 25.2349 21.7654 25.2426 21.7646Z" fill="#168F8C"/>
<path d="M25.3711 21.5785V33.4835H28.1559V24.5613C28.1559 23.895 27.8022 21.8819 25.3711 21.5785Z" fill="#0CA49D"/>
<path d="M10.5683 31.4117C10.9225 31.4117 11.2119 31.3666 11.4369 31.2763C11.6615 31.1859 11.8374 31.0691 11.9645 30.9256C12.0912 30.7822 12.1784 30.6201 12.2261 30.4394C12.2736 30.259 12.2974 30.0756 12.2974 29.8897C12.2974 29.6772 12.2696 29.486 12.214 29.3158C12.1587 29.1458 12.0634 29.0025 11.9285 28.8855C11.7939 28.7687 11.6153 28.6783 11.3932 28.6146C11.1711 28.5509 10.8908 28.5189 10.5524 28.5189H8.68074V31.4117H10.5683ZM8.68074 23.849V26.7179H10.0767C10.3726 26.7179 10.6398 26.6967 10.8777 26.6542C11.1155 26.6116 11.3179 26.5373 11.4843 26.4309C11.6508 26.3248 11.7779 26.1787 11.8651 25.9927C11.9522 25.8068 11.996 25.573 11.996 25.2915C11.996 25.0152 11.9616 24.7854 11.8929 24.6021C11.8241 24.4188 11.7183 24.2714 11.5756 24.1598C11.4329 24.0482 11.2516 23.9686 11.0324 23.9207C10.813 23.8728 10.5524 23.849 10.2512 23.849H8.68074ZM10.2512 21.8328C11.0495 21.8328 11.729 21.9073 12.2895 22.0559C12.8498 22.2048 13.3073 22.4145 13.6617 22.6855C14.0157 22.9565 14.2734 23.2859 14.4349 23.6736C14.596 24.0615 14.6768 24.4945 14.6768 24.9727C14.6768 25.233 14.6397 25.4841 14.5659 25.7258C14.4918 25.9676 14.3753 26.1933 14.2167 26.4031C14.0581 26.613 13.8545 26.8055 13.606 26.981C13.3574 27.1562 13.0588 27.3077 12.7099 27.435C13.4711 27.621 14.0343 27.9211 14.3991 28.3357C14.7639 28.75 14.9466 29.2867 14.9466 29.9454C14.9466 30.4394 14.8513 30.8992 14.6609 31.3241C14.4706 31.7492 14.1915 32.1197 13.824 32.4358C13.4567 32.7519 13.0032 32.9989 12.4638 33.1769C11.9247 33.355 11.3086 33.4439 10.616 33.4439H6V21.8328H10.2512Z" fill="#0CA49D"/>
<path d="M23.0046 24.1917C22.9252 24.3193 22.8421 24.4149 22.7547 24.4786C22.6675 24.5424 22.5552 24.5743 22.4177 24.5743C22.2961 24.5743 22.1652 24.5357 22.0251 24.4587C21.885 24.3817 21.7263 24.2954 21.5493 24.1997C21.3721 24.1041 21.1698 24.0177 20.9425 23.9407C20.7153 23.8637 20.4561 23.8252 20.1651 23.8252C19.6628 23.8252 19.2887 23.9328 19.0429 24.148C18.7971 24.363 18.674 24.654 18.674 25.0206C18.674 25.2544 18.7482 25.4483 18.8961 25.6022C19.044 25.7564 19.2386 25.8892 19.4793 26.0008C19.7198 26.1123 19.9948 26.2147 20.3041 26.3076C20.6133 26.4006 20.9292 26.5042 21.2517 26.6184C21.5743 26.7327 21.8904 26.8668 22.1996 27.0208C22.5089 27.1749 22.784 27.3714 23.0245 27.6105C23.2651 27.8496 23.4594 28.1404 23.6074 28.4831C23.7553 28.8258 23.8295 29.2389 23.8295 29.7223C23.8295 30.2591 23.7371 30.7611 23.552 31.2284C23.3668 31.696 23.0984 32.1039 22.7469 32.4518C22.3951 32.7999 21.9617 33.0733 21.4463 33.2725C20.9306 33.4719 20.3449 33.5715 19.6894 33.5715C19.3298 33.5715 18.9635 33.5342 18.5909 33.46C18.2181 33.3855 17.8573 33.2806 17.5083 33.145C17.1592 33.0096 16.8314 32.8489 16.5248 32.663C16.2178 32.4771 15.9509 32.2699 15.7236 32.0413L16.5167 30.7822C16.5803 30.6918 16.6634 30.6162 16.7665 30.5552C16.8696 30.4941 16.982 30.4635 17.1039 30.4635C17.2623 30.4635 17.4221 30.5139 17.5836 30.6149C17.7449 30.7159 17.9273 30.8274 18.1309 30.9496C18.3344 31.0719 18.5683 31.1834 18.8328 31.2844C19.097 31.3853 19.4091 31.4357 19.7687 31.4357C20.2551 31.4357 20.6332 31.3281 20.9029 31.113C21.1725 30.8978 21.3073 30.5565 21.3073 30.089C21.3073 29.8179 21.2331 29.5976 21.0853 29.4275C20.9373 29.2576 20.7427 29.1167 20.5024 29.005C20.2615 28.8935 19.9879 28.7952 19.6813 28.7103C19.3747 28.6254 19.06 28.531 18.7376 28.4273C18.4149 28.3237 18.1003 28.1963 17.7938 28.0449C17.4869 27.8934 17.2133 27.6942 16.973 27.4472C16.7322 27.2001 16.5378 26.892 16.3899 26.5227C16.2419 26.1535 16.1678 25.698 16.1678 25.156C16.1678 24.7205 16.255 24.2954 16.4296 23.8808C16.6042 23.4665 16.8604 23.0973 17.1988 22.7733C17.5373 22.4493 17.9525 22.1902 18.4441 21.9962C18.9358 21.8023 19.4989 21.7053 20.1335 21.7053C20.4877 21.7053 20.8327 21.7333 21.1686 21.7891C21.5042 21.8448 21.8229 21.9272 22.1243 22.0361C22.4258 22.145 22.7072 22.2752 22.9689 22.4266C23.2307 22.5781 23.4646 22.7493 23.6708 22.9406L23.0046 24.1917Z" fill="#0CA49D"/>
<path d="M28.4612 17.2876C28.4551 17.1903 28.444 17.0945 28.4295 17C29.0526 17.6462 29.9424 18.025 30.9061 17.9639C31.367 17.9345 31.7982 17.807 32.1818 17.6037C31.8838 18.1262 31.7292 18.7391 31.77 19.3851C31.8203 20.1847 32.1608 20.896 32.6812 21.4237C32.415 21.3698 32.1377 21.3491 31.8539 21.3673C30.7263 21.4389 29.7747 22.095 29.2708 23.0229C29.0717 21.6512 28.0129 20.5849 26.689 20.3502C27.8076 19.8009 28.5446 18.6136 28.4612 17.2876Z" fill="#F9AD3C"/>
<path d="M33.2395 28.7331C33.3671 28.7331 33.4771 28.7184 33.5694 28.689C33.6617 28.6596 33.737 28.6187 33.7955 28.5661C33.8555 28.512 33.8993 28.4486 33.927 28.3759C33.9547 28.3017 33.9685 28.2206 33.9685 28.1325C33.9685 27.9609 33.9077 27.8256 33.7862 27.7267C33.6648 27.6261 33.4825 27.5759 33.2395 27.5759H32.5243V28.7331H33.2395ZM32.5243 26.1219V27.2559H33.1149C33.2411 27.2559 33.3502 27.242 33.4425 27.2141C33.5363 27.1863 33.6132 27.1477 33.6732 27.0982C33.7347 27.0487 33.7801 26.9892 33.8093 26.9196C33.8386 26.8485 33.8532 26.7712 33.8532 26.6878C33.8532 26.4914 33.7947 26.3484 33.6778 26.2587C33.5609 26.1675 33.3794 26.1219 33.1333 26.1219H32.5243ZM33.1333 25.7671C33.3364 25.7671 33.511 25.7871 33.6571 25.8274C33.8047 25.8675 33.9255 25.9248 34.0193 25.999C34.1146 26.0731 34.1846 26.1644 34.2292 26.2726C34.2738 26.3793 34.2961 26.4999 34.2961 26.6344C34.2961 26.7163 34.283 26.7951 34.2569 26.8709C34.2322 26.9451 34.1946 27.0147 34.1438 27.0797C34.0931 27.1446 34.0285 27.2033 33.95 27.2559C33.8731 27.3069 33.7824 27.3487 33.6778 27.3811C33.9209 27.4275 34.1031 27.5148 34.2246 27.6431C34.3476 27.77 34.4091 27.9369 34.4091 28.144C34.4091 28.2847 34.383 28.4131 34.3307 28.529C34.28 28.6449 34.2046 28.7447 34.1046 28.8282C34.0062 28.9116 33.8847 28.9765 33.7401 29.0229C33.5956 29.0678 33.431 29.0902 33.2464 29.0902H32.0791V25.7671H33.1333Z" fill="#0CA49D"/>
<path d="M36.7723 27.8565L36.2532 26.5045C36.2379 26.4643 36.2217 26.4179 36.2048 26.3654C36.1879 26.3113 36.1717 26.2541 36.1564 26.1938C36.1241 26.319 36.091 26.4234 36.0572 26.5068L35.5381 27.8565H36.7723ZM37.7043 29.0902H37.3583C37.3183 29.0902 37.286 29.0802 37.2614 29.0601C37.2368 29.0399 37.2184 29.0145 37.2061 28.9835L36.8969 28.1812H35.4135L35.1044 28.9835C35.0952 29.0114 35.0775 29.0361 35.0513 29.0578C35.0252 29.0794 34.9929 29.0902 34.9544 29.0902H34.6084L35.9303 25.7671H36.3825L37.7043 29.0902Z" fill="#0CA49D"/>
<path d="M40.8177 25.7671V29.0902H40.594C40.5586 29.0902 40.5286 29.084 40.504 29.0717C40.481 29.0593 40.4578 29.0384 40.4348 29.009L38.5224 26.5045C38.5254 26.5431 38.5277 26.5811 38.5293 26.6181C38.5308 26.6553 38.5316 26.6901 38.5316 26.7225V29.0902H38.1394V25.7671H38.3701C38.39 25.7671 38.4069 25.7686 38.4208 25.7717C38.4347 25.7732 38.447 25.7772 38.4577 25.7833C38.4685 25.7879 38.4792 25.7957 38.49 25.8065C38.5008 25.8158 38.5123 25.8282 38.5247 25.8436L40.4371 28.3458C40.434 28.3056 40.4309 28.2669 40.4279 28.2299C40.4263 28.1912 40.4256 28.1549 40.4256 28.1209V25.7671H40.8177Z" fill="#0CA49D"/>
<path d="M42.1084 27.2234H42.2768C42.3352 27.2234 42.3821 27.2164 42.4175 27.2025C42.4529 27.187 42.4851 27.1616 42.5144 27.126L43.6148 25.8738C43.6456 25.8335 43.6778 25.8057 43.7117 25.7902C43.7455 25.7748 43.7871 25.7671 43.8363 25.7671H44.2146L42.955 27.1979C42.9243 27.235 42.8942 27.2659 42.8651 27.2907C42.8374 27.3138 42.8074 27.3332 42.7751 27.3487C42.8166 27.3626 42.8543 27.3834 42.8881 27.4113C42.922 27.4375 42.955 27.4724 42.9873 27.5156L44.3023 29.0902H43.9147C43.8855 29.0902 43.8602 29.0887 43.8386 29.0855C43.8186 29.0809 43.8009 29.0748 43.7856 29.067C43.7702 29.0578 43.7563 29.0477 43.744 29.0368C43.7332 29.0245 43.7225 29.0106 43.7117 28.9952L42.572 27.6756C42.5413 27.637 42.5083 27.6099 42.4728 27.5944C42.4375 27.5774 42.3836 27.569 42.3113 27.569H42.1084V29.0902H41.6631V25.7671H42.1084V27.2234Z" fill="#0CA49D"/>
<path d="M47.5893 26.2867C47.5755 26.3099 47.5601 26.3276 47.5432 26.34C47.5278 26.3509 47.5086 26.3563 47.4855 26.3563C47.4594 26.3563 47.4286 26.3431 47.3932 26.3168C47.3578 26.2906 47.3133 26.2619 47.2594 26.231C47.2072 26.1986 47.1433 26.1692 47.0679 26.1429C46.9941 26.1166 46.9041 26.1035 46.7981 26.1035C46.6981 26.1035 46.6097 26.1174 46.5328 26.1452C46.4574 26.1715 46.3935 26.2078 46.3413 26.2542C46.2905 26.3005 46.2521 26.3555 46.2259 26.4189C46.1998 26.4807 46.1867 26.5479 46.1867 26.6206C46.1867 26.7134 46.209 26.7907 46.2536 26.8526C46.2997 26.9128 46.3597 26.9646 46.4336 27.0078C46.5089 27.0512 46.5935 27.0891 46.6873 27.1215C46.7827 27.1525 46.8796 27.1849 46.978 27.2189C47.0779 27.2529 47.1748 27.2916 47.2686 27.3348C47.364 27.3766 47.4486 27.4299 47.5224 27.4949C47.5978 27.5598 47.6578 27.6395 47.7024 27.7338C47.7485 27.8281 47.7715 27.944 47.7715 28.0816C47.7715 28.2269 47.747 28.3637 47.6977 28.492C47.6486 28.6188 47.5763 28.7293 47.4809 28.8237C47.3871 28.918 47.2709 28.9922 47.1326 29.0463C46.9956 29.1004 46.8395 29.1275 46.6642 29.1275C46.4489 29.1275 46.2536 29.0888 46.0782 29.0115C45.9029 28.9327 45.753 28.8267 45.6284 28.6938L45.7576 28.4804C45.7699 28.4634 45.7845 28.4495 45.8014 28.4387C45.8198 28.4264 45.8399 28.4201 45.8614 28.4201C45.8814 28.4201 45.9037 28.4287 45.9283 28.4457C45.9545 28.4611 45.9837 28.4812 46.016 28.506C46.0483 28.5307 46.0852 28.5577 46.1267 28.5871C46.1683 28.6165 46.2151 28.6436 46.2675 28.6683C46.3212 28.693 46.382 28.7139 46.4497 28.7309C46.5174 28.7463 46.5935 28.7541 46.6781 28.7541C46.7842 28.7541 46.8788 28.7394 46.9619 28.71C47.0449 28.6807 47.1149 28.6397 47.1717 28.5871C47.2302 28.5331 47.2748 28.4689 47.3056 28.3947C47.3363 28.3204 47.3517 28.2377 47.3517 28.1465C47.3517 28.0461 47.3286 27.9641 47.2825 27.9007C47.2379 27.8357 47.1787 27.7817 47.1049 27.7384C47.0311 27.6951 46.9465 27.6588 46.8511 27.6294C46.7557 27.5985 46.6588 27.5675 46.5604 27.5366C46.462 27.5041 46.3651 27.4671 46.2698 27.4253C46.1744 27.3835 46.0898 27.3295 46.016 27.263C45.9422 27.1965 45.8822 27.1138 45.8361 27.0149C45.7914 26.9143 45.7692 26.7907 45.7692 26.6438C45.7692 26.5263 45.7914 26.4127 45.8361 26.3029C45.8822 26.1932 45.9483 26.0957 46.0344 26.0107C46.1221 25.9257 46.229 25.8576 46.3551 25.8066C46.4827 25.7557 46.6289 25.7301 46.7934 25.7301C46.978 25.7301 47.1456 25.7595 47.2964 25.8183C47.4487 25.8769 47.5824 25.962 47.6977 26.0733L47.5893 26.2867Z" fill="#0CA49D"/>
<path d="M49.5771 27.766V29.0902H49.1296V27.766L47.9185 25.7671H48.3106C48.3506 25.7671 48.3821 25.7772 48.4052 25.7972C48.4283 25.8158 48.4483 25.8405 48.4652 25.8715L49.2219 27.1631C49.2495 27.2172 49.2749 27.2683 49.298 27.3162C49.3211 27.3626 49.341 27.4097 49.3579 27.4577C49.3749 27.4097 49.3941 27.3626 49.4156 27.3162C49.4372 27.2683 49.4611 27.2172 49.4872 27.1631L50.2416 25.8715C50.2554 25.8452 50.2746 25.8211 50.2992 25.7995C50.3239 25.7779 50.3553 25.7671 50.3938 25.7671H50.7883L49.5771 27.766Z" fill="#0CA49D"/>
<path d="M52.6464 27.8565L52.1273 26.5045C52.1119 26.4643 52.0958 26.4179 52.0789 26.3654C52.062 26.3113 52.0458 26.2541 52.0304 26.1938C51.9981 26.319 51.9651 26.4234 51.9312 26.5068L51.4121 27.8565H52.6464ZM53.5784 29.0902H53.2323C53.1923 29.0902 53.1601 29.0802 53.1354 29.0601C53.1108 29.0399 53.0924 29.0145 53.0801 28.9835L52.7709 28.1812H51.2876L50.9784 28.9835C50.9692 29.0114 50.9515 29.0361 50.9253 29.0578C50.8992 29.0794 50.867 29.0902 50.8284 29.0902H50.4824L51.8043 25.7671H52.2565L53.5784 29.0902Z" fill="#0CA49D"/>
<path d="M54.9291 27.3765C55.0582 27.3765 55.172 27.361 55.2705 27.3301C55.3704 27.2976 55.4535 27.2528 55.5196 27.1956C55.5872 27.1368 55.638 27.0673 55.6718 26.9869C55.7057 26.9065 55.7226 26.8176 55.7226 26.7202C55.7226 26.5223 55.658 26.3731 55.5289 26.2726C55.3996 26.1721 55.2059 26.1219 54.9475 26.1219H54.4584V27.3765H54.9291ZM56.4563 29.0902H56.0594C55.9779 29.0902 55.9179 29.0585 55.8795 28.9952L55.0213 27.8078C54.9951 27.7707 54.9667 27.7444 54.936 27.729C54.9067 27.712 54.8606 27.7034 54.7975 27.7034H54.4584V29.0902H54.0132V25.7671H54.9475C55.1566 25.7671 55.3373 25.7887 55.4896 25.832C55.6419 25.8738 55.7672 25.9348 55.8657 26.0152C55.9656 26.0956 56.0395 26.193 56.0871 26.3074C56.1348 26.4203 56.1586 26.5471 56.1586 26.6878C56.1586 26.8052 56.1402 26.915 56.1032 27.0171C56.0663 27.119 56.0125 27.211 55.9418 27.293C55.8726 27.3733 55.7872 27.4422 55.6857 27.4993C55.5857 27.5566 55.4719 27.5999 55.3443 27.6293C55.4012 27.6617 55.4504 27.7089 55.4919 27.7707L56.4563 29.0902Z" fill="#0CA49D"/>
<path d="M57.3535 29.0902H56.906V25.7671H57.3535V29.0902Z" fill="#0CA49D"/>
<path d="M59.9547 27.8565L59.4356 26.5045C59.4203 26.4643 59.4042 26.4179 59.3872 26.3654C59.3703 26.3113 59.3541 26.2541 59.3388 26.1938C59.3065 26.319 59.2734 26.4234 59.2396 26.5068L58.7205 27.8565H59.9547ZM60.8867 29.0902H60.5407C60.5007 29.0902 60.4684 29.0802 60.4438 29.0601C60.4192 29.0399 60.4007 29.0145 60.3884 28.9835L60.0793 28.1812H58.5959L58.2868 28.9835C58.2775 29.0114 58.2598 29.0361 58.2337 29.0578C58.2076 29.0794 58.1752 29.0902 58.1368 29.0902H57.7908L59.1126 25.7671H59.5649L60.8867 29.0902Z" fill="#0CA49D"/>
<path d="M64.0001 25.7671V29.0902H63.5526V27.5782H61.7693V29.0902H61.3218V25.7671H61.7693V27.2489H63.5526V25.7671H64.0001Z" fill="#0CA49D"/>
<path d="M32.5266 33.4709H32.0791V30.1477H32.5266V33.4709Z" fill="#0CA49D"/>
<path d="M36.0504 30.1477V33.4709H35.8267C35.7913 33.4709 35.7613 33.4647 35.7367 33.4524C35.7136 33.44 35.6906 33.4191 35.6675 33.3898L33.755 30.8852C33.7581 30.9238 33.7604 30.9617 33.7619 30.9988C33.7635 31.036 33.7642 31.0707 33.7642 31.1032V33.4709H33.3721V30.1477H33.6027C33.6228 30.1477 33.6397 30.1493 33.6535 30.1524C33.6673 30.1539 33.6796 30.1578 33.6904 30.164C33.7012 30.1686 33.712 30.1764 33.7227 30.1872C33.7335 30.1964 33.745 30.2088 33.7573 30.2243L35.6698 32.7264C35.6668 32.6863 35.6637 32.6476 35.6606 32.6105C35.6591 32.5719 35.6583 32.5355 35.6583 32.5015V30.1477H36.0504Z" fill="#0CA49D"/>
<path d="M39.761 31.8105C39.761 32.0594 39.7218 32.2858 39.6434 32.4899C39.5649 32.694 39.4542 32.8687 39.3111 33.0141C39.1681 33.1594 38.9958 33.2722 38.7944 33.3526C38.5944 33.4314 38.373 33.4709 38.13 33.4709H36.8958V30.1477H38.13C38.373 30.1477 38.5944 30.188 38.7944 30.2684C38.9958 30.3472 39.1681 30.46 39.3111 30.6069C39.4542 30.7522 39.5649 30.927 39.6434 31.131C39.7218 31.3351 39.761 31.5616 39.761 31.8105ZM39.3019 31.8105C39.3019 31.6064 39.2742 31.4239 39.2189 31.2632C39.1635 31.1024 39.085 30.9663 38.9835 30.855C38.8821 30.7437 38.759 30.6587 38.6145 30.6C38.4699 30.5412 38.3084 30.5118 38.13 30.5118H37.3433V33.1068H38.13C38.3084 33.1068 38.4699 33.0775 38.6145 33.0187C38.759 32.9599 38.8821 32.8757 38.9835 32.7659C39.085 32.6546 39.1635 32.5185 39.2189 32.3578C39.2742 32.197 39.3019 32.0145 39.3019 31.8105Z" fill="#0CA49D"/>
<path d="M43.4603 31.8106C43.4603 32.0594 43.421 32.2882 43.3425 32.4969C43.2641 32.7041 43.1534 32.8827 43.0103 33.0326C42.8674 33.1826 42.6951 33.2993 42.4936 33.3828C42.2937 33.4648 42.0722 33.5058 41.8292 33.5058C41.5862 33.5058 41.3647 33.4648 41.1648 33.3828C40.9648 33.2993 40.7933 33.1826 40.6504 33.0326C40.5073 32.8827 40.3966 32.7041 40.3182 32.4969C40.2397 32.2882 40.2004 32.0594 40.2004 31.8106C40.2004 31.5617 40.2397 31.3336 40.3182 31.1264C40.3966 30.9177 40.5073 30.7384 40.6504 30.5884C40.7933 30.4369 40.9648 30.3194 41.1648 30.2359C41.3647 30.1525 41.5862 30.1107 41.8292 30.1107C42.0722 30.1107 42.2937 30.1525 42.4936 30.2359C42.6951 30.3194 42.8674 30.4369 43.0103 30.5884C43.1534 30.7384 43.2641 30.9177 43.3425 31.1264C43.421 31.3336 43.4603 31.5617 43.4603 31.8106ZM43.0011 31.8106C43.0011 31.6065 42.9735 31.4233 42.9181 31.2609C42.8628 31.0986 42.7843 30.9617 42.6827 30.8504C42.5812 30.7376 42.4582 30.6511 42.3136 30.5908C42.169 30.5304 42.0076 30.5003 41.8292 30.5003C41.6523 30.5003 41.4916 30.5304 41.3471 30.5908C41.2025 30.6511 41.0787 30.7376 40.9756 30.8504C40.8741 30.9617 40.7956 31.0986 40.7403 31.2609C40.6849 31.4233 40.6573 31.6065 40.6573 31.8106C40.6573 32.0146 40.6849 32.1978 40.7403 32.3602C40.7956 32.5209 40.8741 32.6578 40.9756 32.7706C41.0787 32.8819 41.2025 32.9677 41.3471 33.028C41.4916 33.0868 41.6523 33.1162 41.8292 33.1162C42.0076 33.1162 42.169 33.0868 42.3136 33.028C42.4582 32.9677 42.5812 32.8819 42.6827 32.7706C42.7843 32.6578 42.8628 32.5209 42.9181 32.3602C42.9735 32.1978 43.0011 32.0146 43.0011 31.8106Z" fill="#0CA49D"/>
<path d="M46.7789 30.1477V33.4709H46.5552C46.5198 33.4709 46.4898 33.4647 46.4653 33.4524C46.4421 33.44 46.4191 33.4191 46.396 33.3898L44.4835 30.8852C44.4866 30.9238 44.4889 30.9617 44.4904 30.9988C44.492 31.036 44.4927 31.0707 44.4927 31.1032V33.4709H44.1006V30.1477H44.3313C44.3513 30.1477 44.3682 30.1493 44.382 30.1524C44.3958 30.1539 44.4081 30.1578 44.419 30.164C44.4297 30.1686 44.4405 30.1764 44.4513 30.1872C44.462 30.1964 44.4735 30.2088 44.4858 30.2243L46.3983 32.7264C46.3953 32.6863 46.3922 32.6476 46.3891 32.6105C46.3876 32.5719 46.3868 32.5355 46.3868 32.5015V30.1477H46.7789Z" fill="#0CA49D"/>
<path d="M49.6634 33.1044L49.6611 33.4709H47.624V30.1477H49.6611V30.5141H48.0716V31.618H49.3589V31.9705H48.0716V33.1044H49.6634Z" fill="#0CA49D"/>
<path d="M51.978 30.6673C51.9642 30.6904 51.9488 30.7082 51.9318 30.7206C51.9165 30.7314 51.8973 30.7368 51.8742 30.7368C51.848 30.7368 51.8173 30.7237 51.7819 30.6974C51.7465 30.6711 51.702 30.6425 51.6481 30.6116C51.5959 30.5791 51.532 30.5497 51.4566 30.5235C51.3828 30.4972 51.2928 30.4841 51.1867 30.4841C51.0868 30.4841 50.9983 30.498 50.9215 30.5258C50.8461 30.552 50.7822 30.5884 50.7299 30.6348C50.6792 30.6812 50.6407 30.736 50.6146 30.7994C50.5885 30.8613 50.5754 30.9285 50.5754 31.0012C50.5754 31.094 50.5977 31.1713 50.6422 31.2331C50.6884 31.2934 50.7484 31.3452 50.8222 31.3885C50.8975 31.4317 50.9821 31.4697 51.0759 31.5021C51.1713 31.533 51.2683 31.5655 51.3667 31.5995C51.4666 31.6335 51.5635 31.6722 51.6573 31.7154C51.7527 31.7572 51.8372 31.8106 51.9111 31.8755C51.9864 31.9404 52.0465 32.02 52.091 32.1143C52.1372 32.2086 52.1602 32.3245 52.1602 32.4622C52.1602 32.6075 52.1357 32.7443 52.0864 32.8726C52.0372 32.9994 51.9649 33.1099 51.8696 33.2042C51.7758 33.2985 51.6596 33.3728 51.5213 33.4269C51.3843 33.481 51.2282 33.5081 51.0529 33.5081C50.8376 33.5081 50.6422 33.4694 50.4669 33.3921C50.2916 33.3132 50.1416 33.2074 50.0171 33.0744L50.1462 32.861C50.1586 32.844 50.1732 32.8301 50.1901 32.8193C50.2085 32.8069 50.2285 32.8008 50.2501 32.8008C50.2701 32.8008 50.2924 32.8092 50.317 32.8262C50.3432 32.8417 50.3723 32.8618 50.4046 32.8865C50.437 32.9113 50.4738 32.9383 50.5154 32.9677C50.5569 32.9971 50.6038 33.0242 50.6561 33.0488C50.7099 33.0736 50.7707 33.0945 50.8384 33.1114C50.906 33.1269 50.9821 33.1347 51.0667 33.1347C51.1729 33.1347 51.2675 33.12 51.3505 33.0906C51.4336 33.0612 51.5035 33.0203 51.5604 32.9677C51.6189 32.9136 51.6635 32.8495 51.6943 32.7752C51.725 32.701 51.7404 32.6183 51.7404 32.5271C51.7404 32.4266 51.7173 32.3447 51.6711 32.2813C51.6266 32.2163 51.5673 32.1623 51.4935 32.1189C51.4197 32.0756 51.3351 32.0393 51.2397 32.0099C51.1444 31.979 51.0475 31.9481 50.9491 31.9172C50.8507 31.8847 50.7538 31.8476 50.6584 31.8059C50.563 31.7642 50.4784 31.71 50.4046 31.6436C50.3309 31.5771 50.2709 31.4943 50.2247 31.3954C50.1801 31.295 50.1578 31.1713 50.1578 31.0243C50.1578 30.9069 50.1801 30.7933 50.2247 30.6835C50.2709 30.5738 50.337 30.4763 50.4231 30.3913C50.5108 30.3063 50.6177 30.2382 50.7438 30.1872C50.8714 30.1362 51.0176 30.1107 51.1821 30.1107C51.3667 30.1107 51.5343 30.1401 51.6851 30.1988C51.8372 30.2576 51.9711 30.3426 52.0864 30.4539L51.978 30.6673Z" fill="#0CA49D"/>
<path d="M53.2396 33.4709H52.792V30.1477H53.2396V33.4709Z" fill="#0CA49D"/>
<path d="M55.8409 32.2372L55.3218 30.8852C55.3065 30.8449 55.2903 30.7986 55.2734 30.746C55.2565 30.692 55.2403 30.6347 55.2249 30.5744C55.1927 30.6996 55.1596 30.804 55.1258 30.8875L54.6067 32.2372H55.8409ZM56.7729 33.4709H56.4269C56.3869 33.4709 56.3546 33.4608 56.33 33.4407C56.3054 33.4207 56.287 33.3951 56.2747 33.3642L55.9655 32.5618H54.4821L54.173 33.3642C54.1638 33.3921 54.1461 33.4167 54.1199 33.4384C54.0938 33.4601 54.0615 33.4709 54.023 33.4709H53.677L54.9989 30.1477H55.4511L56.7729 33.4709Z" fill="#0CA49D"/>
</svg>
