<svg width="70" height="50" viewBox="0 0 70 50" fill="none" xmlns="http://www.w3.org/2000/svg">
<rect width="70" height="50" rx="4" fill="#0060AF"/>
<path fill-rule="evenodd" clip-rule="evenodd" d="M14.3973 29.7912C14.3973 29.1202 14.405 27.3265 14.3875 27.1055C14.4028 24.4365 12.3442 22.5537 11.0436 22.7005C10.1437 22.7741 9.38933 23.1201 8.98453 24.1152C8.60904 25.0426 8.94476 26.2761 10.1926 26.5656C11.5268 26.8765 12.3062 27.1351 12.87 27.5C13.561 27.9467 14.125 28.8002 14.14 29.7923" fill="white"/>
<path fill-rule="evenodd" clip-rule="evenodd" d="M13.8397 29.7923C13.844 28.9321 13.3347 28.1715 12.6691 27.7628C12.0786 27.4015 11.2859 27.1643 10.0071 26.8584C9.61185 26.7631 9.19836 26.5514 9.07035 26.2815C8.73173 26.6031 8.67023 27.3262 8.7298 27.749C8.79904 28.2379 9.40527 29.0438 10.3181 29.0754C10.8755 29.0965 11.5803 28.9623 11.9183 28.8946C12.5013 28.7759 13.4238 29.1202 13.5706 29.7912" fill="white"/>
<path fill-rule="evenodd" clip-rule="evenodd" d="M14.8687 18.5409C13.3209 18.5409 11.9841 19.5031 11.9888 21.168C11.9936 22.5681 13.188 23.3176 13.6144 23.8529C14.2585 24.6597 14.6071 25.6146 14.6431 27.0757C14.6715 28.2385 14.67 29.3867 14.6763 29.7937H15.0178C15.012 29.3679 14.9966 28.1489 15.0141 27.0397C15.0373 25.5781 15.3985 24.6597 16.0429 23.8529C16.4729 23.3176 17.6662 22.5681 17.6688 21.168C17.6748 19.5031 16.3385 18.5409 14.7922 18.5409" fill="white"/>
<path fill-rule="evenodd" clip-rule="evenodd" d="M15.2616 29.7912C15.2616 29.1202 15.2536 27.3265 15.2708 27.1055C15.2557 24.4365 17.313 22.5537 18.6147 22.7005C19.5146 22.7741 20.268 23.1201 20.6741 24.1152C21.0491 25.0426 20.7116 26.2761 19.4653 26.5656C18.1302 26.8765 17.352 27.1351 16.7866 27.5C16.0965 27.9467 15.5719 28.8002 15.5558 29.7923" fill="white"/>
<path fill-rule="evenodd" clip-rule="evenodd" d="M15.8189 29.7923C15.8141 28.9321 16.3232 28.1715 16.9869 27.7628C17.5799 27.4015 18.3734 27.1643 19.6511 26.8584C20.0472 26.7631 20.4602 26.5514 20.5859 26.2815C20.9262 26.6031 20.9877 27.3262 20.9279 27.749C20.8574 28.2379 20.2526 29.0438 19.3414 29.0754C18.7843 29.0965 18.0757 28.9623 17.7392 28.8946C17.1584 28.7759 16.2333 29.1202 16.0858 29.7912" fill="white"/>
<path fill-rule="evenodd" clip-rule="evenodd" d="M16.2963 32.5692L16.0984 31.2069L16.5764 31.1386C16.6927 31.1238 16.8344 31.1429 16.8911 31.2115C16.9537 31.2833 16.9729 31.3426 16.9849 31.4367C17.0031 31.5533 16.9674 31.6878 16.8283 31.7549V31.759C16.9835 31.759 17.0774 31.8642 17.1047 32.0418C17.1086 32.0794 17.1205 32.1699 17.1086 32.2455C17.077 32.4253 16.9634 32.4833 16.7711 32.5087L16.2963 32.5692ZM16.604 32.3255C16.6607 32.3177 16.7181 32.3148 16.7631 32.2878C16.832 32.2455 16.8257 32.155 16.816 32.0876C16.7922 31.9399 16.7513 31.8836 16.585 31.9068L16.4803 31.922L16.5467 32.3329L16.604 32.3255ZM16.504 31.6958C16.5673 31.6863 16.6529 31.679 16.6887 31.6224C16.7075 31.5846 16.7313 31.5545 16.7156 31.4704C16.6961 31.3709 16.6611 31.3089 16.5267 31.3329L16.4016 31.3519L16.451 31.701L16.504 31.6958Z" fill="white"/>
<path fill-rule="evenodd" clip-rule="evenodd" d="M18.3673 31.7499C18.371 31.7753 18.3753 31.8035 18.377 31.8288C18.4156 32.0772 18.3673 32.283 18.071 32.3396C17.6329 32.419 17.549 32.1626 17.472 31.8035L17.431 31.6091C17.3706 31.2656 17.3447 31.0054 17.7717 30.9251C18.0124 30.8838 18.1715 30.9741 18.2377 31.2C18.248 31.2337 18.2609 31.2669 18.2657 31.3009L18.0037 31.3519C17.9734 31.2669 17.9333 31.1153 17.8155 31.128C17.6039 31.1522 17.6738 31.4002 17.6955 31.504L17.7743 31.877C17.7979 31.9897 17.845 32.1699 18.028 32.1351C18.1766 32.1071 18.1118 31.8888 18.0986 31.7992" fill="white"/>
<path fill-rule="evenodd" clip-rule="evenodd" d="M18.7875 32.1621L18.697 30.7524L19.0488 30.6511L19.7868 31.8772L19.5097 31.9554L19.3348 31.6438L19.0271 31.7309L19.0669 32.0852L18.7875 32.1621ZM19.0013 31.5032L19.2237 31.4425L18.9284 30.8721L19.0013 31.5032Z" fill="white"/>
<path fill-rule="evenodd" clip-rule="evenodd" d="M10.0941 31.0962C10.2042 30.764 10.3027 30.5191 10.7231 30.6278C10.9481 30.6872 11.0875 30.7805 11.0809 31.0268C11.0798 31.0816 11.0606 31.1377 11.0481 31.1917L10.7864 31.1237C10.8207 30.9875 10.8425 30.8796 10.6647 30.828C10.4592 30.7749 10.4092 31.0098 10.3808 31.1112L10.2744 31.4807C10.2406 31.5904 10.2 31.7718 10.3808 31.8187C10.5302 31.8565 10.6207 31.7184 10.6748 31.5165L10.4919 31.4707L10.5552 31.257L10.9856 31.3873L10.7813 32.0997L10.5832 32.049L10.6278 31.8984H10.6222C10.5309 32.0217 10.4198 32.0346 10.3224 32.0168C9.89197 31.9072 9.9369 31.642 10.0396 31.2878" fill="white"/>
<path fill-rule="evenodd" clip-rule="evenodd" d="M11.6958 31.6979L11.5662 32.2774L11.2744 32.218L11.5853 30.8649L12.0827 30.9707C12.3738 31.03 12.4618 31.152 12.4205 31.4037C12.397 31.5481 12.3215 31.7035 12.1371 31.6909L12.1352 31.6886C12.2911 31.7399 12.3043 31.8141 12.2771 31.9421C12.2653 31.9967 12.1843 32.3273 12.2402 32.3808L12.2421 32.4214L11.9402 32.3471C11.9277 32.2555 11.9705 32.0907 11.9874 31.9993C12.0043 31.9186 12.0315 31.8047 11.9446 31.7621C11.8766 31.7278 11.8512 31.7294 11.7742 31.7129L11.6958 31.6979ZM11.7455 31.4883L11.942 31.5382C12.0613 31.5546 12.1276 31.4963 12.1512 31.3603C12.1724 31.2357 12.1449 31.1871 12.0378 31.163L11.8272 31.1226L11.7455 31.4883Z" fill="white"/>
<path fill-rule="evenodd" clip-rule="evenodd" d="M13.5674 31.167L13.856 31.1986L13.7317 32.15C13.6713 32.4516 13.5476 32.5834 13.1957 32.5422C12.8376 32.4994 12.7525 32.3458 12.7741 32.0418L12.8994 31.0913L13.1902 31.1226L13.0654 32.0518C13.052 32.1527 13.0274 32.3023 13.2177 32.3205C13.3866 32.3326 13.4249 32.227 13.4441 32.0958" fill="white"/>
<path fill-rule="evenodd" clip-rule="evenodd" d="M14.1738 32.5942L14.2608 31.2339L14.815 31.2565C15.0771 31.2688 15.1456 31.4704 15.1375 31.6628C15.1298 31.7799 15.0911 31.9105 14.9829 31.9814C14.8942 32.0417 14.7801 32.056 14.6744 32.0511L14.4938 32.0417L14.4577 32.6118L14.1738 32.5942ZM14.5018 31.8342L14.6487 31.8419C14.768 31.846 14.847 31.8016 14.8573 31.6364C14.8633 31.478 14.7995 31.4509 14.645 31.4446L14.5287 31.4408L14.5018 31.8342Z" fill="white"/>
<path fill-rule="evenodd" clip-rule="evenodd" d="M53.274 19.8555L51.0706 23.6256C50.239 22.9889 49.2236 22.5204 47.9279 22.5204C44.8617 22.5204 43.616 24.6749 43.616 26.1926C43.616 27.3193 44.3986 28.9814 47.1268 28.9814C48.2722 28.9814 49.9 28.2305 50.3686 27.8886L48.1896 32.2625C47.1508 32.4579 46.8095 32.579 45.9303 32.6046C41.047 32.742 39.0739 29.9141 39.0752 27.0247C39.0786 23.2047 42.6812 18.5591 48.6538 18.5591C49.0196 18.5591 49.4672 18.6786 49.85 18.8108L50.2369 18.3444" fill="white"/>
<path fill-rule="evenodd" clip-rule="evenodd" d="M62.3655 18.4628L62.9894 32.1646H58.346L58.3434 29.8148H55.177L54.1351 32.1646H49.0991L54.3641 22.3804L53.1769 22.3731L55.4324 18.4628H62.3655ZM58.3132 22.6545L56.5231 26.6399H58.3673L58.3132 22.6545Z" fill="white"/>
<path fill-rule="evenodd" clip-rule="evenodd" d="M36.1437 18.4628C38.4432 18.4749 39.7426 19.6516 39.7426 21.3511C39.7426 22.9182 38.3722 24.305 36.8678 25.0222C38.4166 25.5591 38.5506 26.8766 38.5506 27.8085C38.5506 30.0606 36.1537 32.1646 33.0378 32.1646H26.2424L28.8931 22.5167L27.8043 22.5108L30.03 18.4628C30.03 18.4628 34.2738 18.4507 36.1437 18.4628ZM33.8877 24.0182C34.3633 24.0182 35.2032 23.9046 35.4132 23.0369C35.6432 22.0947 34.8551 22.0694 34.477 22.0694L33.1261 22.0639L32.6549 24.0182H33.8877ZM31.9777 26.4394L31.3557 28.6913H32.9465C33.5722 28.6913 34.4252 28.3984 34.6342 27.6656C34.8406 26.9308 34.2443 26.4394 33.6209 26.4394H31.9777Z" fill="white"/>
<path fill-rule="evenodd" clip-rule="evenodd" d="M14.93 33.8482C12.5771 33.8482 10.1592 33.302 7.74446 32.2216L7.6852 32.1941L7.65686 32.1372C6.57322 29.9809 6 27.6226 6 25.3152C6 23.011 6.54971 20.7535 7.634 18.6002L7.66395 18.5429L7.72433 18.5144C9.95812 17.5169 12.361 17.0117 14.8688 17.0117C17.2047 17.0117 19.6996 17.5741 22.0824 18.6411L22.1434 18.6668L22.1717 18.7251C23.276 20.9211 23.8584 23.279 23.8584 25.5483C23.8584 27.8085 23.2992 30.0682 22.1935 32.2628L22.1645 32.3204L22.103 32.3471C19.9032 33.3287 17.4227 33.8482 14.93 33.8482ZM7.96795 31.9259C10.3136 32.9662 12.6534 33.4914 14.93 33.4914C17.344 33.4914 19.7446 32.994 21.8817 32.0511C22.9433 29.9244 23.4814 27.7357 23.4814 25.5483C23.4814 23.3518 22.9198 21.0673 21.8574 18.9358C19.5451 17.911 17.1301 17.3677 14.8688 17.3677C12.441 17.3677 10.1138 17.8531 7.94766 18.8108C6.90781 20.8979 6.37855 23.085 6.37855 25.3152C6.37855 27.5493 6.92842 29.8349 7.96795 31.9259Z" fill="white"/>
</svg>
