<svg width="70" height="50" viewBox="0 0 70 50" fill="none" xmlns="http://www.w3.org/2000/svg">
<rect width="70" height="50" rx="4" fill="#004F91"/>
<path fill-rule="evenodd" clip-rule="evenodd" d="M51 25.4991C51 16.9388 44.0594 10 35.5009 10C26.9395 10 20 16.9388 20 25.4991C20 34.0583 26.9395 40.9993 35.5009 40.9993C44.0594 40.9993 51 34.0583 51 25.4991ZM31.6351 38.1643C32.8647 38.1643 33.7821 38.0439 33.8482 36.3717H36.8745C36.9406 38.0439 37.8698 38.0982 39.0686 38.0982V38.9462H31.6351V38.1643ZM39.4865 24.1479C41.1069 24.661 44.91 26.3952 44.91 29.9831C44.91 33.5217 41.5744 35.6294 37.6153 35.6294H26.09L26.1018 34.7113C28.1926 34.7113 28.8119 34.4358 28.8119 32.3009V18.7972C28.8119 16.4206 27.8739 16.2718 26.0978 16.2718V15.4176C26.4305 15.4099 30.6174 15.4154 33.8482 15.4176C33.7821 13.7436 32.8647 13.622 31.6351 13.622V12.8416H39.0686V13.6892C37.8698 13.6892 36.9406 13.7436 36.8745 15.4176H37.6153C39.2871 15.4176 43.3924 15.9931 43.4001 19.373C43.406 21.7449 41.804 23.2536 39.4865 24.1479ZM41.7221 30.5509C41.7221 27.7438 39.7946 25.8752 37.45 24.7429C35.9207 25.0753 34.1255 25.2699 32.4463 25.2842L32.8683 24.2371C33.2496 24.2247 33.5382 24.2012 33.8482 24.1828V17.1614H36.8745V23.7288C39.4105 22.9804 40.4723 21.4753 40.4723 19.7278C40.4723 17.4882 38.774 16.4187 36.8668 16.4187L31.844 16.4206V32.363C31.844 34.0506 32.8588 34.4042 33.8482 34.4219V26.1297C34.9827 26.09 36.2017 25.9288 36.8745 25.7723V34.4219C39.293 34.4197 41.7221 32.9462 41.7221 30.5509Z" fill="white"/>
</svg>
