<svg width="70" height="50" viewBox="0 0 70 50" fill="none" xmlns="http://www.w3.org/2000/svg">
<rect width="70" height="50" rx="4" fill="#F5F7F9"/>
<mask id="mask0_16134_6450" style="mask-type:luminance" maskUnits="userSpaceOnUse" x="0" y="0" width="70" height="50">
<rect width="70" height="50" rx="4" fill="white"/>
</mask>
<g mask="url(#mask0_16134_6450)">
<path fill-rule="evenodd" clip-rule="evenodd" d="M33 50.3649C33 50.3649 21.5 49.3649 13 45.8649C4.21067 42.2458 0 38.2954 0 31.8649C0 16.8649 0 50.3649 0 50.3649H33Z" fill="#165781"/>
</g>
<path fill-rule="evenodd" clip-rule="evenodd" d="M26.5069 13.5073L26.148 15.2758C29.6873 15.2623 40.8223 11.1469 41.3396 8.69114C41.3396 8.69153 41.3735 8.53016 41.407 8.36878C41.4403 8.20727 41.473 8.0459 41.4706 8.0459C36.647 11.3107 29.3592 13.5003 26.5069 13.5073ZM25.8317 16.5592L25.4975 18.1876C28.9093 18.1805 40.1714 14.0582 40.6886 11.6031L40.8314 10.9002C35.8433 14.3745 28.8573 16.4745 25.8317 16.5592ZM25.1046 19.5298L24.7581 21.2367L24.7601 21.2971C28.2101 21.2193 39.4211 17.1656 39.9373 14.7137L40.1076 13.8737C36.2414 16.5768 28.2182 19.5466 25.1046 19.5298Z" fill="url(#paint0_linear_16134_6450)"/>
<path fill-rule="evenodd" clip-rule="evenodd" d="M8.05932 24.9829H9.35206V29.5248H9.38172C9.84229 28.7183 10.6742 28.1953 11.8333 28.1953C13.6166 28.1953 14.8787 29.6889 14.8634 31.8866C14.8634 34.4701 13.2448 35.7554 11.6396 35.7554C10.5995 35.7554 9.76729 35.3517 9.23303 34.3958H9.18808L9.12981 35.5911H8C8.03005 35.0976 8.05932 34.3649 8.05932 33.7233V24.9829ZM9.35206 32.6923C9.35206 32.8565 9.38172 33.02 9.41177 33.1703C9.66407 34.0812 10.4215 34.7096 11.3723 34.7096C12.7391 34.7096 13.5563 33.5885 13.5563 31.9299C13.5563 30.4807 12.8131 29.2403 11.417 29.2403C10.5251 29.2403 9.69334 29.8532 9.42562 30.8548C9.39635 31.0043 9.35206 31.1826 9.35206 31.3923V32.6923Z" fill="#165781"/>
<path fill-rule="evenodd" clip-rule="evenodd" d="M21.3859 33.8574C21.3859 34.4855 21.4156 35.0977 21.5046 35.591H20.3161L20.2118 34.6792H20.1676C19.7658 35.2479 18.9929 35.7552 17.969 35.7552C16.5125 35.7552 15.7708 34.725 15.7708 33.6792C15.7708 31.9299 17.315 30.9734 20.0928 30.9895V30.8392C20.0928 30.2419 19.9299 29.1661 18.4594 29.1661C17.7898 29.1661 17.0925 29.3745 16.5868 29.7043L16.2892 28.8375C16.8837 28.4495 17.7467 28.1953 18.6518 28.1953C20.851 28.1953 21.3859 29.7043 21.3859 31.153V33.8574ZM20.1231 31.8998C18.6961 31.8696 17.0773 32.1246 17.0773 33.5282C17.0773 34.3803 17.6417 34.7846 18.3097 34.7846C19.2463 34.7846 19.8401 34.1858 20.0481 33.5738C20.0928 33.4383 20.1231 33.2895 20.1231 33.1555V31.8998Z" fill="#165781"/>
<path fill-rule="evenodd" clip-rule="evenodd" d="M23.3917 30.3156C23.3917 29.5688 23.3759 28.9576 23.332 28.3587H24.4898L24.5648 29.5541H24.5945C24.9514 28.8677 25.7833 28.1945 26.9721 28.1945C27.9661 28.1945 29.5118 28.7925 29.5118 31.2723V35.5903H28.204V31.4218C28.204 30.2559 27.7742 29.2845 26.5405 29.2845C25.6789 29.2845 25.0097 29.898 24.787 30.6302C24.7277 30.7937 24.6977 31.0183 24.6977 31.2436V35.5903H23.3917" fill="#165781"/>
<path fill-rule="evenodd" clip-rule="evenodd" d="M32.7211 31.676H32.7508C32.929 31.4219 33.181 31.1082 33.39 30.8541L35.4993 28.3589H37.0739L34.2958 31.3328L37.4595 35.5903H35.8708L33.39 32.1246L32.7211 32.8714V35.5903H31.428V24.9829H32.7211" fill="#165781"/>
<path fill-rule="evenodd" clip-rule="evenodd" d="M48.2311 28.6151C48.1824 28.557 48.1341 28.498 48.0824 28.4451C47.9983 28.3566 47.9041 28.2741 47.8038 28.196C47.2631 27.7513 46.6091 27.4897 45.9044 27.4897C45.1439 27.4897 44.4436 27.7968 43.8797 28.308C43.8632 28.3184 43.849 28.3301 43.8325 28.3389C43.8124 28.3499 43.7838 28.364 43.7505 28.355C43.6578 28.3309 43.5589 28.2314 43.5583 28.0893V25.1324C43.5583 24.9467 43.4067 24.7965 43.221 24.7965H41.7902C41.6035 24.7965 41.4531 24.9467 41.4531 25.1324V25.2346C41.4531 25.2392 41.4519 25.2421 41.4519 25.2457V25.5891L41.4545 35.1219C41.4545 35.3111 41.6069 35.4644 41.7942 35.4644H43.0896C43.172 35.4644 43.247 35.4335 43.3057 35.3834C43.3082 35.3818 43.3108 35.3818 43.312 35.3805C43.3141 35.3789 43.3144 35.3767 43.3159 35.3751C43.3437 35.3509 43.3654 35.3215 43.3836 35.2898H43.3843C43.4067 35.2479 43.4216 35.2036 43.4266 35.1544C43.4524 34.9437 43.595 34.8274 43.6834 34.8575C43.7139 34.8671 43.7427 34.8818 43.7724 34.9032C43.8027 34.9223 43.8325 34.9421 43.8618 34.9613C43.9496 35.0261 44.3355 35.2921 44.6348 35.426C44.7855 35.4931 45.266 35.6573 45.8235 35.6573C46.3815 35.6573 46.7779 35.533 46.8714 35.5077C46.9653 35.4828 47.0576 35.4512 47.1463 35.4098C47.5831 35.2214 47.9343 34.9613 48.2011 34.6329C48.465 34.3103 48.684 33.9281 48.8608 33.4891C49.1245 32.9117 49.2744 32.2488 49.2744 31.5434C49.2744 30.3908 48.8733 29.3531 48.2311 28.6151ZM45.2772 34.135C44.2287 34.135 43.3785 32.9987 43.3785 31.5986C43.3785 30.1978 44.2287 29.0622 45.2772 29.0622C46.3247 29.0622 47.1741 30.1978 47.1741 31.5986C47.1741 32.9987 46.3247 34.135 45.2772 34.135Z" fill="#165781"/>
<path fill-rule="evenodd" clip-rule="evenodd" d="M51.9064 24.8827C51.7014 24.8856 51.5208 24.9321 51.3656 25.0233C51.2136 25.1169 51.0954 25.2421 51.0115 25.3952C50.9244 25.5515 50.8811 25.7231 50.8811 25.9138C50.8811 26.0979 50.9244 26.2644 51.0054 26.4176C51.0858 26.57 51.2012 26.6922 51.3469 26.7857C51.4962 26.8764 51.6702 26.9234 51.8694 26.9264C52.0931 26.9234 52.2827 26.8764 52.4379 26.7857C52.5933 26.6922 52.711 26.57 52.792 26.4176C52.8729 26.2644 52.9128 26.0979 52.9128 25.9138C52.9128 25.7231 52.87 25.5515 52.7887 25.3952C52.7082 25.2421 52.5903 25.1169 52.4405 25.0233C52.2918 24.9321 52.1116 24.8856 51.9064 24.8827Z" fill="#165781"/>
<path fill-rule="evenodd" clip-rule="evenodd" d="M52.9988 28.3382C52.9973 28.3191 52.9956 28.2999 52.994 28.2816V28.0288C52.994 27.839 52.8414 27.6849 52.6528 27.6849H51.2114C51.0221 27.6849 50.8691 27.839 50.8691 28.0288V35.8415C50.8618 36.0403 50.6212 36.3129 50.3429 36.3805C50.2148 36.4204 50.0867 36.4388 49.9571 36.4328C49.8281 36.4285 49.7397 36.4807 49.6894 36.5904C49.6699 36.639 49.6557 36.7046 49.6443 36.7848C49.6357 36.8644 49.6466 37.7018 49.6528 37.771C49.658 37.8411 49.6699 37.8999 49.6894 37.95C49.7491 38.0398 49.8535 38.0994 50.0014 38.1296C50.0509 38.1503 51.0086 38.1525 51.6521 37.9956C51.9052 37.9345 52.1081 37.8115 52.2775 37.6826C52.4446 37.5522 52.5938 37.3881 52.7235 37.1878C52.8725 36.949 52.9538 36.6478 52.969 36.2841C52.9736 36.1744 52.994 35.8879 52.994 35.854V28.7558C52.9956 28.7176 52.9966 28.6793 52.9988 28.6379C53.0035 28.5385 53.0035 28.4385 52.9988 28.3382Z" fill="#165781"/>
<mask id="mask1_16134_6450" style="mask-type:luminance" maskUnits="userSpaceOnUse" x="54" y="24" width="9" height="12">
<path fill-rule="evenodd" clip-rule="evenodd" d="M62.5091 35.6573V24.7965L54.687 24.7965V35.6573H62.5091Z" fill="white"/>
</mask>
<g mask="url(#mask1_16134_6450)">
<path fill-rule="evenodd" clip-rule="evenodd" d="M61.4657 28.6151C61.4178 28.557 61.3696 28.498 61.317 28.4451C61.2329 28.3566 61.1384 28.2741 61.0389 28.196C60.4982 27.7513 59.8442 27.4897 59.1389 27.4897C58.379 27.4897 57.6792 27.7968 57.1154 28.308C57.0982 28.3184 57.0839 28.3301 57.0668 28.3389C57.0471 28.3499 57.0195 28.364 56.986 28.355C56.8933 28.3309 56.794 28.2314 56.7924 28.0893V25.1324C56.7924 24.9467 56.6417 24.7965 56.4561 24.7965H55.0257C54.8388 24.7965 54.6881 24.9467 54.6881 25.1324V25.2346C54.6881 25.2392 54.687 25.2421 54.687 25.2457V25.5891L54.6888 35.1219C54.6888 35.3111 54.8415 35.4644 55.0296 35.4644H56.3236C56.407 35.4644 56.4824 35.4335 56.5413 35.3834C56.5432 35.3818 56.5447 35.3818 56.5465 35.3805C56.5486 35.3789 56.5494 35.3767 56.5514 35.3751C56.5776 35.3509 56.6008 35.3215 56.6189 35.2898L56.6197 35.2883C56.6417 35.2479 56.6567 35.2036 56.6614 35.1544C56.6875 34.9437 56.8292 34.8274 56.9181 34.8575C56.9486 34.8671 56.9785 34.8818 57.0079 34.9032C57.037 34.9223 57.0668 34.9421 57.0971 34.9613C57.1843 35.0261 57.5709 35.2921 57.8696 35.426C58.0205 35.4931 58.5002 35.6573 59.0589 35.6573C59.6161 35.6573 60.0119 35.533 60.1063 35.5077C60.2004 35.4828 60.2923 35.4512 60.3813 35.4098C60.8166 35.2214 61.1691 34.9613 61.4365 34.6329C61.7004 34.3103 61.9191 33.9281 62.0959 33.4891C62.359 32.9117 62.5092 32.2488 62.5092 31.5434C62.5092 30.3908 62.1075 29.3531 61.4657 28.6151ZM58.5122 34.135C57.4636 34.135 56.6138 32.9987 56.6138 31.5986C56.6138 30.1978 57.4636 29.0622 58.5122 29.0622C59.5601 29.0622 60.4095 30.1978 60.4095 31.5986C60.4095 32.9987 59.5601 34.135 58.5122 34.135Z" fill="#165781"/>
</g>
<defs>
<linearGradient id="paint0_linear_16134_6450" x1="24.1179" y1="16.3281" x2="44.29" y2="15.2011" gradientUnits="userSpaceOnUse">
<stop stop-color="#2BA7DF"/>
<stop offset="0.40625" stop-color="#175882"/>
<stop offset="1" stop-color="#EBC71B"/>
</linearGradient>
</defs>
</svg>
