<svg width="70" height="50" viewBox="0 0 70 50" fill="none" xmlns="http://www.w3.org/2000/svg">
<rect width="70" height="50" rx="4" fill="white"/>
<path fill-rule="evenodd" clip-rule="evenodd" d="M11.352 29.6905L13.7277 32.6323H7.84608L11.352 29.6905ZM10.605 28.7818L6.00415 32.6413L6.00226 23.1492L10.605 28.7818ZM21.6751 19.2238C21.6751 19.2238 20.6651 18.7456 19.4917 18.8155C18.1502 18.8945 17.028 19.4089 16.3828 20.0877C15.9769 20.5142 15.5281 21.0345 15.3026 21.5995C14.9757 22.4168 14.9059 23.4968 14.9059 23.4968C14.9059 23.4968 14.4368 23.0986 13.849 21.9383C13.1655 20.5887 12.9785 19.7712 12.8859 18.8385C12.8035 18.02 12.9329 17.2107 12.9329 17.2107H21.6751V19.2238ZM21.6751 21.9147V27.8998C21.6751 27.8998 21.1316 28.1086 20.6883 28.1086C20.245 28.1086 19.49 28.0429 18.6132 27.5608C17.7428 27.0827 17.261 26.5042 16.8875 25.98C16.5087 25.4468 16.1959 24.7077 16.1029 24.1751C16.0282 23.749 15.9476 22.6862 16.3828 21.8224C16.619 21.3537 17.2529 20.5502 18.4732 20.5045C19.4679 20.4663 20.0195 20.7278 20.5251 21.0053C21.4872 21.5343 21.6751 21.9147 21.6751 21.9147ZM12.1559 27.4796L13.7327 26.1652C13.2302 25.5232 13.0974 25.2813 12.5356 24.4526C11.9604 23.6043 11.4786 22.6711 11.0666 21.5761C10.6207 20.3899 10.513 19.724 10.5622 18.8385C10.6239 17.7119 10.8801 17.2107 10.8801 17.2107H6L6.00226 19.8408C6.00226 19.8408 9.73781 24.5222 12.1559 27.4796ZM16.6615 32.628H21.6751V28.9724C21.6751 28.9724 20.4315 29.5428 19.6232 29.5889C19.142 29.6169 18.6749 29.6355 17.9212 29.435C17.0835 29.2124 16.6075 28.9954 15.831 28.355C15.2074 27.8413 14.4943 27.0827 14.4943 27.0827L12.9082 28.4051C13.6441 29.3052 14.1876 29.9605 14.354 30.1368C15.0693 30.8928 15.3724 31.1706 15.8542 31.44C16.3359 31.71 17.945 31.6954 17.945 31.6954L16.6615 32.628Z" fill="#E94E0F"/>
<path fill-rule="evenodd" clip-rule="evenodd" d="M59.593 29.3762C59.593 30.4355 59.7358 32.1765 58.5496 32.6004V32.6709H63.0548V32.6004C61.8693 32.1533 62.0116 30.4355 62.0116 29.3762V20.5049C62.0116 19.4462 61.8693 17.7048 63.0548 17.2577V17.1871H58.5496V17.2577C59.759 17.7048 59.593 19.4226 59.593 20.5049V29.3762ZM43.0731 20.5049L51.2066 30.7414C52.2496 32.0823 52.9851 32.8593 54.6686 33.4237V20.2226C54.6686 18.905 54.6686 17.9635 55.9019 17.2577V17.1871H51.7282V17.2577C52.9851 17.9635 52.961 18.905 52.961 20.2226V29.1411L44.2827 18.2694L43.9503 17.7988C43.7847 17.6106 43.69 17.493 43.5951 17.2107V17.1871H40.1325V17.2577C41.3657 17.9635 41.3657 18.905 41.3657 20.2226V29.6121C41.3657 30.9295 41.3657 31.8706 40.1093 32.6004V32.6709H44.3065V32.6004C43.0496 31.8706 43.0731 30.9295 43.0731 29.6121V20.5049ZM29.8154 23.4231V18.811L31.4038 18.6459C32.8267 18.5047 34.344 19.352 34.344 20.9759C34.344 22.9055 32.1387 23.4231 30.5979 23.4231H29.8154ZM29.8154 30.7883V24.9758L31.4749 24.8819C33.5617 24.7641 35.7905 25.7528 35.7905 28.0352C35.7905 30.2707 33.8229 31.1648 31.878 30.9767L29.8154 30.7883ZM27.3964 29.3528C27.3964 30.4355 27.5388 32.1533 26.3528 32.6004V32.6709H30.2655C32.0438 32.6709 33.9176 32.7417 35.5771 31.9416C37.1659 31.1884 38.4229 29.6351 38.4229 27.8231C38.4229 25.5174 36.6915 24.1053 34.5573 23.6579C35.9092 23.0698 36.9284 22.1757 36.9284 20.599C36.9284 18.5047 35.1031 17.1871 31.9733 17.1871H26.3528V17.2577C27.5628 17.7048 27.3964 19.4226 27.3964 20.4813V29.3528Z" fill="#005B6A"/>
</svg>
