<svg width="70" height="50" viewBox="0 0 70 50" fill="none" xmlns="http://www.w3.org/2000/svg">
<rect width="70" height="50" rx="4" fill="#FEF200"/>
<path fill-rule="evenodd" clip-rule="evenodd" d="M31.2011 19.4001H33.1166C33.78 19.4001 34.2722 19.5367 34.2722 20.2727C34.2722 21.0279 33.5254 21.2484 32.9328 21.2484H30.8262L31.2011 19.4001ZM25.6571 28.6896H32.6078C35.2594 28.6896 37.5993 27.5231 37.5993 24.5775C37.5993 23.45 36.8885 22.3692 35.7653 22.1289V22.0962H35.7824C37.2435 21.7044 38.0062 20.6917 38.0062 19.1528C38.0062 17.3864 37.0221 16.4631 34.3911 16.4631H28.1694L25.6571 28.6896ZM30.3672 23.5264H32.4193C33.2016 23.5264 33.8669 23.6633 33.8669 24.574C33.8669 25.5651 32.951 25.8031 32.2855 25.8031H29.8909L30.3672 23.5264Z" fill="#0069AC"/>
<path fill-rule="evenodd" clip-rule="evenodd" d="M40.7824 28.6892H44.514L46.383 19.5944H49.7438L50.3915 16.4633H39.9316L39.2878 19.5944H42.6488L40.7824 28.6892Z" fill="#0069AC"/>
<path fill-rule="evenodd" clip-rule="evenodd" d="M49.1992 28.6892H52.7468L54.1549 21.8402H54.1878L56.4114 28.6892H60.0784L62.6269 16.4633H59.076L57.7186 23.141H57.6866L55.4119 16.4633H51.7089L49.1992 28.6892Z" fill="#0069AC"/>
<mask id="mask0_16134_6525" style="mask-type:luminance" maskUnits="userSpaceOnUse" x="24" y="30" width="39" height="8">
<path fill-rule="evenodd" clip-rule="evenodd" d="M43.4954 37.1223H62.7163V30.9081H24.2745V37.1223H43.4954Z" fill="white"/>
</mask>
<g mask="url(#mask0_16134_6525)">
<path fill-rule="evenodd" clip-rule="evenodd" d="M24.2745 37.1223C24.3866 36.706 24.3404 36.7084 24.6161 35.586C24.8143 34.4793 26.0225 32.785 28.1521 32.6109C28.8778 32.5232 56.7583 31.329 62.7164 30.9081L62.5373 31.947C56.9246 32.679 31.5282 36.152 24.2745 37.1223Z" fill="#E31C24"/>
</g>
<path fill-rule="evenodd" clip-rule="evenodd" d="M6.35913 18.6849L13.9941 14.2389L21.6303 18.6849V27.5774L19.7208 28.6908V19.7986L13.9941 16.4622L8.26936 19.7986V28.6908L6.35913 27.5774V18.6849Z" fill="#0069AC"/>
<path fill-rule="evenodd" clip-rule="evenodd" d="M12.0851 28.6909V30.9114L13.9937 29.7996L15.9032 30.9114V28.6909L13.9937 27.5774L12.0851 28.6909Z" fill="#A68561"/>
<path fill-rule="evenodd" clip-rule="evenodd" d="M19.7195 28.6909V26.4647L13.9929 23.1302L8.27002 26.4647V28.6909L13.9929 25.3529L19.7195 28.6909Z" fill="#A68561"/>
<path fill-rule="evenodd" clip-rule="evenodd" d="M13.9929 18.6849L17.811 20.9092V29.8001L15.9031 30.9102V22.0189L13.9929 20.9092L12.0855 22.0189V30.9102L10.1783 29.8001V20.9092L13.9929 18.6849Z" fill="#0069AC"/>
</svg>
