<svg width="70" height="50" viewBox="0 0 70 50" fill="none" xmlns="http://www.w3.org/2000/svg">
<rect width="70" height="50" rx="4" fill="white"/>
<path fill-rule="evenodd" clip-rule="evenodd" d="M33.0354 8.66679H36.9885V8.00012H33.0354V8.66679Z" fill="#00AB4E"/>
<path fill-rule="evenodd" clip-rule="evenodd" d="M32.3033 19.0378V20.2821H26.5049V20.6274H43.8309V20.2821H37.7179V19.0378H32.3033Z" fill="#00AB4E"/>
<path fill-rule="evenodd" clip-rule="evenodd" d="M27.4977 22.3207V22.6487H42.7519V22.3207H37.718V21.1284H32.3032V22.3207H27.4977Z" fill="#00AB4E"/>
<path fill-rule="evenodd" clip-rule="evenodd" d="M32.3034 23.1498V24.3247H29.4128V24.6535H41.044V24.3247H37.7179V23.1498H32.3034Z" fill="#00AB4E"/>
<path fill-rule="evenodd" clip-rule="evenodd" d="M33.0354 26.7364H36.9879V26.0697H33.0354V26.7364Z" fill="#00AB4E"/>
<path fill-rule="evenodd" clip-rule="evenodd" d="M29.413 9.93496H32.4131C33.2635 9.57816 34.1818 9.36536 35.142 9.36536C36.1246 9.36536 37.0661 9.56776 37.9343 9.93496H41.0442V10.2803H29.413V9.93496Z" fill="#00AB4E"/>
<path fill-rule="evenodd" clip-rule="evenodd" d="M27.4977 11.9384H29.5801C29.9664 11.5067 30.3928 11.1176 30.8538 10.7832L39.438 10.7843C39.9166 11.1323 40.3574 11.4931 40.7552 11.9384H42.7519V12.2832H27.4977V11.9384Z" fill="#00AB4E"/>
<path fill-rule="evenodd" clip-rule="evenodd" d="M26.5049 14.1327H28.1492C28.369 13.6543 28.6297 13.2047 28.9214 12.7815L41.3885 12.7946C41.6748 13.213 41.9273 13.6607 42.143 14.1327H43.8309V14.4612H26.5049V14.1327Z" fill="#00AB4E"/>
<path fill-rule="evenodd" clip-rule="evenodd" d="M26 16.1014H27.5009C27.5861 15.691 27.6979 15.2916 27.834 14.9049L42.473 14.9081C42.6055 15.2889 42.7072 15.6953 42.7897 16.1014H44.2832V16.4478H26V16.1014Z" fill="#00AB4E"/>
<path fill-rule="evenodd" clip-rule="evenodd" d="M26 18.141H27.2949V18.0936C27.2949 17.7058 27.3172 17.3242 27.3605 16.9498L42.9298 16.9541C42.9717 17.3274 42.9894 17.7072 42.9894 18.0936V18.141H44.2832V18.5034H26V18.141Z" fill="#00AB4E"/>
<path fill-rule="evenodd" clip-rule="evenodd" d="M32.9946 34.1331C33.0272 34.138 33.0591 34.1422 33.0899 34.1447C33.1213 34.1484 33.1595 34.1494 33.2041 34.1494C33.3686 34.1494 33.4991 34.0897 33.5947 33.9707C33.6904 33.8516 33.7384 33.6871 33.7384 33.4758C33.7384 33.2916 33.6896 33.1409 33.5921 33.0212C33.4959 32.902 33.371 32.8425 33.2192 32.8425C33.1995 32.8425 33.1702 32.8448 33.1328 32.8486C33.0953 32.8532 33.05 32.8604 32.9946 32.8707V34.1331ZM32.9946 36.7879C33.0598 36.7987 33.1175 36.807 33.1702 36.8126C33.2228 36.8176 33.2667 36.821 33.3016 36.821C33.5276 36.821 33.7137 36.7338 33.8583 36.563C34.0031 36.391 34.0757 36.1689 34.0757 35.8987C34.0757 35.6031 34.0049 35.3671 33.8621 35.1893C33.7198 35.0116 33.5305 34.9234 33.2937 34.9234C33.2613 34.9234 33.1912 34.9313 33.0847 34.9471C33.045 34.9528 33.0148 34.9572 32.9946 34.9598V36.7879ZM31.2256 37.6359C31.3353 37.5252 31.412 37.4041 31.4566 37.2721C31.5012 37.1412 31.5236 36.93 31.5236 36.6381V32.9848C31.5236 32.6922 31.5012 32.4822 31.4566 32.3527C31.412 32.2244 31.3353 32.1047 31.2256 31.9938H33.1552C33.7882 31.9938 34.273 32.1094 34.6112 32.3383C34.9487 32.569 35.1165 32.8975 35.1165 33.3255C35.1165 33.5717 35.0507 33.7908 34.9177 33.9818C34.7846 34.1725 34.5906 34.329 34.3361 34.4509C34.6863 34.5621 34.9505 34.7416 35.1312 34.9917C35.3108 35.2405 35.4004 35.5506 35.4004 35.9215C35.4004 36.1409 35.3658 36.3499 35.2961 36.549C35.2262 36.7485 35.124 36.9279 34.9891 37.088C34.8174 37.2856 34.6181 37.4259 34.3942 37.5094C34.1689 37.5943 33.8583 37.6359 33.462 37.6359H31.2256Z" fill="#0089CF"/>
<path fill-rule="evenodd" clip-rule="evenodd" d="M37.522 35.6999C37.522 36.0644 37.587 36.3426 37.7193 36.5341C37.8521 36.7254 38.0441 36.8211 38.2954 36.8211C38.5653 36.8211 38.7675 36.7273 38.9039 36.5383C39.0392 36.35 39.1069 36.0698 39.1069 35.6999V32.9851C39.1069 32.7441 39.0867 32.5497 39.0445 32.4004C39.0046 32.2517 38.9232 32.1159 38.801 31.9939H40.8609C40.7546 32.1022 40.6781 32.2184 40.6316 32.3439C40.5859 32.4678 40.5626 32.6815 40.5626 32.9851V36.6382C40.5626 36.9298 40.5859 37.1412 40.6316 37.2719C40.6781 37.4047 40.7546 37.5253 40.8609 37.6355H39.1369V37.04C38.9273 37.2959 38.702 37.4852 38.4604 37.6051C38.2185 37.7255 37.9439 37.786 37.6376 37.786C37.3761 37.786 37.1434 37.7395 36.9413 37.6476C36.7396 37.5564 36.5647 37.4192 36.4179 37.2378C36.2903 37.0754 36.2 36.8878 36.1462 36.6734C36.0923 36.4602 36.0657 36.1517 36.0657 35.7478V32.9851C36.0657 32.6815 36.0437 32.4678 35.9983 32.3439C35.9541 32.2184 35.8774 32.1022 35.7666 31.9939H37.8193C37.7111 32.1054 37.6333 32.2247 37.589 32.3539C37.5433 32.4821 37.522 32.6928 37.522 32.9851V35.6999Z" fill="#0089CF"/>
<path fill-rule="evenodd" clip-rule="evenodd" d="M43.1622 36.6365C43.1622 36.9296 43.1846 37.1412 43.2307 37.2716C43.2771 37.4044 43.3533 37.5251 43.4603 37.6356H41.4069C41.5162 37.5251 41.594 37.4044 41.639 37.2716C41.6836 37.1412 41.706 36.9296 41.706 36.6365V32.9848C41.706 32.6813 41.6836 32.4676 41.639 32.3437C41.594 32.2186 41.5162 32.1022 41.4069 31.9943H43.4603C43.351 32.105 43.2732 32.2244 43.2286 32.3537C43.1843 32.482 43.1622 32.6925 43.1622 32.9848V34.5815L44.2939 32.9848C44.3794 32.8686 44.4355 32.7746 44.4656 32.7025C44.4955 32.6307 44.5102 32.5618 44.5102 32.4935C44.5102 32.4312 44.4916 32.3658 44.4527 32.2963C44.4142 32.2277 44.3337 32.1266 44.2111 31.9943H46.0491L44.3303 34.3583L46.3495 37.6356H45.5663C45.1598 37.6356 44.8725 37.5894 44.7058 37.4957C44.538 37.4025 44.3455 37.1718 44.1245 36.8031L43.1622 35.1906V36.6365Z" fill="#0089CF"/>
<path fill-rule="evenodd" clip-rule="evenodd" d="M49.637 37.7694C48.7788 37.7694 48.0752 37.4913 47.526 36.9362C46.9765 36.3811 46.7026 35.6706 46.7026 34.8065C46.7026 34.4117 46.7833 34.0262 46.9444 33.651C47.105 33.2756 47.3326 32.9443 47.6267 32.657C47.8967 32.3994 48.2033 32.2027 48.5478 32.0658C48.8925 31.9293 49.2552 31.8604 49.637 31.8604C50.5021 31.8604 51.2096 32.1358 51.7566 32.6857C52.305 33.236 52.5785 33.9451 52.5785 34.8151C52.5785 35.2107 52.4964 35.5987 52.3324 35.979C52.169 36.36 51.9437 36.6893 51.6537 36.9684C51.3868 37.2287 51.0812 37.4268 50.7378 37.5641C50.3932 37.7008 50.0261 37.7694 49.637 37.7694ZM48.2501 34.625C48.2501 35.3238 48.3818 35.8855 48.6446 36.3094C48.9068 36.7339 49.2522 36.9448 49.6813 36.9448C50.0973 36.9448 50.4265 36.7798 50.6681 36.4485C50.9104 36.1157 51.0314 35.6573 51.0314 35.0723C51.0314 34.3728 50.8988 33.8127 50.6348 33.3916C50.3708 32.9697 50.0231 32.7595 49.592 32.7595C49.181 32.7595 48.8539 32.9261 48.6129 33.2595C48.3709 33.5929 48.2501 34.0477 48.2501 34.625Z" fill="#0089CF"/>
<path fill-rule="evenodd" clip-rule="evenodd" d="M55.2215 31.9939C55.7354 31.9939 56.1419 32.1306 56.4412 32.4041C56.7407 32.6774 56.8896 33.0458 56.8896 33.5087C56.8896 34.0283 56.7297 34.4367 56.4114 34.7344C56.0922 35.0324 55.6549 35.1815 55.0991 35.1815C55.0371 35.1815 54.9362 35.1761 54.7955 35.1654H54.7772C55.0186 35.0245 55.1989 34.848 55.3142 34.6367C55.4296 34.4241 55.4878 34.1627 55.4878 33.8515C55.4878 33.5465 55.4167 33.3046 55.2722 33.1242C55.129 32.9454 54.9331 32.8538 54.6836 32.8507V36.6361C54.6836 36.9285 54.7062 37.1408 54.7535 37.2719C54.7985 37.4035 54.8751 37.5251 54.9826 37.6359H52.9297C53.0379 37.5251 53.1157 37.4035 53.1607 37.2719C53.2057 37.1408 53.2279 36.9285 53.2279 36.6361V32.9889C53.2279 32.6956 53.2057 32.4841 53.1607 32.3546C53.1157 32.2252 53.0379 32.1055 52.9297 31.9939H55.2215Z" fill="#0089CF"/>
<path fill-rule="evenodd" clip-rule="evenodd" d="M58.9826 36.6365C58.9826 36.9296 59.0048 37.1412 59.051 37.2716C59.0971 37.4044 59.1736 37.5251 59.2815 37.6356H57.2283C57.3376 37.5251 57.415 37.4044 57.4593 37.2716C57.5039 37.1412 57.5265 36.9296 57.5265 36.6365V32.9848C57.5265 32.6813 57.5039 32.4676 57.4593 32.3437C57.415 32.2186 57.3376 32.1022 57.2283 31.9943H59.2815C59.1715 32.105 59.0951 32.2244 59.0501 32.3537C59.0048 32.482 58.9826 32.6925 58.9826 32.9848V36.6365Z" fill="#0089CF"/>
<path fill-rule="evenodd" clip-rule="evenodd" d="M59.8473 37.6355C59.9798 37.4812 60.0735 37.3158 60.1267 37.1392C60.1809 36.9611 60.2081 36.6552 60.2081 36.2226V33.1921C60.2081 32.8943 60.1764 32.6648 60.112 32.5014C60.049 32.339 59.9423 32.1699 59.7952 31.9939H61.3968L63.7556 35.4468V33.2203C63.7556 32.9466 63.7264 32.7207 63.668 32.5397C63.6117 32.36 63.518 32.1778 63.3875 31.9939H64.874C64.7667 32.1866 64.6887 32.3754 64.6408 32.5605C64.5923 32.7462 64.567 32.9748 64.567 33.245V33.4765V37.7775C63.8418 37.6854 63.1966 37.2416 62.6365 36.4461C62.6163 36.4156 62.6021 36.3948 62.5915 36.3811L61.0206 34.1592V36.5554C61.0206 36.8423 61.0467 37.0607 61.0989 37.211C61.1509 37.3622 61.2401 37.5032 61.3643 37.6355H59.8473Z" fill="#0089CF"/>
<path fill-rule="evenodd" clip-rule="evenodd" d="M8.54658 34.1331C8.57938 34.138 8.61092 34.1422 8.64211 34.1447C8.67311 34.1484 8.71111 34.1494 8.75646 34.1494C8.92009 34.1494 9.05039 34.0897 9.14539 33.9707C9.24181 33.8516 9.28949 33.6871 9.28949 33.4758C9.28949 33.2916 9.24074 33.1409 9.14431 33.0212C9.04753 32.902 8.92224 32.8425 8.77079 32.8425C8.75072 32.8425 8.72204 32.8448 8.68458 32.8486C8.64712 32.8532 8.60178 32.8604 8.54658 32.8707V34.1331ZM8.54658 36.7879C8.61164 36.7987 8.66953 36.807 8.72204 36.8126C8.77492 36.8176 8.81865 36.821 8.85252 36.821C9.0805 36.821 9.26565 36.7338 9.40975 36.563C9.55457 36.391 9.6268 36.1689 9.6268 35.8987C9.6268 35.6031 9.55636 35.3671 9.41387 35.1893C9.27174 35.0116 9.08265 34.9234 8.84571 34.9234C8.81345 34.9234 8.74391 34.9313 8.63655 34.9471C8.59676 34.9528 8.56701 34.9572 8.54658 34.9598V36.7879ZM6.77686 37.6359C6.88637 37.5252 6.96326 37.4041 7.00824 37.2721C7.05323 37.1412 7.07545 36.93 7.07545 36.6381V32.9848C7.07545 32.6922 7.05323 32.4822 7.00824 32.3527C6.96326 32.2244 6.88637 32.1047 6.77686 31.9938H8.70699C9.33985 31.9938 9.82449 32.1094 10.1625 32.3383C10.5002 32.569 10.669 32.8975 10.669 33.3255C10.669 33.5717 10.6022 33.7908 10.4692 33.9818C10.3351 34.1725 10.1421 34.329 9.8883 34.4509C10.2385 34.5621 10.5029 34.7416 10.6823 34.9917C10.8624 35.2405 10.9524 35.5506 10.9524 35.9215C10.9524 36.1409 10.9171 36.3499 10.8475 36.549C10.778 36.7485 10.6755 36.9279 10.5409 37.088C10.3683 37.2856 10.1697 37.4259 9.94511 37.5094C9.72089 37.5943 9.40975 37.6359 9.01347 37.6359H6.77686Z" fill="#0089CF"/>
<path fill-rule="evenodd" clip-rule="evenodd" d="M13.1692 35.1728H14.2366L13.7042 33.4352L13.1692 35.1728ZM11.3226 37.6359C11.4402 37.4866 11.5352 37.3447 11.6108 37.2101C11.6852 37.0747 11.7453 36.9362 11.7902 36.7964L13.0085 33.0094C13.0162 32.9847 13.0273 32.9508 13.0422 32.9072C13.0967 32.7534 13.1239 32.6304 13.1239 32.5381C13.1239 32.454 13.1065 32.3722 13.0701 32.2942C13.0343 32.2163 12.9676 32.1155 12.8701 31.9939H14.7081L16.1821 36.6207C16.2472 36.8248 16.3289 37.0122 16.4278 37.1851C16.5255 37.358 16.6347 37.5088 16.7549 37.6359H14.5027C14.6172 37.495 14.6918 37.3853 14.7269 37.3071C14.7617 37.229 14.7791 37.1445 14.7791 37.0556C14.7791 37.0015 14.7757 36.9495 14.7703 36.9018C14.7635 36.8528 14.7542 36.8111 14.7413 36.7752L14.4801 35.9638H12.9147L12.6717 36.7387C12.6421 36.8391 12.6221 36.9119 12.6138 36.9581C12.6054 37.0041 12.6013 37.0446 12.6013 37.0799C12.6013 37.1772 12.6213 37.2722 12.6626 37.3641C12.7034 37.456 12.7658 37.547 12.8473 37.6359H11.3226Z" fill="#0089CF"/>
<path fill-rule="evenodd" clip-rule="evenodd" d="M17.2292 37.6355C17.3618 37.4812 17.4549 37.3158 17.5086 37.1392C17.5631 36.9611 17.5902 36.6552 17.5902 36.2226V33.1921C17.5902 32.8943 17.5577 32.6648 17.4941 32.5014C17.4303 32.339 17.324 32.1699 17.1761 31.9939H18.7788L21.137 35.4468V33.2203C21.137 32.9466 21.1083 32.7207 21.0508 32.5397C20.9929 32.36 20.8991 32.1778 20.7688 31.9939H22.2552C22.1484 32.1866 22.0706 32.3754 22.0218 32.5605C21.9727 32.7462 21.9496 32.9748 21.9496 33.245V33.4765V37.7775C21.2225 37.6854 20.5797 37.2416 20.0182 36.4461C19.9976 36.4156 19.9827 36.3948 19.9732 36.3811L18.4017 34.1592V36.5554C18.4017 36.8423 18.4284 37.0607 18.4802 37.211C18.5331 37.3622 18.6224 37.5032 18.7475 37.6355H17.2292Z" fill="#0089CF"/>
<path fill-rule="evenodd" clip-rule="evenodd" d="M24.6711 36.6365C24.6711 36.9296 24.6945 37.1412 24.7402 37.2716C24.7859 37.4044 24.863 37.5251 24.9697 37.6356H22.9167C23.0268 37.5251 23.1035 37.4044 23.1485 37.2716C23.1931 37.1412 23.2153 36.9296 23.2153 36.6365V32.9848C23.2153 32.6813 23.1931 32.4676 23.1485 32.3437C23.1035 32.2186 23.0268 32.1022 22.9167 31.9943H24.9697C24.8605 32.105 24.7833 32.2244 24.7383 32.3537C24.6933 32.482 24.6711 32.6925 24.6711 32.9848V34.5815L25.8027 32.9848C25.888 32.8686 25.9456 32.7746 25.9755 32.7025C26.0056 32.6307 26.0205 32.5618 26.0205 32.4935C26.0205 32.4312 26.0008 32.3658 25.9622 32.2963C25.9233 32.2277 25.843 32.1266 25.7208 31.9943H27.5595L25.8409 34.3583L27.8583 37.6356H27.0763C26.6697 37.6356 26.3825 37.5894 26.2158 37.4957C26.0483 37.4025 25.8547 37.1718 25.6348 36.8031L24.6711 35.1906V36.6365Z" fill="#0089CF"/>
</svg>
