<svg width="70" height="50" viewBox="0 0 70 50" fill="none" xmlns="http://www.w3.org/2000/svg">
<rect width="70" height="50" rx="4" fill="#EE3124"/>
<path fill-rule="evenodd" clip-rule="evenodd" d="M6 32.7968H21.9888V17H6V32.7968Z" fill="white"/>
<path fill-rule="evenodd" clip-rule="evenodd" d="M16.657 19.9851H8.1604L11.9229 24.8979H20.4202L16.657 19.9851Z" fill="#ED3124"/>
<path fill-rule="evenodd" clip-rule="evenodd" d="M20.4202 24.8979H11.9229L8.1604 29.8103H16.657L20.4202 24.8979Z" fill="#820024"/>
<path fill-rule="evenodd" clip-rule="evenodd" d="M60.4786 28.1976H58.4068V25.7627H60.4786C61.445 25.7627 61.7907 26.3885 61.7907 26.9738C61.7907 27.5658 61.445 28.1976 60.4786 28.1976ZM58.4068 21.5978H60.3467C61.1606 21.5978 61.6453 22.022 61.6453 22.7372C61.6453 23.4501 61.1606 23.8739 60.3467 23.8739H58.4068V21.5978ZM62.5323 24.7669C62.997 24.515 63.7593 23.8055 63.7593 22.6497C63.7593 20.8447 62.5131 19.7214 60.5064 19.7214H56.2916V30.0722H60.6838C62.6701 30.0722 63.9051 28.9255 63.9051 27.075C63.9051 25.6849 63.0795 25.0401 62.5323 24.7669ZM48.0609 26.3346C47.9814 26.2002 44.3606 19.7009 44.3606 19.7009H42.2918V30.0525H44.4058V23.8687C44.5666 24.1396 48.0609 30.1362 48.0609 30.1362C48.0609 30.1362 51.539 24.1403 51.6942 23.8702V30.0525H53.8104V19.7009H51.7428C51.7428 19.7009 48.1347 26.2002 48.0609 26.3346ZM37.5817 30.0722H39.7033V19.7214H37.5817V30.0722ZM34.0788 27.5789C33.4619 28.0655 32.715 28.3216 31.9279 28.3216C30.0165 28.3216 28.53 26.8183 28.53 24.8979C28.53 22.9772 30.0165 21.4728 31.9279 21.4728C32.715 21.4728 33.4619 21.7292 34.0788 22.2166L34.1082 22.2397L35.5823 20.7841L35.5487 20.7532C34.5401 19.8922 33.2566 19.417 31.9279 19.417C28.8354 19.417 26.3196 21.8762 26.3196 24.8979C26.3196 27.9189 28.8354 30.3774 31.9279 30.3774C33.2566 30.3774 34.5401 29.9033 35.5487 29.0423L35.5823 29.0099L34.1082 27.5558L34.0788 27.5789Z" fill="white"/>
</svg>
