<svg width="70" height="50" viewBox="0 0 70 50" fill="none" xmlns="http://www.w3.org/2000/svg">
<rect width="70" height="50" rx="4" fill="url(#paint0_linear_16134_6596)"/>
<path fill-rule="evenodd" clip-rule="evenodd" d="M30.8477 37.2202H34.0936V21.5652H30.8477V37.2202Z" fill="white"/>
<path fill-rule="evenodd" clip-rule="evenodd" d="M37.0698 21.5908V24.5262H39.8026V33.3578C39.8026 34.5766 40.1417 35.555 40.7945 36.293C41.4471 37.057 42.3175 37.4347 43.4139 37.4603C44.502 37.4861 45.4679 37.2457 46.2858 36.7479L46.3381 36.7221V36.6707L47.1126 33.6925L46.9213 33.8127C46.0509 34.3363 45.2502 34.5938 44.5194 34.5938C43.5098 34.5938 42.9962 34.0016 42.9962 32.8343V24.5262H46.312V21.5908H42.9962V16.6987L39.8026 18.3896V21.5908H37.0698Z" fill="white"/>
<path fill-rule="evenodd" clip-rule="evenodd" d="M49.5059 37.2202H52.7782V21.5652H49.5059V37.2202Z" fill="white"/>
<path fill-rule="evenodd" clip-rule="evenodd" d="M28.9851 24.0282L28.9155 23.9768C27.4187 22.1829 25.5477 21.3075 23.3023 21.3075C20.9526 21.3075 19.0206 22.0199 17.4715 23.4275C15.8268 24.9123 15 26.912 15 29.4183C15 31.9244 15.8268 33.9071 17.4715 35.4089C18.9945 36.8165 20.9526 37.5119 23.3023 37.5119C25.5477 37.5119 27.436 36.6278 28.9155 34.8598L28.9851 34.8081L27.1489 32.6195L27.0791 32.6884C25.887 33.8555 24.6077 34.4562 23.2328 34.4562C21.7968 34.4562 20.6132 33.9755 19.6734 33.0231C18.7247 32.0874 18.2721 30.8775 18.2721 29.4183C18.2721 27.9591 18.7247 26.7404 19.6734 25.7879C20.6132 24.8609 21.7968 24.3801 23.2328 24.3801C24.6077 24.3801 25.887 24.9811 27.0791 26.1484L27.1489 26.217L28.9851 24.0282Z" fill="white"/>
<path fill-rule="evenodd" clip-rule="evenodd" d="M32.4489 18.9903C33.728 17.7029 35.1555 16.7245 36.7827 16.0293C38.3491 15.3597 40.0202 15.0336 41.7434 15.0336C43.4576 15.0336 45.1287 15.3597 46.7297 16.0293C48.3223 16.7245 49.7495 17.7029 51.0289 18.9903L51.081 19.0333H54.8057L54.6666 18.8186C53.1872 16.7673 51.2727 15.1452 48.9751 13.9607C46.6776 12.785 44.2844 12.2098 41.7434 12.2098C39.2283 12.2098 36.8002 12.785 34.5027 13.9607C32.2051 15.1452 30.2906 16.7673 28.8197 18.8186L28.6719 19.0333H32.4227L32.4489 18.9903Z" fill="#EC1C2D"/>
<defs>
<linearGradient id="paint0_linear_16134_6596" x1="0" y1="0" x2="0" y2="50" gradientUnits="userSpaceOnUse">
<stop stop-color="#2E68C4"/>
<stop offset="1" stop-color="#1E3B80"/>
</linearGradient>
</defs>
</svg>
