<svg width="70" height="50" viewBox="0 0 70 50" fill="none" xmlns="http://www.w3.org/2000/svg">
<rect width="70" height="50" rx="4" fill="white"/>
<path fill-rule="evenodd" clip-rule="evenodd" d="M8.0203 25.6299H8.95104C9.48636 25.6299 9.91581 25.6718 10.3894 26.2168C10.7216 26.5909 11.0906 27.4258 11.0906 28.7693C11.0906 29.2543 11.0979 29.7317 11.0069 30.2232C10.8564 31.0005 10.4976 32.2416 8.44126 32.2416C7.89285 32.2416 8.0203 32.2276 8.0203 32.2276V25.6299ZM9.08061 33.3873C11.8467 33.3873 13.0869 32.1587 13.0869 28.8038C13.0869 27.916 12.8244 26.4301 11.9921 25.5215C11.1335 24.5915 10.024 24.4731 9.0829 24.4731H6V33.3873H9.08061Z" fill="#004F38"/>
<path fill-rule="evenodd" clip-rule="evenodd" d="M17.8157 31.0793C17.8157 31.3741 17.8026 31.7707 17.4915 32.0533C17.2267 32.2846 16.8571 32.3036 16.7109 32.3036C16.3615 32.3036 16.0492 32.1761 15.9139 31.7472C15.88 31.6092 15.8651 31.4717 15.8651 31.3391C15.8651 30.6876 16.2991 30.4135 16.7824 30.2983C17.0375 30.2409 17.2053 30.2273 17.8157 30.1774V31.0793ZM17.8157 29.3729L16.8068 29.4709C15.7169 29.598 15.3051 29.696 14.8376 30.0022C14.0878 30.5105 14.0781 31.2531 14.0781 31.4981C14.0781 32.1058 14.2621 32.5652 14.5151 32.8301C14.8496 33.2153 15.3775 33.3578 15.8883 33.3578C17.1395 33.3578 17.736 32.7922 17.736 32.7922L17.7485 33.1951H19.4306V28.977C19.4306 28.5011 19.4442 27.8366 18.8959 27.3629C18.6114 27.1168 18.3595 27.0061 17.9742 26.9493C17.5872 26.8825 17.4507 26.8555 17.0779 26.8555C15.941 26.8555 15.0809 27.0526 14.5899 27.9199C14.3788 28.2947 14.3939 28.6705 14.3939 28.958H15.941C15.9535 28.7074 15.9636 28.361 16.1639 28.1196C16.2635 27.9823 16.4973 27.7872 16.9289 27.7872C17.0693 27.7872 17.4803 27.7872 17.689 28.1251C17.8026 28.3253 17.8157 28.5874 17.8157 28.8819V29.3729Z" fill="#004F38"/>
<path fill-rule="evenodd" clip-rule="evenodd" d="M31.2496 31.0793C31.2496 31.3741 31.2376 31.7707 30.9224 32.0533C30.6656 32.2846 30.2915 32.3036 30.1416 32.3036C29.7936 32.3036 29.4812 32.1761 29.3483 31.7472C29.3133 31.6092 29.3019 31.4717 29.3019 31.3391C29.3019 30.6876 29.7319 30.4135 30.218 30.2983C30.4732 30.2409 30.6406 30.2273 31.2496 30.1774V31.0793ZM31.2496 29.3729L30.2418 29.4709C29.1479 29.598 28.7416 29.696 28.2714 30.0022C27.5251 30.5105 27.512 31.2531 27.512 31.4981C27.512 32.1058 27.696 32.5652 27.9472 32.8301C28.2839 33.2153 28.8157 33.3578 29.324 33.3578C30.5761 33.3578 31.1714 32.7922 31.1714 32.7922L31.1815 33.1951H32.8647V28.977C32.8647 28.5011 32.8759 27.8366 32.3321 27.3629C32.0463 27.1168 31.7905 27.0061 31.408 26.9493C31.022 26.8825 30.8869 26.8555 30.5116 26.8555C29.3742 26.8555 28.5147 27.0526 28.0258 27.9199C27.8141 28.2947 27.8284 28.6705 27.8284 28.958H29.3742C29.3885 28.7074 29.3992 28.361 29.5984 28.1196C29.6945 27.9823 29.9288 27.7872 30.3652 27.7872C30.5038 27.7872 30.9151 27.7872 31.1267 28.1251C31.2376 28.3253 31.2496 28.5874 31.2496 28.8819V29.3729Z" fill="#004F38"/>
<path fill-rule="evenodd" clip-rule="evenodd" d="M56.6687 33.1951H54.9099V29.4204C54.9099 29.1769 54.9099 28.9773 54.8856 28.771C54.8726 28.5739 54.8115 27.931 54.0453 27.931C53.8417 27.931 53.6695 27.9822 53.5588 28.0278C53.0397 28.2663 53.0273 28.6843 53.0159 29.0186V33.1951H51.25V27.0164H53.0159V27.7202C53.4608 27.3254 53.8598 26.8943 54.8477 26.8943C55.6795 26.8943 56.0908 27.2134 56.2607 27.4105C56.6529 27.8474 56.6529 28.4157 56.6687 28.8593V33.1951Z" fill="#004F38"/>
<path fill-rule="evenodd" clip-rule="evenodd" d="M26.22 33.1951H24.4596V29.4204C24.4596 29.1769 24.4596 28.9773 24.4313 28.771C24.4212 28.5739 24.36 27.931 23.5848 27.931C23.3913 27.931 23.2176 27.9822 23.1073 28.0278C22.5855 28.2663 22.5707 28.6843 22.5595 29.0186V33.1951H20.7947V27.0164H22.5595V27.7202C23.0088 27.3254 23.4038 26.8943 24.3945 26.8943C25.228 26.8943 25.6349 27.2134 25.8086 27.4105C26.2053 27.8474 26.2053 28.4157 26.22 28.8593V33.1951Z" fill="#004F38"/>
<path fill-rule="evenodd" clip-rule="evenodd" d="M34.1541 27.0133H35.9194V27.733C36.2567 27.4299 36.8526 26.8873 37.9136 26.8873C39.1228 26.8873 39.4596 27.6074 39.5438 27.841C40.2626 27.15 40.7379 26.8873 41.4298 26.8873C41.766 26.8873 42.0003 26.9427 42.2244 27.0239C43.1706 27.3847 43.1937 28.2262 43.2089 28.7698V33.1891H41.4191V29.1651C41.4079 28.726 41.3955 28.4812 41.2782 28.2859C41.2585 28.2365 41.0819 27.927 40.6376 27.927C40.4877 27.927 40.1998 27.9637 40.0634 28.0389C39.5728 28.2748 39.5529 28.6787 39.5438 29.01V33.1891H37.7947V29.1891C37.7947 28.7151 37.8034 27.927 37.0031 27.927C36.826 27.927 36.5125 27.9776 36.3576 28.0637C35.9194 28.3333 35.907 28.726 35.9194 29.2759V33.1891H34.1541V27.0133Z" fill="#004F38"/>
<path fill-rule="evenodd" clip-rule="evenodd" d="M48.4149 29.9707C48.4149 30.3245 48.4008 30.6581 48.3658 31.0001C48.3284 31.339 48.2707 32.0243 47.7406 32.3128C47.5883 32.3849 47.4287 32.423 47.2641 32.423C46.2641 32.423 46.1746 31.381 46.1522 31.0001C46.1299 30.7154 46.1131 30.4352 46.1131 30.159C46.1131 29.9131 46.1299 29.57 46.1668 29.1654C46.2025 28.8383 46.2733 28.2111 46.783 27.9161C46.9578 27.8289 47.1254 27.7923 47.319 27.7923C48.2707 27.7923 48.355 28.7811 48.3777 29.1654C48.4008 29.4353 48.4149 29.7081 48.4149 29.9707ZM50.2127 30.0022C50.2127 29.456 50.2127 28.4306 49.6027 27.7325C48.8604 26.8555 47.7999 26.8555 47.4287 26.8555C46.9928 26.8555 45.9926 26.8734 45.209 27.5792C44.3215 28.3693 44.3215 29.6235 44.3215 30.2606C44.3215 31.4673 44.5949 32.7453 46.1299 33.1891C46.5766 33.3268 46.8152 33.3489 47.2641 33.3489C47.6867 33.3489 48.737 33.3489 49.5185 32.4834C50.2127 31.721 50.2127 30.5717 50.2127 30.0022Z" fill="#004F38"/>
<path fill-rule="evenodd" clip-rule="evenodd" d="M6 12V16.2402H15.1786V13.931L6 12Z" fill="#F15B22"/>
<path fill-rule="evenodd" clip-rule="evenodd" d="M26.1574 16.2402L15.1763 12L15.1785 13.931L26.1574 16.2402Z" fill="#FFC222"/>
<path fill-rule="evenodd" clip-rule="evenodd" d="M15.1763 16.2403H26.1533L15.1763 13.931V16.2403Z" fill="#F7931D"/>
<path fill-rule="evenodd" clip-rule="evenodd" d="M26.1548 16.2363V16.2402L49.2131 21.0943V16.2363H26.1548Z" fill="#F15B22"/>
<path fill-rule="evenodd" clip-rule="evenodd" d="M63.9989 24.2065V16.2362H49.2139V21.0961L63.9989 24.2065Z" fill="#F7931D"/>
<path fill-rule="evenodd" clip-rule="evenodd" d="M49.213 21.0961L26.1597 16.2417L49.213 24.2103V21.0961Z" fill="#FFC222"/>
</svg>
