<svg width="70" height="50" viewBox="0 0 70 50" fill="none" xmlns="http://www.w3.org/2000/svg">
<rect width="70" height="50" rx="4" fill="#FFC134"/>
<rect x="6.7793" y="19.8268" width="8.63235" height="9" fill="white"/>
<path fill-rule="evenodd" clip-rule="evenodd" d="M16.8676 21.4159C16.2793 22.6783 16.2499 23.3911 16.2499 24.1931C16.2499 24.9951 16.2793 25.708 16.8676 26.9704C16.8879 27.017 16.9117 27.0663 16.9367 27.118C17.1106 27.4775 17.3414 27.9547 16.8529 28.5001C16.397 28.9604 15.8823 28.8713 15.544 28.6783C15.7352 29.0347 15.8087 29.5545 15.3676 30.0001C14.8129 30.4935 14.3294 30.2444 13.9703 30.0594C13.9295 30.0384 13.8903 30.0182 13.8529 30.0001C12.6029 29.406 11.897 29.3763 11.1029 29.3763C10.3087 29.3763 9.60285 29.406 8.35285 30.0001C8.31231 30.0197 8.2698 30.0419 8.22542 30.065C7.86737 30.2519 7.38768 30.5022 6.83815 30.0001C6.39697 29.5397 6.4705 29.0199 6.66167 28.6783C6.30873 28.8713 5.79403 28.9604 5.35285 28.5001C4.85027 27.9391 5.09705 27.4502 5.28019 27.0873C5.30069 27.0467 5.32038 27.0077 5.33815 26.9704C5.92638 25.708 5.95579 24.9951 5.95579 24.1931C5.95579 23.3911 5.92638 22.6783 5.33815 21.4159C5.3178 21.3692 5.29397 21.3199 5.26896 21.2682C5.0951 20.9087 4.8643 20.4315 5.35285 19.8862C5.80873 19.4406 6.32344 19.5149 6.66167 19.708C6.4705 19.3515 6.39697 18.8317 6.83815 18.3862C7.39363 17.8786 7.87774 18.1279 8.237 18.3128C8.27721 18.3335 8.31585 18.3534 8.35285 18.3713C9.60285 18.9654 10.3087 18.9951 11.1029 18.9951C11.897 18.9951 12.6029 18.9654 13.8529 18.3713C13.8991 18.3508 13.9479 18.3267 13.9991 18.3015C14.355 18.1259 14.8276 17.8928 15.3676 18.3862C15.8087 18.8466 15.7352 19.3664 15.544 19.708C15.897 19.5149 16.397 19.4258 16.8529 19.8862C17.3554 20.4472 17.1086 20.9361 16.9255 21.2989C16.905 21.3395 16.8853 21.3785 16.8676 21.4159ZM11.9705 25.5298L14.8823 27.9951L12.4411 25.0397C12.4411 25.0397 12.0587 24.6387 12.0587 24.1931C12.0587 23.7476 12.4411 23.3466 12.4411 23.3466L14.897 20.3911L14.8823 20.3763L11.9705 22.8565C11.9705 22.8565 11.5734 23.2426 11.1323 23.2426C10.6911 23.2426 10.294 22.8565 10.294 22.8565L7.36756 20.3763L7.35285 20.3911L9.80873 23.3466C9.80873 23.3466 10.1911 23.7476 10.1911 24.1931C10.1911 24.6387 9.80873 25.0397 9.80873 25.0397L7.35285 27.9951H7.36756L10.294 25.5298C10.294 25.5298 10.6911 25.1436 11.1323 25.1436C11.5734 25.1436 11.9705 25.5298 11.9705 25.5298Z" fill="url(#paint0_radial_16134_6632)"/>
<path d="M10.191 24.1931C10.191 23.7476 9.80867 23.3466 9.80867 23.3466L7.3969 20.4506L9.26455 23.7179C9.44102 24.0149 9.44102 24.3862 9.26455 24.6832L7.35278 27.9951L9.80867 25.0397C9.80867 25.0397 10.191 24.6387 10.191 24.1931Z" fill="url(#paint1_linear_16134_6632)"/>
<path d="M11.691 22.604C11.3381 22.8861 10.8675 22.9307 10.4704 22.7228L9.41162 22.1139L10.294 22.8564C10.294 22.8564 10.691 23.2426 11.1322 23.2426C11.5734 23.2426 11.9704 22.8564 11.9704 22.8564L14.8822 20.3762L15.4116 19.8119L11.691 22.604Z" fill="url(#paint2_linear_16134_6632)"/>
<path d="M15.5587 28.6635L14.8969 27.9803L14.8822 27.9952L11.9704 25.5298C11.9704 25.5298 11.5734 25.1437 11.1322 25.1437C10.691 25.1437 10.294 25.5298 10.294 25.5298L9.41162 26.2724L10.2204 25.8268C10.7204 25.5447 11.3381 25.5892 11.8087 25.9308L15.5587 28.6635Z" fill="url(#paint3_linear_16134_6632)"/>
<path d="M10.4117 28.5298L9.74993 27.9654C9.74993 27.9654 9.66169 27.8763 9.55875 27.8763C9.45581 27.8763 9.36758 27.9654 9.36758 27.9654L8.70581 28.5298L9.26463 27.8615C9.26463 27.8615 9.35287 27.7724 9.35287 27.6684C9.35287 27.5644 9.26463 27.4753 9.26463 27.4753L8.70581 26.807L9.36758 27.3714C9.36758 27.3714 9.45581 27.4605 9.55875 27.4605C9.66169 27.4605 9.74993 27.3714 9.74993 27.3714L10.4117 26.807L9.85287 27.4753C9.85287 27.4753 9.76463 27.5644 9.76463 27.6684C9.76463 27.7724 9.85287 27.8615 9.85287 27.8615L10.4117 28.5298Z" fill="white"/>
<path d="M14.3823 21L14.897 21.4307L14.4559 20.9109L14.3823 21Z" fill="white"/>
<path d="M14.2646 20.6882L13.9264 20.2872C13.9264 20.2872 13.7793 20.1239 13.7793 19.9605C13.7793 19.7823 13.9264 19.6338 13.9264 19.6338L14.8823 18.4753L13.7352 19.4407C13.7352 19.4407 13.5735 19.5892 13.4117 19.5892C13.2352 19.5892 13.0882 19.4407 13.0882 19.4407L12.4705 18.8912C12.4264 18.906 12.3823 18.906 12.3382 18.9209L12.9117 19.6041C12.9117 19.6041 13.0588 19.7674 13.0588 19.9308C13.0588 20.109 12.9117 20.2575 12.9117 20.2575L11.9558 21.4159L13.1029 20.4506C13.1029 20.4506 13.2646 20.3021 13.4264 20.3021C13.6029 20.3021 13.7499 20.4506 13.7499 20.4506L14.1323 20.7773" fill="white"/>
<path d="M14.1323 20.7922L14.2647 20.911L14.3823 20.807L14.2647 20.6882" fill="#EAEAEA"/>
<path fill-rule="evenodd" clip-rule="evenodd" d="M24.9705 27.0297H25H25.0147V27.9802H26.1911V18.0446H24.9558V22.1584H24.9264C24.5441 21.5347 23.8676 21.0743 22.7058 21.0743C20.7647 21.0743 19.8235 22.6782 19.8235 24.4901C19.8235 26.3317 20.6764 28.1436 22.6911 28.1436C23.8823 28.1436 24.647 27.5347 24.9705 27.0297ZM24.9411 24.6238C24.9411 25.7525 24.3676 27.1485 22.9705 27.1485C21.647 27.1485 21.0882 25.6485 21.1176 24.5941C21.0882 23.3614 21.6176 22.0842 22.9558 22.0842C24.2941 22.0842 24.9411 23.3614 24.9411 24.6238Z" fill="#1D1D1B"/>
<path fill-rule="evenodd" clip-rule="evenodd" d="M27.4265 19.7228H28.8236V18.3119H27.4265V19.7228ZM28.75 21.2228H27.5147V27.9802H28.75V21.2228Z" fill="#1D1D1B"/>
<path fill-rule="evenodd" clip-rule="evenodd" d="M32.75 30.9356C35.1617 30.9356 36.2058 29.7475 36.2058 27.698H36.1911V21.2376H35.0441V22.2475H35.0147C34.647 21.5049 33.9853 21.0742 32.8088 21.0742C30.7941 21.0742 29.8235 22.9307 29.8235 24.6683C29.8235 26.4208 30.7794 27.995 32.6911 27.995C33.5441 27.995 34.4117 27.6386 34.9411 26.9406H34.9705V27.6089C34.9705 29.0346 34.1911 29.9257 32.897 29.9257C32 29.9257 31.4264 29.7475 30.4853 29.3168L30.3529 30.4752C31.4264 30.8465 32.0441 30.9356 32.75 30.9356ZM33.0147 22.0693C34.3235 22.0693 34.9705 23.2722 34.9705 24.6831C34.9705 25.9455 34.1617 26.9851 33.0147 26.9851C31.8529 26.9851 31.147 25.8712 31.147 24.594C31.147 23.4356 31.7647 22.0693 33.0147 22.0693Z" fill="#1D1D1B"/>
<path fill-rule="evenodd" clip-rule="evenodd" d="M37.2646 19.7228H38.6617V18.3119H37.2646V19.7228ZM38.5735 21.2228H37.3382V27.9802H38.5735V21.2228Z" fill="#1D1D1B"/>
<path fill-rule="evenodd" clip-rule="evenodd" d="M40.8382 18.0446H40.0146V27.9802H40.8382V26.9109H40.8676C41.3088 27.7723 41.9999 28.1436 42.9558 28.1436C44.7941 28.1436 45.7058 26.6139 45.7058 24.6089C45.7058 22.5594 44.9264 21.0743 42.9558 21.0743C41.647 21.0743 40.9852 22.0396 40.8676 22.3663H40.8382V18.0446ZM40.8382 24.6089C40.8382 23.3762 41.3088 21.7871 42.8235 21.7871C44.4117 21.7871 44.8088 23.302 44.8088 24.6089C44.8088 25.9158 44.397 27.4307 42.8235 27.4307C41.3529 27.4307 40.8382 25.8416 40.8382 24.6089Z" fill="#1D1D1B"/>
<path fill-rule="evenodd" clip-rule="evenodd" d="M50.7499 26.8961H50.7646V27.9802H51.5734C51.5146 27.5198 51.5146 27.1189 51.5146 26.5693V23.5842C51.5146 21.8169 50.8087 21.0594 49.1616 21.0594C48.5734 21.0594 47.7057 21.2674 47.191 21.5198V22.3218C47.8087 21.9357 48.4704 21.7723 49.1616 21.7723C50.2793 21.7723 50.691 22.3515 50.691 23.5099V23.8515H50.5293C48.794 23.8515 46.4116 23.9555 46.4116 26.2278C46.4116 26.8515 46.7204 28.1436 48.6175 28.1436C49.4557 28.1436 50.3822 27.6981 50.7499 26.8961ZM50.4704 24.5793H50.7057H50.7204V24.9951C50.7204 25.7228 50.6763 27.4307 48.7352 27.4307C47.9704 27.4307 47.3381 27.104 47.3381 26.2129C47.3381 24.7278 49.044 24.5793 50.4704 24.5793Z" fill="#1D1D1B"/>
<path d="M52.7793 22.8267C52.7793 22.3069 52.7793 21.7722 52.7205 21.2376H53.5146V22.4406H53.544C53.8234 21.8316 54.3234 21.0742 55.7058 21.0742C57.3528 21.0742 57.9852 22.1881 57.9852 23.6732V27.995H57.1616V23.8811C57.1616 22.6039 56.7205 21.7871 55.5734 21.7871C54.0587 21.7871 53.5881 23.1237 53.5881 24.2524V27.995H52.7646V22.8267H52.7793Z" fill="#1D1D1B"/>
<path d="M59.2205 18.0446H60.044V24L63.0293 21.2228H64.0882L60.8235 24.2228L64.4852 27.9802H63.3382L60.0293 24.505V27.9802H59.2058V18.0446H59.2205Z" fill="#1D1D1B"/>
<path fill-rule="evenodd" clip-rule="evenodd" d="M53.3971 28.8119H53V32.0198H53.3824V31.7079H53.4118C53.5147 31.8713 53.7647 32.0644 54.1471 32.0644C54.7941 32.0644 55.0735 31.4703 55.0735 30.8762C55.0735 30.297 54.7647 29.7772 54.1324 29.7772C53.75 29.7772 53.5294 29.9258 53.4118 30.1337H53.3971V28.8119ZM53.3971 30.9357C53.3971 30.5347 53.6176 30.1188 54.0441 30.1188C54.4706 30.1188 54.6471 30.5347 54.6324 30.9208C54.6324 31.2624 54.4559 31.7525 54.0294 31.7525C53.5882 31.7525 53.3971 31.3069 53.3971 30.9357Z" fill="#1D1D1B"/>
<path d="M55.2794 32.6287C55.3235 32.6435 55.397 32.6584 55.4706 32.6584C55.8235 32.6584 55.9411 32.1683 55.9411 32.1237C55.9411 32.0792 55.897 31.9604 55.8676 31.8861L55.1323 29.8514H55.5735L56.1617 31.6633H56.1764L56.7647 29.8514H57.1617L56.3676 32.0792C56.2206 32.495 56.0588 32.9851 55.5294 32.9851C55.397 32.9851 55.3235 32.9703 55.2647 32.9554L55.2794 32.6287Z" fill="#1D1D1B"/>
<path fill-rule="evenodd" clip-rule="evenodd" d="M59.0295 29.0347H58.1619V32.0198H59.0295C60.0001 32.0198 60.603 31.5149 60.603 30.505C60.603 29.5842 59.9119 29.0347 59.0295 29.0347ZM59.0295 31.6485H58.5883H58.5736V29.406H59.0736C59.6913 29.406 60.1619 29.8218 60.1619 30.5198C60.1619 31.2921 59.7648 31.6485 59.0295 31.6485Z" fill="#1D1D1B"/>
<path fill-rule="evenodd" clip-rule="evenodd" d="M60.9707 29.0347H61.7795C62.3972 29.0347 62.8236 29.2426 62.8236 29.7921C62.8236 30.2079 62.5884 30.4159 62.206 30.505V30.5198C62.6031 30.5495 62.8972 30.8168 62.8972 31.2327C62.8972 31.8713 62.3678 32.0347 61.7648 32.0347H60.9707V29.0347ZM61.4119 30.3119H61.6325C62.0442 30.3119 62.3972 30.2673 62.3972 29.8366C62.3972 29.4802 62.1031 29.3911 61.8531 29.3911H61.4119V30.3119ZM61.7207 31.6782H61.3972V30.6535H61.6766C62.0442 30.6535 62.4413 30.7277 62.4413 31.1881C62.4413 31.604 62.1031 31.6782 61.7207 31.6782Z" fill="#1D1D1B"/>
<path d="M64.6912 29.4951C64.4706 29.406 64.353 29.3763 64.1324 29.3763C63.8971 29.3763 63.6177 29.4654 63.6177 29.7773C63.6177 30.3565 64.8971 30.2228 64.8971 31.203C64.8971 31.8416 64.4118 32.0941 63.8089 32.0941C63.603 32.0941 63.3971 32.0347 63.2059 31.9753L63.25 31.5743C63.3971 31.6337 63.6471 31.7228 63.8677 31.7228C64.103 31.7228 64.4559 31.5892 64.4559 31.2327C64.4559 30.5644 63.1765 30.7426 63.1765 29.8218C63.1765 29.2872 63.5883 29.005 64.1324 29.005C64.3236 29.005 64.5589 29.0347 64.7647 29.109L64.6912 29.4951Z" fill="#1D1D1B"/>
<defs>
<radialGradient id="paint0_radial_16134_6632" cx="0" cy="0" r="1" gradientUnits="userSpaceOnUse" gradientTransform="translate(11.9461 23.0267) scale(6.99127 7.05756)">
<stop offset="0.1684" stop-color="#F29020"/>
<stop offset="0.3042" stop-color="#F18D21"/>
<stop offset="0.4222" stop-color="#F08224"/>
<stop offset="0.5333" stop-color="#ED702A"/>
<stop offset="0.5765" stop-color="#EB672D"/>
<stop offset="0.6167" stop-color="#EA5E2F"/>
<stop offset="0.6834" stop-color="#E74433"/>
<stop offset="0.7143" stop-color="#E63635"/>
<stop offset="0.7553" stop-color="#E43231"/>
<stop offset="0.8001" stop-color="#DE2425"/>
<stop offset="0.8367" stop-color="#D71416"/>
<stop offset="0.9694" stop-color="#BA1819"/>
</radialGradient>
<linearGradient id="paint1_linear_16134_6632" x1="7.35434" y1="20.5077" x2="7.35434" y2="28.0353" gradientUnits="userSpaceOnUse">
<stop stop-color="#6B2A70"/>
<stop offset="0.0967907" stop-color="#742D6C"/>
<stop offset="0.2518" stop-color="#8B3362"/>
<stop offset="0.4456" stop-color="#B13F51"/>
<stop offset="0.6689" stop-color="#E64E39"/>
<stop offset="0.6786" stop-color="#E84F38"/>
</linearGradient>
<linearGradient id="paint2_linear_16134_6632" x1="11.9789" y1="24.6159" x2="15.8809" y2="20.1598" gradientUnits="userSpaceOnUse">
<stop offset="0.0408163" stop-color="#81358A"/>
<stop offset="0.199" stop-color="#A63E64"/>
<stop offset="0.283" stop-color="#AE475D"/>
<stop offset="0.4175" stop-color="#C45E4A"/>
<stop offset="0.5847" stop-color="#E7842A"/>
<stop offset="0.6326" stop-color="#F29020"/>
</linearGradient>
<linearGradient id="paint3_linear_16134_6632" x1="9.40728" y1="28.6628" x2="15.5591" y2="28.6628" gradientUnits="userSpaceOnUse">
<stop stop-color="#AA3364"/>
<stop offset="0.161" stop-color="#B3375E"/>
<stop offset="0.4187" stop-color="#CA414D"/>
<stop offset="0.6786" stop-color="#E84F38"/>
<stop offset="0.7256" stop-color="#E74B35"/>
<stop offset="0.777" stop-color="#E33D2E"/>
<stop offset="0.8303" stop-color="#DD2821"/>
<stop offset="0.8673" stop-color="#D71416"/>
<stop offset="1" stop-color="#C41512"/>
</linearGradient>
</defs>
</svg>
