<svg width="70" height="50" viewBox="0 0 70 50" fill="none" xmlns="http://www.w3.org/2000/svg">
<rect width="70" height="50" rx="4" fill="white"/>
<path fill-rule="evenodd" clip-rule="evenodd" d="M12.8832 25.7219C12.8756 25.7219 12.8832 29.3033 12.8832 29.3033C12.8832 29.7542 12.4818 30.1484 11.9566 30.1484H11.4524V30.3317H15.7153V30.1484H15.2116C14.6924 30.1484 14.2847 29.7479 14.2847 29.3033V25.6656V21.3238C14.2847 20.887 14.6859 20.4796 15.2116 20.4796H15.7153V20.2961H11.4524V20.4796H11.9566C12.4884 20.4796 12.8832 20.887 12.8832 21.3238V25.2136H7.83162V21.3238C7.83162 20.887 8.24062 20.4796 8.76004 20.4796H9.26344V20.2961H5V20.4796H5.5034C6.02815 20.4796 6.4306 20.887 6.4306 21.3238V25.6656V29.3033C6.4306 29.7479 6.02815 30.1484 5.5034 30.1484H5V30.3317H9.26344V30.1484H8.76004C8.24062 30.1484 7.83162 29.7479 7.83162 29.3033C7.83162 29.3033 7.83879 25.7219 7.83162 25.7219H12.8832Z" fill="#231F20"/>
<path fill-rule="evenodd" clip-rule="evenodd" d="M23.0213 27.7059C23.0581 28.2955 22.6782 29.1914 22.1529 29.6477C21.6469 30.0878 20.9269 30.4717 19.9631 30.4717C18.8685 30.4717 17.9263 29.9082 17.5832 29.782C17.3755 29.7045 17.1028 29.7134 16.9404 29.8097C16.7516 29.923 16.634 30.1045 16.5897 30.4439H16.4297V26.9659H16.5897C16.7362 28.0355 17.2538 28.6649 17.5766 29.021C18.1019 29.606 19.0934 29.9368 20.0503 29.7889C20.8101 29.6712 21.6412 28.8758 21.5512 27.8928C21.5185 27.5371 21.4369 27.019 20.6707 26.5369C20.1906 26.2336 19.5065 25.8033 18.8601 25.3894C18.0444 24.8685 17.3026 24.3032 17.0947 24.0732C16.821 23.7746 16.4812 23.3424 16.4812 22.6514C16.4812 22.0606 16.7147 21.3851 17.2109 20.935C17.7072 20.4848 18.3794 20.147 19.3423 20.147C20.3059 20.147 21.0366 20.6395 21.2838 20.7529C21.5313 20.864 21.8068 20.8387 21.9633 20.7529C22.116 20.668 22.2181 20.5419 22.2619 20.2028H22.4228V23.4969H22.2619C22.116 22.4264 21.6341 21.6254 21.299 21.3298C20.9638 21.0335 20.3059 20.6254 19.3278 20.8087C18.3887 20.984 17.9323 21.3926 17.846 22.1171C17.7804 22.6692 18.0907 23.0086 18.2688 23.2145C18.635 23.6376 20.9513 24.9033 21.9998 25.7774C22.5404 26.227 22.9631 26.7623 23.0213 27.7059Z" fill="#231F20"/>
<path fill-rule="evenodd" clip-rule="evenodd" d="M29.7719 25.2073C31.6281 25.821 32.1572 27.0839 31.8131 28.3858C31.4084 29.9144 29.6194 30.2263 29.0387 30.2995C28.7769 30.3321 28.1094 30.3299 27.4484 30.3299C26.269 30.3305 24.7765 30.3264 23.5793 30.3264V30.1444H24.1924C24.5825 30.1444 25.0284 29.8274 25.0284 29.3496V21.3371C25.0284 20.8575 24.5825 20.5348 24.1961 20.5348H23.5835V20.3516H27.2834C28.1737 20.3516 28.6581 20.4335 28.9687 20.4929C29.4953 20.5902 31.0284 21.0264 31.3941 22.4064C31.6753 23.4743 31.1221 24.8199 29.7719 25.2073ZM26.4149 24.9253C26.926 25.0516 28.4302 25.0865 29.0137 24.7289C29.9281 24.1693 30.2459 23.2713 30.0765 22.4761C29.976 21.9988 29.7137 21.5594 29.2612 21.2524C28.3709 20.6468 27.0868 20.7459 26.4149 20.9425V24.9253ZM26.4149 29.7639C27.1356 29.9796 28.5085 30.1444 29.4662 29.4834C30.6131 28.6919 30.8547 26.7559 29.235 25.7481C28.5827 25.3411 26.9549 25.3704 26.4149 25.4914V29.7639Z" fill="#231F20"/>
<path fill-rule="evenodd" clip-rule="evenodd" d="M41.5705 20.4716L41.7202 23.8709L41.5089 23.8778C41.4064 23.0184 41.0707 22.4127 40.6479 22.019C40.5259 21.9061 40.2948 21.6761 39.9602 21.4738C39.4048 21.1357 38.578 20.8369 37.5962 21.006C36.121 21.2589 35.3627 22.1983 34.9832 23.1027C34.516 24.2149 34.2204 26.1168 35.0122 27.7203C35.6558 29.0223 36.8913 29.5647 37.8443 29.7045C38.6571 29.8234 40.4575 29.7879 41.8311 28.0023L42.0489 28.1421C40.9827 29.5917 39.5657 30.5221 37.9469 30.5074C35.8735 30.4896 34.5713 29.3884 33.9757 28.7337C33.3478 28.0431 32.8664 26.7348 32.8604 25.5947C32.8551 24.5815 33.0866 23.4529 33.4648 22.7938C34.1135 21.6607 35.4723 20.5345 37.2596 20.366C38.5995 20.24 39.4797 20.493 40.2314 20.9072C40.6076 21.1148 40.8188 21.1385 41.0235 21.056C41.228 20.9703 41.3919 20.8025 41.3919 20.4716H41.5705Z" fill="#231F20"/>
<path fill-rule="evenodd" clip-rule="evenodd" d="M50.3552 30.3301H60.7545V20.3063H50.3552V30.3301Z" fill="white"/>
<path fill-rule="evenodd" clip-rule="evenodd" d="M45.1533 25.3182L50.3536 30.3318V20.3044L45.1533 25.3182Z" fill="#EE3624"/>
<path fill-rule="evenodd" clip-rule="evenodd" d="M50.355 30.3317H60.7546L55.5546 25.3182L50.355 30.3317Z" fill="#EE3624"/>
<path fill-rule="evenodd" clip-rule="evenodd" d="M55.5546 25.3182L60.7551 20.3044H50.3545L55.5546 25.3182Z" fill="#EE3624"/>
<path fill-rule="evenodd" clip-rule="evenodd" d="M60.7563 20.3044V30.3318L65.956 25.3182L60.7563 20.3044Z" fill="#EE3624"/>
</svg>
