<svg width="70" height="50" viewBox="0 0 70 50" fill="none" xmlns="http://www.w3.org/2000/svg">
<rect width="70" height="50" rx="4" fill="white"/>
<g clip-path="url(#clip0_16134_6931)">
<path d="M18.5631 17.032C17.8708 16.892 17.1507 17.2202 16.7862 17.8413C16.7001 17.9884 16.6381 18.1467 16.5989 18.3094C16.4381 17.6759 15.9325 17.1622 15.2903 17.032C14.598 16.892 13.8772 17.2202 13.5127 17.8413C13.4267 17.9884 13.3646 18.1467 13.3254 18.3094C13.164 17.6766 12.6591 17.1622 12.0168 17.032C11.3245 16.892 10.6037 17.2202 10.2393 17.8413C9.8735 18.465 9.93171 19.2828 10.3823 19.8447C10.8322 20.4059 11.5947 20.624 12.261 20.3773C12.792 20.1807 13.1881 19.7158 13.326 19.1663C13.3855 19.4111 13.495 19.6442 13.6557 19.8447C14.1056 20.4059 14.8682 20.624 15.5345 20.3773C16.0654 20.1807 16.4615 19.7158 16.5995 19.1663C16.659 19.4111 16.7685 19.6442 16.9292 19.8447C17.3791 20.4059 18.1416 20.624 18.808 20.3773C19.4718 20.1312 19.9268 19.4651 19.9268 18.7392C19.9261 17.9194 19.3458 17.1909 18.5631 17.032Z" fill="#FDAF27"/>
<path d="M13.1619 25.4839C13.334 26.2411 13.7725 26.9475 14.5401 27.1637C15.2691 27.3688 16.0816 27.0361 16.4568 26.357C16.6821 25.9494 16.6536 25.4885 16.6518 25.0373C16.6505 24.7332 16.6486 24.4298 16.6492 24.1257C16.6492 23.7911 16.6492 23.4564 16.6511 23.1224C16.653 22.694 16.641 22.278 16.8485 21.8893C17.1352 21.3515 17.7053 21.0207 18.3008 21.0448C18.902 21.0696 19.45 21.4576 19.6892 22.026C19.848 22.4036 19.8208 22.8132 19.822 23.2149C19.8233 23.5463 19.8233 23.8783 19.8233 24.2097C19.8233 24.9259 19.867 25.6727 19.7315 26.3778C19.4183 28.0101 18.3192 29.4308 16.8295 30.0851C15.34 30.7395 13.5757 30.5643 12.2329 29.6333C11.571 29.1742 11.0255 28.5395 10.6661 27.8057C10.3111 27.0797 10.096 26.1728 10.232 25.3602C10.3339 24.7547 10.799 24.2599 11.3843 24.1362C11.9925 24.0079 12.629 24.297 12.9461 24.8458C13.0612 25.0444 13.1112 25.2606 13.1619 25.4839Z" fill="#FDAF27"/>
<path d="M60.0001 25.3713C60.0001 27.5889 58.2338 29.3592 56.0038 29.3592C53.7892 29.3592 52.053 27.6039 52.053 25.3713C52.053 23.1388 53.7892 21.3984 56.0184 21.3984C58.2346 21.3984 60.0001 23.1538 60.0001 25.3713ZM54.1038 25.3863C54.1038 26.5876 54.9117 27.4496 56.0192 27.4496C57.1121 27.4496 57.9346 26.5719 57.9346 25.3863C57.9346 24.1851 57.1113 23.2924 56.0192 23.2924C54.9117 23.2924 54.1038 24.1701 54.1038 25.3863Z" fill="black"/>
<path d="M28.0344 26.8707C28.4103 27.0928 28.7716 27.32 29.2222 27.2926C29.6537 27.2666 30.0479 27.0342 30.2935 26.6689C30.5219 26.3297 30.5169 25.9423 30.5169 25.5497C30.5169 24.8869 30.5169 20.3482 30.5169 20.0181C30.5169 19.7895 30.5049 19.5636 30.5903 19.3455C30.844 18.699 31.666 18.4906 32.1824 18.9431C32.4589 19.1853 32.5374 19.518 32.5374 19.8729C32.5374 20.5871 32.5577 25.5314 32.5323 26.0217C32.4868 26.9065 32.0957 27.7634 31.4812 28.3813C30.8447 29.0219 29.972 29.3742 29.0842 29.3735C28.2318 29.3728 27.3314 29.0362 26.7732 28.3513C26.5492 28.0759 26.4189 27.7504 26.5068 27.3897C26.5916 27.042 26.8644 26.7639 27.2042 26.6819C27.513 26.609 27.7724 26.7158 28.0344 26.8707Z" fill="black"/>
<path d="M42.0344 27.5087L42.0356 27.5081C41.7256 27.3147 41.5338 26.9709 41.5282 26.5978V22.438C41.5282 21.8638 41.0757 21.3989 40.5176 21.3989C40.0063 21.3989 39.5854 21.7896 39.5177 22.2968C39.0077 21.7309 38.2357 21.3989 37.3093 21.3989C35.2293 21.3989 33.7175 23.0774 33.7175 25.3868C33.7175 27.6969 35.2293 29.3747 37.3093 29.3747C37.3188 29.3747 37.3283 29.3741 37.3378 29.3741C37.3473 29.3741 37.3567 29.3747 37.3662 29.3747C38.3642 29.3747 39.2298 28.988 39.8614 28.331C40.1841 28.8473 40.7049 29.2256 41.3275 29.3415C41.3883 29.3526 41.449 29.3584 41.5085 29.3584C41.5123 29.3584 41.5161 29.3578 41.5193 29.3571C41.5237 29.3571 41.5288 29.3578 41.5332 29.3578C42.0685 29.3578 42.502 28.9118 42.502 28.361C42.5026 27.999 42.3147 27.6832 42.0344 27.5087ZM37.6839 27.4807C36.5613 27.4807 35.7684 26.603 35.7684 25.3868C35.7684 24.1699 36.5765 23.2773 37.6839 23.2773C38.7913 23.2773 39.5544 24.1393 39.5544 25.3868C39.5544 26.6336 38.8059 27.4807 37.6839 27.4807Z" fill="black"/>
<path d="M50.9512 22.4454C50.9512 21.8451 50.5323 21.3984 49.9634 21.3984C49.4395 21.3984 49.0206 21.7988 48.9756 22.3529C48.4669 21.7526 47.6734 21.3984 46.7159 21.3984C44.6359 21.3984 43.1241 23.0769 43.1241 25.3863C43.1241 27.6957 44.6359 29.3742 46.7159 29.3742C47.6499 29.3742 48.4219 29.0415 48.9307 28.4516V28.699C48.9237 29.9419 48.1739 30.7753 47.0601 30.7753C46.583 30.7753 46.154 30.6191 45.8199 30.3241C45.6952 30.2141 45.5851 30.0852 45.4921 29.9413C45.1833 29.4634 44.5562 29.3339 44.0917 29.6516C43.6272 29.9693 43.5013 30.6145 43.8101 31.0924C44.0056 31.3945 44.2391 31.6667 44.5043 31.9011C45.2099 32.5248 46.0939 32.8543 47.0608 32.8543C49.2901 32.8543 50.9139 31.138 50.9499 28.7622L50.9519 28.3123C50.9519 28.3123 50.9519 28.3123 50.9519 28.3116V22.4454H50.9512ZM47.0905 27.4809C45.9679 27.4809 45.1751 26.6032 45.1751 25.387C45.1751 24.1707 45.9831 23.2775 47.0905 23.2775C48.1979 23.2775 48.9611 24.1395 48.9611 25.387C48.9611 26.6338 48.2125 27.4809 47.0905 27.4809Z" fill="black"/>
</g>
<defs>
<clipPath id="clip0_16134_6931">
<rect width="50" height="16" fill="white" transform="translate(10 17)"/>
</clipPath>
</defs>
</svg>
