<svg width="70" height="50" viewBox="0 0 70 50" fill="none" xmlns="http://www.w3.org/2000/svg">
<rect width="70" height="50" rx="4" fill="#05B0EE"/>
<path fill-rule="evenodd" clip-rule="evenodd" d="M46.5275 29.6437C45.4262 32.1291 43.6761 34.0182 41.2601 35.2724C40.5302 35.6512 39.7597 35.924 38.9615 36.1187C38.9074 36.1319 38.8497 36.1292 38.7321 36.139C39.16 35.8404 39.5437 35.5828 39.898 35.2851C41.8401 33.6526 43.0915 31.6067 43.3968 29.0716C43.7383 26.2352 43.0038 23.6656 41.2042 21.4321C39.8783 19.7866 38.2039 18.6067 36.2843 17.7397C35.5223 17.3955 34.7823 17.012 33.9654 16.8096C32.9922 16.5685 32.0042 16.4779 30.993 16.4853C31.6623 15.9462 32.4017 15.5304 33.1832 15.1907C34.7558 14.5068 36.4006 14.1743 38.1142 14.2737C40.0339 14.385 41.7479 15.0767 43.2506 16.267C45.494 18.0438 46.9124 20.3479 47.4027 23.1732C47.7905 25.4071 47.4435 27.5765 46.5275 29.6437ZM36.4357 35.4675C36.056 35.7047 35.6409 35.8768 35.232 36.0598C35.0158 36.1564 34.8184 36.1552 34.5986 36.0974C31.0308 35.1595 28.5757 32.9232 27.0498 29.6011C27.0342 29.5673 27.0019 29.5286 27.0539 29.4564C28.8882 31.0844 31.0437 31.6826 33.4473 31.3767C34.9163 31.1897 36.2356 30.5962 37.3249 29.5904C39.9481 27.1682 40.2064 24.2224 39.1259 20.9528C39.3699 21.1505 39.5232 21.3734 39.6833 21.5863C40.6779 22.9075 41.2692 24.3967 41.4418 26.0391C41.8906 30.3068 39.9166 33.2937 36.4357 35.4675ZM32.5125 36.739C29.4593 37.0003 27.0557 35.7269 25.0673 33.5265C23.7966 32.1202 22.9735 30.4687 22.713 28.5828C22.3347 25.8434 22.8088 23.2928 24.5643 21.0731C24.792 20.7852 25.0501 20.5227 25.3371 20.2868C24.2178 23.549 24.4793 26.748 25.7719 29.8722C27.084 33.0436 29.3532 35.3016 32.5135 36.646C32.5631 36.645 32.6273 36.6545 32.6244 36.7063C32.6206 36.7737 32.5537 36.7363 32.5125 36.739ZM29.0628 19.0777C30.9878 17.665 33.4812 17.769 35.3227 19.2925C36.5817 20.334 37.4501 21.643 37.6506 23.2709C37.9411 25.6308 37.3925 27.7606 35.4967 29.3535C33.6409 30.9129 30.8217 30.8533 28.986 29.2721C27.7162 28.1783 27.0333 26.7731 26.7798 25.1361C26.7175 24.7346 26.6744 24.3312 26.6782 23.9207C26.7394 21.9443 27.44 20.2686 29.0628 19.0777ZM49.5105 23.2933C48.937 20.2297 47.4242 17.7226 44.9828 15.7965C42.7029 13.9978 40.0736 13.1461 37.1961 13.0123C36.0334 12.9584 34.8855 13.0834 33.7566 13.3561C31.0961 13.9984 28.7656 15.2113 26.9783 17.3479C26.9129 17.4259 26.8396 17.4881 26.7425 17.5327C24.9839 18.342 23.4923 19.4988 22.301 21.0288C20.4907 23.354 19.6949 25.9774 20.106 28.9193C20.4968 31.716 21.8721 33.9359 24.1596 35.572C26.5395 37.2741 29.2494 37.9269 32.1273 37.9978C33.0007 38.0193 33.8578 37.8774 34.7091 37.6883C35.0353 37.6158 35.3508 37.4607 35.6985 37.5144C36.3591 37.6164 37.0224 37.673 37.7243 37.6578C38.3431 37.6784 38.9903 37.6286 39.6318 37.5127C43.5277 36.8086 46.4525 34.7188 48.346 31.243C49.7023 28.7532 50.0309 26.0741 49.5105 23.2933Z" fill="white"/>
</svg>
