<svg width="70" height="50" viewBox="0 0 70 50" fill="none" xmlns="http://www.w3.org/2000/svg">
<rect width="70" height="50" rx="4" fill="#003D79"/>
<path fill-rule="evenodd" clip-rule="evenodd" d="M5.06328 26.4811C5.06328 25.5844 5.04749 24.8319 5.00012 24.1609H6.64349L6.72054 25.3137H6.76665C7.13912 24.7045 7.82028 23.9841 9.09086 23.9841C10.0826 23.9841 10.8572 24.5616 11.182 25.4255H11.2139C11.4778 24.9935 11.7866 24.6737 12.1426 24.4488C12.5614 24.1451 13.0419 23.9841 13.6616 23.9841C14.9162 23.9841 16.1859 24.8642 16.1859 27.3611V31.9536H14.327V27.6496C14.327 26.3535 13.8939 25.5844 12.9803 25.5844C12.3285 25.5844 11.8477 26.0654 11.6476 26.6257C11.6006 26.8172 11.5542 27.0574 11.5542 27.2799V31.9536H9.69465V27.4409C9.69465 26.3535 9.27702 25.5844 8.39375 25.5844C7.68102 25.5844 7.20133 26.1614 7.03049 26.7043C6.95249 26.8976 6.92123 27.121 6.92123 27.3446V31.9536H5.06328V26.4811Z" fill="white"/>
<path fill-rule="evenodd" clip-rule="evenodd" d="M23.4285 30.0819C23.4285 30.7856 23.4594 31.4726 23.537 31.954H21.8167L21.6932 31.0901H21.6462C21.1817 31.6988 20.3916 32.1301 19.4156 32.1301C17.897 32.1301 17.0453 30.9949 17.0453 29.81C17.0453 27.841 18.7333 26.8497 21.5222 26.8655V26.737C21.5222 26.2247 21.3206 25.3771 19.9884 25.3771C19.2444 25.3771 18.4695 25.6174 17.9586 25.9529L17.5862 24.6737C18.145 24.321 19.1219 23.9845 20.3139 23.9845C22.7317 23.9845 23.4285 25.5698 23.4285 27.2653V30.0819ZM21.5687 28.1458C20.221 28.1135 18.9354 28.4175 18.9354 29.6019C18.9354 30.3692 19.4156 30.722 20.02 30.722C20.7782 30.722 21.3369 30.2097 21.5068 29.6498C21.5529 29.5058 21.5687 29.3452 21.5687 29.2176V28.1458Z" fill="white"/>
<path fill-rule="evenodd" clip-rule="evenodd" d="M24.7459 26.4811C24.7459 25.5844 24.7289 24.8319 24.6837 24.1609H26.3555L26.449 25.329H26.4948C26.8205 24.7216 27.6416 23.9841 28.8962 23.9841C30.2135 23.9841 31.5768 24.8642 31.5768 27.3292V31.9536H29.6715V27.5537C29.6715 26.4328 29.2687 25.5844 28.2305 25.5844C27.4713 25.5844 26.9448 26.1446 26.7428 26.737C26.6819 26.9134 26.6658 27.154 26.6658 27.3765V31.9536H24.7459V26.4811Z" fill="white"/>
<path fill-rule="evenodd" clip-rule="evenodd" d="M39.8385 21.0298V29.7609C39.8385 30.5609 39.869 31.4266 39.9001 31.954H38.1958L38.1195 30.722H38.0879C37.6384 31.5866 36.7229 32.1302 35.6241 32.1302C33.8278 32.1302 32.402 30.5462 32.402 28.1458C32.3862 25.5372 33.9664 23.9845 35.7789 23.9845C36.8166 23.9845 37.5609 24.4332 37.9011 25.0097H37.9326V21.0298H39.8385ZM37.9326 27.4085C37.9326 27.2501 37.9166 27.0572 37.8868 26.8977C37.7161 26.1295 37.1115 25.505 36.2439 25.505C35.02 25.505 34.3382 26.6258 34.3382 28.0821C34.3382 29.5059 35.02 30.5462 36.2284 30.5462C37.0027 30.5462 37.6848 30.0023 37.8705 29.1544C37.9166 28.9776 37.9326 28.7858 37.9326 28.577V27.4085Z" fill="white"/>
<path fill-rule="evenodd" clip-rule="evenodd" d="M41.1849 31.9536H43.1079V24.1614H41.1849V31.9536Z" fill="white"/>
<path fill-rule="evenodd" clip-rule="evenodd" d="M44.4546 26.6731C44.4546 25.6174 44.4385 24.8642 44.3922 24.1608H46.0503L46.1109 25.6485H46.1752C46.5464 24.5444 47.4296 24.1608 48.2349 24.1608C48.4204 24.1608 48.5287 24.128 48.6841 24.1608V25.8896C48.5287 25.8576 48.3587 25.8257 48.1263 25.8257C47.2124 25.8257 46.5922 26.4332 46.4219 27.3127C46.3918 27.4889 46.3605 27.6978 46.3605 27.9229V31.954H44.4546V26.6731Z" fill="white"/>
<path fill-rule="evenodd" clip-rule="evenodd" d="M49.5674 31.9536H51.4875V24.1614H49.5674V31.9536Z" fill="white"/>
<path fill-rule="evenodd" clip-rule="evenodd" d="M49.113 14.7396C47.9595 15.4295 45.239 17.0412 44.2234 17.6414C43.6045 17.9671 42.171 18.1093 41.3602 16.98C41.3456 16.9597 40.2818 15.5866 40.2383 15.5349C40.2079 15.4984 39.5201 14.4446 37.9875 14.4117C37.7611 14.4061 36.6353 14.3999 35.5369 15.0448C34.0768 15.9064 30.6811 17.9116 30.6811 17.9116C30.6802 17.9116 30.6802 17.9134 30.6784 17.9134C29.2826 18.7383 28.1951 19.3806 28.1951 19.3806L29.48 21.0107C30.0811 21.7816 31.4366 22.3781 32.6122 21.681C32.6122 21.681 36.9557 19.083 36.9716 19.0755C38.8501 18.0113 40.2996 18.0113 41.2616 18.4073C42.1252 18.7842 42.8764 19.7233 42.8764 19.7233C42.8764 19.7233 43.8582 20.98 44.0314 21.1999C44.5901 21.9102 45.5147 21.6311 45.5147 21.6311C45.5147 21.6311 45.8573 21.591 46.3738 21.2743C46.3738 21.2743 50.5811 18.7545 50.5838 18.7537C51.9197 17.9441 53.145 17.7929 53.7712 17.8524C55.7325 18.0366 56.3419 19.4519 57.1923 20.4392C57.6931 21.02 58.145 21.3498 58.8361 21.3331C59.2902 21.3232 59.8032 21.0388 59.8789 20.9874L64.917 17.9842C64.917 17.9842 64.4 17.18 63.3413 15.9288C62.3938 14.8124 61.3874 15.3175 60.585 15.728C60.2479 15.9002 59.0264 16.7395 57.8163 17.325C56.954 17.742 55.7155 17.6166 55.0367 16.7502C54.9961 16.6976 53.898 15.3243 53.7825 15.1554C53.3393 14.5819 52.4745 14.0684 51.3663 14.0684C50.6924 14.0684 49.9277 14.2582 49.113 14.7396Z" fill="url(#paint0_linear_16134_6710)"/>
<defs>
<linearGradient id="paint0_linear_16134_6710" x1="28.1951" y1="21.9897" x2="64.917" y2="21.9897" gradientUnits="userSpaceOnUse">
<stop stop-color="#FFCA06"/>
<stop offset="0.330844" stop-color="#FBAA18"/>
<stop offset="0.694742" stop-color="#FFC907"/>
<stop offset="1" stop-color="#FAA619"/>
</linearGradient>
</defs>
</svg>
