<svg width="70" height="50" viewBox="0 0 70 50" fill="none" xmlns="http://www.w3.org/2000/svg">
<rect width="70" height="50" rx="4" fill="#FFCE4C"/>
<path fill-rule="evenodd" clip-rule="evenodd" d="M23.8361 28.7332L25.5862 23.9466L26.1585 28.7332H28.0074L27.0061 21.7031H24.7498L23.2555 25.9263L21.7616 21.7031H19.5053L18.5037 28.7332H20.3529L20.9249 23.9466L22.6753 28.7332H23.8361Z" fill="#231F20"/>
<path fill-rule="evenodd" clip-rule="evenodd" d="M38.1935 23.5052L36.9396 27.1614L35.6678 23.5052H33.5552L35.9325 28.7332L34.9909 30.7841H37.0384L40.3068 23.5052H38.1935Z" fill="#231F20"/>
<path fill-rule="evenodd" clip-rule="evenodd" d="M58.9299 21.1235V28.7271H60.8453V26.0797L62.8095 28.7271H64.9885L62.8263 25.9321L64.7956 23.5053H62.595L60.8453 25.7884V21.1235H58.9299Z" fill="#231F20"/>
<path fill-rule="evenodd" clip-rule="evenodd" d="M42.5631 27.5207V24.7706C42.9512 24.6396 44.3567 24.2879 44.3567 26.0745C44.3567 27.8954 42.9149 27.6161 42.5631 27.5207ZM40.6147 28.4639C40.6147 28.4639 41.6276 28.8433 43.0474 28.8433C44.467 28.8433 46.3158 28.4016 46.3158 25.9539C46.3158 23.5052 43.8619 23.417 43.5756 23.417C43.0352 23.417 42.69 23.5643 42.5631 23.6294V21.1119H40.6147V28.4639Z" fill="#231F20"/>
<path fill-rule="evenodd" clip-rule="evenodd" d="M48.3416 27.1224C48.3416 26.371 49.7665 26.3174 50.1581 26.317V27.6552C49.7504 27.7041 48.3416 27.8204 48.3416 27.1224ZM47.3619 24.8288C50.1574 24.0015 50.1581 24.9948 50.1581 25.1265V25.304C47.8954 25.3231 46.5474 25.9707 46.5474 27.1447C46.5474 28.3356 47.8023 28.854 49.4644 28.854C51.1264 28.854 51.9736 28.4677 51.9736 28.4677V25.2147C51.9736 24.0678 51.2363 23.3398 49.4644 23.3398C47.692 23.3398 46.9221 23.7592 46.9221 23.7592L47.3619 24.8288Z" fill="#231F20"/>
<path fill-rule="evenodd" clip-rule="evenodd" d="M30.0494 27.1224C30.0494 26.371 31.4743 26.3174 31.8652 26.317V27.6552C31.4578 27.7041 30.0494 27.8204 30.0494 27.1224ZM29.0696 24.8288C31.8652 24.0015 31.8652 24.9948 31.8652 25.1265V25.304C29.6032 25.3231 28.2551 25.9707 28.2551 27.1447C28.2551 28.3356 29.5101 28.854 31.1718 28.854C32.8338 28.854 33.6814 28.4677 33.6814 28.4677V25.2147C33.6814 24.0678 32.9441 23.3398 31.1718 23.3398C29.3998 23.3398 28.6295 23.7592 28.6295 23.7592L29.0696 24.8288Z" fill="#231F20"/>
<path fill-rule="evenodd" clip-rule="evenodd" d="M56.2771 28.722H58.2032V25.4136C58.2032 23.6932 56.9708 23.3289 55.4514 23.3289C53.9331 23.3289 52.7112 23.7479 52.7112 23.7479V28.722H54.6376V24.7663C56.1186 24.3325 56.2771 25.0453 56.2771 25.3913V28.722Z" fill="#231F20"/>
<path fill-rule="evenodd" clip-rule="evenodd" d="M8.32839 23.1666C8.32839 23.1666 8.45234 22.6785 8.65031 22.5132C8.84863 22.3476 9.56109 21.876 10.5901 21.5452C10.7126 21.5056 10.8549 21.551 10.8613 21.5531C10.8545 21.5938 10.8505 21.6215 10.8488 21.6305C10.8351 21.7079 10.7773 21.7572 10.7773 21.7572C10.9864 21.785 11.124 21.6363 11.1624 21.4649C11.2012 21.2946 11.3331 20.6171 11.5479 20.6272C12.1476 20.6546 12.5769 22.596 12.5331 22.6839C12.504 22.7415 12.2686 22.6947 12.2686 22.6947C12.6426 23.2847 13.1323 23.279 13.2426 23.1857C13.3526 23.0925 13.2922 22.7886 13.2922 22.7886C14.4699 23.4892 14.4038 24.3219 14.4038 24.3219C14.7559 22.9434 13.9418 22.353 13.9418 22.353C14.2608 22.3419 14.6076 22.546 14.6076 22.546C14.1121 21.8789 13.0885 21.5092 13.0885 21.5092C13.0885 21.5092 11.8946 20.1804 11.5095 20.2301C11.1901 20.2715 11.0076 20.8583 10.9181 21.2594C10.8743 21.2558 10.7905 21.2525 10.6817 21.2655C10.5973 21.1604 10.2398 20.7352 10.1007 20.8752C10.0465 20.9292 10.0292 21.3123 10.0246 21.4732C9.44612 21.7036 8.46204 22.1367 8.26192 22.4546C8.08085 22.7444 8.03917 22.9596 8.03917 22.9596C8.03917 22.9596 6.85929 23.7203 6.57007 24.5483C6.57007 24.5483 7.36264 23.6213 8.32839 23.1666Z" fill="#231F20"/>
<mask id="mask0_16134_6727" style="mask-type:luminance" maskUnits="userSpaceOnUse" x="5" y="19" width="12" height="13">
<path fill-rule="evenodd" clip-rule="evenodd" d="M5 19.36H16.692V31.0757H5V19.36Z" fill="white"/>
</mask>
<g mask="url(#mask0_16134_6727)">
<path fill-rule="evenodd" clip-rule="evenodd" d="M10.8459 19.3599C7.62275 19.3599 5 21.9882 5 25.2174C5 28.4473 7.62275 31.0757 10.8459 31.0757C14.0697 31.0757 16.6921 28.4473 16.6921 25.2174C16.6921 21.9882 14.0697 19.3599 10.8459 19.3599ZM10.8459 19.8491C13.8046 19.8491 16.2035 22.2521 16.2035 25.2174C16.2035 28.1824 13.8046 30.5857 10.8459 30.5857C7.88755 30.5857 5.48898 28.1824 5.48898 25.2174C5.48898 22.2521 7.88755 19.8491 10.8459 19.8491Z" fill="#231F20"/>
</g>
<path fill-rule="evenodd" clip-rule="evenodd" d="M12.1256 22.5521C12.1087 21.9393 11.8066 21.449 11.6521 21.4206C11.4983 21.3936 11.4487 21.9775 11.4487 21.9775C11.8562 22.2475 12.1256 22.5521 12.1256 22.5521Z" fill="#231F20"/>
<path fill-rule="evenodd" clip-rule="evenodd" d="M9.22508 22.4417C8.98832 22.5843 9.09323 22.706 9.09323 22.706C9.09323 22.706 9.05478 22.5843 9.34652 22.5018C9.86676 22.3546 10.3371 22.2038 10.3256 22.0774C10.3148 21.9507 9.96269 21.901 9.96269 21.901C10.0618 22.0331 9.46185 22.2981 9.22508 22.4417Z" fill="#231F20"/>
<path fill-rule="evenodd" clip-rule="evenodd" d="M9.46997 23.2518C9.54147 23.2518 9.59931 23.1942 9.59931 23.1225C9.59931 23.0833 9.58171 23.0494 9.55404 23.0257C9.63991 23.0199 9.83608 23.0307 9.83608 23.0307C9.81416 23.0257 9.76458 23.0808 9.65428 23.2186C9.54434 23.3569 9.44015 23.2518 9.44015 23.2518L9.43836 23.2456C9.44842 23.2478 9.45883 23.2518 9.46997 23.2518ZM9.05464 23.8418C9.05464 23.8418 9.20303 23.4948 9.31333 23.4508C9.31333 23.4508 9.5059 23.5002 9.61045 23.4613C9.715 23.4231 9.91297 23.1585 9.99021 23.1528C9.99021 23.1528 9.7865 24.0398 8.96087 24.0236C8.96087 24.0236 9.55548 24.3602 9.858 24.123C10.1609 23.8857 9.92949 23.7039 10.3204 23.3234C10.7109 22.9425 10.4526 22.9267 10.4361 22.9324C10.4196 22.9375 10.2981 22.899 10.2981 22.899C10.2981 22.899 10.3531 22.8273 10.4637 22.7784C10.5737 22.728 11.2064 22.4418 11.2175 22.2697C11.2283 22.0994 10.7605 21.9064 10.5241 21.9115C10.5241 21.9115 10.7382 21.9997 10.7275 22.1214C10.7167 22.2427 10.1005 22.513 10.1005 22.8604C10.1005 22.8604 9.88027 22.8766 9.72039 22.8442C9.56087 22.8104 9.39021 22.8273 9.21416 22.9425C9.03812 23.0588 9.02734 22.8 9.04351 22.7665C9.04351 22.7665 8.70255 22.9814 9.13189 23.2572C9.13189 23.2572 8.95548 23.4393 8.93895 23.4836C8.92243 23.5275 8.85093 23.7644 9.05464 23.8418Z" fill="#231F20"/>
<path fill-rule="evenodd" clip-rule="evenodd" d="M8.50988 24.9779C8.50988 24.9779 8.50162 24.6636 8.2124 24.7299C7.72665 24.8408 7.5603 25.7055 7.5603 25.7055C8.10569 24.6968 8.50988 24.9779 8.50988 24.9779Z" fill="#231F20"/>
<path fill-rule="evenodd" clip-rule="evenodd" d="M8.69162 25.7467C8.95533 25.3173 8.63377 25.044 8.22096 25.2751C7.80851 25.507 7.70898 26.0614 7.70898 26.0614C8.52635 25.1682 8.69162 25.7467 8.69162 25.7467Z" fill="#231F20"/>
<path fill-rule="evenodd" clip-rule="evenodd" d="M12.588 25.1926C12.588 25.1926 12.2905 24.9288 12.3235 24.4399C12.3566 23.9517 12.4475 23.2166 11.6222 22.7032C11.6222 22.7032 11.9603 23.2245 11.8364 23.7372C11.7124 24.2502 11.2992 25.1253 11.333 25.4162C11.4074 26.053 12.0677 26.169 12.0182 27.0373C12.0182 27.0373 12.4062 26.5653 12.3322 26.0116C12.2578 25.4572 11.7706 25.2171 11.9851 24.7794C11.9851 24.7794 12.2327 25.143 12.588 25.1926Z" fill="#231F20"/>
<path fill-rule="evenodd" clip-rule="evenodd" d="M8.83608 27.7401C8.76134 27.716 8.6956 27.4427 8.6956 27.4427C8.80302 27.5298 9.02182 27.5338 9.02182 27.5338C8.91835 27.6324 8.91045 27.7649 8.83608 27.7401ZM9.66027 26.8692C9.66027 26.8692 9.91859 26.88 9.92973 26.8361C9.94087 26.7918 9.84709 26.4884 9.84709 26.4884C9.84709 26.4884 10.1719 26.5215 10.1776 26.6266C10.183 26.7306 9.99584 26.9963 9.59955 27.167C9.59955 27.167 9.6714 26.9571 9.66027 26.8692ZM7.98099 26.5881C8.01655 26.5676 8.04997 26.5456 8.08051 26.5215C8.16099 26.4606 8.22134 26.4315 8.26194 26.4182C8.25368 26.5344 8.24685 26.7389 8.28314 26.9088C8.28314 26.9088 8.06937 26.7717 7.98099 26.5881ZM6.94697 25.529C6.82051 25.529 6.59488 25.1927 6.55643 25.1265C6.51799 25.0606 6.77057 24.9389 6.84817 24.917C6.92506 24.8946 7.00625 24.9134 7.01847 24.9508C7.02961 24.9828 6.85931 25.088 6.83703 25.1265C6.81512 25.1654 6.97212 25.3104 6.99655 25.341C7.04039 25.3972 7.0738 25.529 6.94697 25.529ZM14.9643 22.8848C14.9643 22.8848 15.6861 24.8511 14.8716 26.6374C14.8716 26.6374 14.918 26.3778 14.7175 25.8659C14.5027 25.3173 14.5745 24.6084 14.6625 24.4763C14.6625 24.4763 14.2659 24.873 14.2882 25.5351C14.3104 26.196 14.4861 28.0601 13.1439 28.7549C13.1439 28.7549 13.6526 27.8229 13.4625 26.7306C13.4625 26.7306 13.6361 26.7976 13.727 27.0291C13.727 27.0291 14.0902 26.0697 13.6195 24.8946C13.6195 24.8946 13.8836 24.9447 14.0489 25.0851C14.0489 25.0851 14.2224 24.2445 13.2728 23.6541C13.0336 23.505 13.0663 23.423 13.0663 23.423C13.0663 23.423 12.9922 23.613 13.1489 23.8031C13.3055 23.9936 13.5207 24.3658 13.4877 24.5562C13.4877 24.5562 13.2315 24.3737 12.86 24.4238C12.86 24.4238 13.57 25.0271 13.4625 26.326C13.4625 26.326 13.2815 26.1276 12.8191 26.0448C12.8191 26.0448 13.3389 27.0212 12.8766 27.9554C12.8766 27.9554 12.8435 27.6245 12.6951 27.4175C12.6951 27.4175 12.5794 28.1044 11.7542 28.3445C11.7542 28.3445 12.4224 27.5086 11.6302 27.0874C10.8376 26.6648 10.169 27.5997 10.0372 28.419C10.0372 28.419 9.12099 28.4846 9.03009 28.1127C8.93919 27.7401 9.20326 27.5828 9.20326 27.5828C9.20326 27.5828 9.34374 27.6738 9.66602 27.5252C9.98757 27.3765 10.6645 26.9708 10.5984 26.4581C10.5322 25.9458 9.73176 25.4411 9.09584 25.6474C8.46063 25.8548 8.09703 26.4171 7.76685 26.4088C7.43667 26.4005 7.03212 25.8958 7.09033 25.6316C7.14781 25.3666 7.3623 25.2921 7.43667 24.8453C7.43667 24.8453 7.32134 24.8565 7.24446 24.8068C7.16721 24.7568 6.9635 24.6743 6.85356 24.7024C6.74326 24.7298 6.4738 24.9119 6.46266 24.8784C6.45152 24.8453 6.49033 24.6462 6.49033 24.6462C6.49033 24.6462 6.1932 24.9605 6.23739 25.088C6.28122 25.2147 6.53991 25.529 6.80937 25.7057C6.80937 25.7057 6.85931 26.0913 7.2114 26.4502C7.42158 26.6644 7.61775 26.7033 7.78518 26.6673C7.85596 26.772 8.09703 27.0881 8.48111 27.1572C8.48111 27.1572 8.41464 26.7141 8.46278 26.3793C8.47751 26.3714 8.49224 26.3627 8.50446 26.3505C8.56482 26.2904 9.26937 25.6395 9.79212 26.268C9.79212 26.268 9.55536 26.3562 9.46194 26.6536C9.36853 26.952 9.31356 27.6908 8.53751 27.2166C8.53751 27.2166 8.4714 27.6411 8.70817 27.8952C8.70817 27.8952 8.67512 28.347 9.18673 28.5947C9.69871 28.8431 10.0566 28.6559 10.3867 28.8212C10.3867 28.8212 10.3537 28.1426 10.6339 27.7293C10.9149 27.3156 11.3112 27.1778 11.5037 27.3383C11.696 27.4978 11.8174 28.1044 11.0744 28.7333C11.0744 28.7333 11.9273 28.8431 12.5108 28.3967C12.5108 28.3967 12.4382 29.1844 11.8494 29.8518C13.9831 29.3932 15.5758 27.4924 15.5758 25.2172C15.5758 24.3694 15.3534 23.5734 14.9643 22.8848Z" fill="#231F20"/>
<path fill-rule="evenodd" clip-rule="evenodd" d="M11.5367 23.0696C11.5367 23.0696 10.9809 22.756 10.7334 23.0807C10.5002 23.3871 10.6518 23.9116 10.5149 24.2396C10.511 24.236 10.5059 24.2317 10.502 24.2281C10.1937 23.9516 9.81432 24.421 9.74247 24.5585C9.67133 24.6968 9.57756 24.7126 9.57756 24.7126C8.90067 24.8509 9.04366 24.3051 8.81804 24.1399C8.59277 23.9739 8.21265 24.2173 8.21265 24.2173C8.59241 24.1445 8.68043 24.4099 8.66965 24.5143C8.65851 24.6194 8.7354 24.9286 8.83995 25.0993C8.9445 25.2699 9.36845 25.1486 9.71516 25.177C10.0619 25.204 10.2598 25.6281 10.2598 25.6281C10.4689 25.1209 9.90774 24.8897 9.90774 24.8897C9.90774 24.8897 10.0716 24.578 10.2652 24.6853C10.8817 25.0269 10.7276 26.4111 10.7276 26.4111C11.2586 25.411 11.0247 24.8239 10.7477 24.4808C10.7826 24.169 10.9403 23.1855 11.5367 23.0696Z" fill="#231F20"/>
</svg>
