<svg width="70" height="50" viewBox="0 0 70 50" fill="none" xmlns="http://www.w3.org/2000/svg">
<rect width="70" height="50" rx="4" fill="white"/>
<path fill-rule="evenodd" clip-rule="evenodd" d="M39.3069 32.2347L37.7668 35.2671L36.2268 32.2347H34.571V39.1084H36.2562V35.6719C36.2562 35.6719 37.0834 37.1213 37.2074 37.3377C37.3314 37.5541 37.543 37.6663 37.7667 37.6663C37.9907 37.6663 38.2025 37.5541 38.3265 37.3377C38.4504 37.1213 39.2777 35.6719 39.2777 35.6719V39.1084H40.9628V32.2347H39.3069Z" fill="#595A59"/>
<path fill-rule="evenodd" clip-rule="evenodd" d="M42.3765 39.1083V32.2345H47.0378V33.7409H44.0614V34.8886H46.604V36.3963H44.0614V37.6038H47.0378V39.1083H42.3765Z" fill="#595A59"/>
<path fill-rule="evenodd" clip-rule="evenodd" d="M52.6028 38.4525C52.0152 39.0602 51.3603 39.2235 50.6098 39.2235C49.8106 39.2235 49.2033 38.9554 48.7032 38.4525C47.9806 37.728 48.0094 36.6839 48.0094 35.6523C48.0094 34.6194 47.9806 33.5842 48.7032 32.859C49.2033 32.3575 49.7829 32.0881 50.6098 32.0881C52.3709 32.0881 53.1228 33.2357 53.2857 34.366H51.5923C51.4563 33.844 51.1865 33.5925 50.6098 33.5925C50.3015 33.5925 50.0698 33.7291 49.9453 33.8931C49.7906 34.0955 49.6951 34.397 49.6951 35.6523C49.6951 36.9065 49.7906 37.2265 49.9453 37.4292C50.0698 37.5954 50.3015 37.7188 50.6098 37.7188C50.966 37.7188 51.2061 37.6132 51.3603 37.4482C51.5531 37.2553 51.6212 36.9118 51.6212 36.6516V36.5547H50.6098V35.1432H53.2959V36.0995C53.2959 37.2118 53.1228 37.9225 52.6028 38.4525Z" fill="#595A59"/>
<path fill-rule="evenodd" clip-rule="evenodd" d="M56.161 36.7093L56.7912 34.7186L57.4217 36.7093H56.161ZM57.4411 32.2345H56.1415L53.6479 39.1083H55.3808L55.7175 38.0846H57.8651L58.2019 39.1083H59.9347L57.4411 32.2345Z" fill="#595A59"/>
<path fill-rule="evenodd" clip-rule="evenodd" d="M12.6817 35.9315H10.8133V38.4518H12.6817C13.5292 38.4518 14.059 37.9592 14.059 37.1866C14.059 36.4143 13.5292 35.9315 12.6817 35.9315ZM12.6048 32.8897H10.8133V35.2749H12.6048C13.3656 35.2749 13.953 34.8982 13.953 34.0774C13.953 33.2566 13.3656 32.8897 12.6048 32.8897ZM12.7492 39.1084H10.0813V32.233H12.6625C13.8567 32.233 14.685 32.9186 14.685 34.0678C14.685 34.792 14.2516 35.3617 13.6737 35.5742C14.3287 35.8155 14.791 36.3852 14.791 37.206C14.791 38.4518 13.9627 39.1084 12.7492 39.1084Z" fill="#595A59"/>
<path fill-rule="evenodd" clip-rule="evenodd" d="M18.0941 33.2855L16.8035 36.9162H19.3654L18.0941 33.2855ZM20.1262 39.1084L19.5772 37.5537H16.582L16.033 39.1084H15.2529L17.7762 32.233H18.3926L20.9063 39.1084H20.1262Z" fill="#595A59"/>
<path fill-rule="evenodd" clip-rule="evenodd" d="M26.0009 39.1084L22.3604 33.5946V39.1084H21.6284V32.2332H22.3218L25.9624 37.7276V32.2332H26.6943V39.1084H26.0009Z" fill="#595A59"/>
<path fill-rule="evenodd" clip-rule="evenodd" d="M32.5593 39.1084L30.4694 35.4487L29.0247 37.1867V39.1084H28.2927V32.2332H29.0247V36.1825L32.2222 32.2332H33.1179L30.9606 34.8887L33.4261 39.1084H32.5593Z" fill="#595A59"/>
<path fill-rule="evenodd" clip-rule="evenodd" d="M37.5317 10.0242L35.0081 15.7057L39.0043 24.7029L45.5231 10.0242H37.5317Z" fill="#949594"/>
<path fill-rule="evenodd" clip-rule="evenodd" d="M45.5229 10.0242H37.5315L45.281 27.4739H53.2737L45.5229 10.0242Z" fill="#595A59"/>
<path fill-rule="evenodd" clip-rule="evenodd" d="M32.487 10.0242H24.4956L31.0142 24.7029L35.0106 15.7057L32.487 10.0242Z" fill="#EC952D"/>
<path fill-rule="evenodd" clip-rule="evenodd" d="M24.4956 10.0242L16.7449 27.4739H24.7377L32.487 10.0242H24.4956Z" fill="#F9C623"/>
<path fill-rule="evenodd" clip-rule="evenodd" d="M35.0093 15.7057L31.0142 24.703C31.7111 26.2156 33.2388 27.2605 35.0093 27.2605C36.7799 27.2605 38.3075 26.2156 39.0042 24.703L35.0093 15.7057Z" fill="#E3672A"/>
</svg>
