<svg width="70" height="50" viewBox="0 0 70 50" fill="none" xmlns="http://www.w3.org/2000/svg">
<rect width="70" height="50" rx="4" fill="#EC1F30"/>
<path fill-rule="evenodd" clip-rule="evenodd" d="M31.8805 15.4947L28.5487 13.2696C29.0907 12.531 29.7549 11.8898 30.5136 11.3762L33.4044 14.3307C32.8073 14.5907 32.2846 14.994 31.8805 15.4947ZM36.8179 21.5636C37.1017 21.4175 37.3654 21.2402 37.6042 21.0345C37.7604 20.904 37.9055 20.7625 38.0387 20.6036C38.6385 19.9017 39.0014 18.994 39.0014 17.9991C39.0014 15.7905 37.2101 13.9991 35.0009 13.9991C34.5379 13.9991 34.0915 14.0772 33.6791 14.2214L30.8875 11.1364C32.089 10.4143 33.4963 10 35.0009 10C39.4184 10 43 13.5811 43 18.0009C43 22.4208 39.4184 26 35.0009 26C32.8027 26 30.8121 25.1153 29.3663 23.6812H39.1787L28.8941 23.1695L39.7629 23.1006L28.3889 22.508L32.7568 22.441C32.7568 22.441 35.0496 22.5099 36.8179 21.5636ZM27.7404 21.3661C27.6706 21.2154 27.6044 21.0602 27.5438 20.9058H29.9275L30.3694 21.3716H33.9381L33.1546 22.1975H28.7628C28.6241 21.7474 28.2245 21.4074 27.7404 21.3661ZM27.4464 20.6394C27.1589 19.8135 27 18.927 27 18.0009C27 17.4864 27.0487 16.9839 27.1415 16.4979L31.0032 17.8558L31.0014 17.9991C31.0014 18.949 31.3321 19.8227 31.886 20.5099C31.6012 19.8944 31.4028 19.2062 31.4028 18.4731C31.4028 18.3151 31.412 18.158 31.4313 18.0046L35.5613 19.4552V20.6394H27.4464ZM35.5613 17.9531L32.393 15.8374C32.7908 15.3836 33.2877 15.0234 33.8508 14.7846L35.5613 16.5328V17.9531ZM35.5613 19.311L31.4689 17.7464C31.5856 17.1144 31.8511 16.531 32.2286 16.0367L35.5613 18.1112V19.311ZM31.0225 17.5765L27.2214 16.124C27.4391 15.2145 27.8148 14.3666 28.3145 13.6059L31.7133 15.7189C31.3403 16.2572 31.096 16.8911 31.0225 17.5765Z" fill="white"/>
<path fill-rule="evenodd" clip-rule="evenodd" d="M11.0089 31.6096C10.0044 31.6096 9.04889 32.3215 9.04889 33.9197C9.04889 35.3918 9.64444 36.3218 10.9724 36.3218C11.8907 36.3218 12.9707 35.6992 12.9707 33.9653C12.9707 32.424 12.288 31.6096 11.0089 31.6096ZM10.8604 37.941C8.26578 37.941 7 36.4681 7 34.066C7 31.5754 8.87467 30 11.1582 30C13.368 30 15.0196 31.1665 15.0196 33.8514C15.0196 36.3647 13.1822 37.941 10.8604 37.941Z" fill="white"/>
<path fill-rule="evenodd" clip-rule="evenodd" d="M19.8142 37.8946C16.7217 37.8946 15.8906 35.982 15.8906 34.2481C15.8906 31.7663 17.368 30.0911 20.136 30.0911C20.72 30.0911 21.3271 30.1585 21.8497 30.2837L21.6257 31.8802C21.1528 31.7558 20.6204 31.677 20.0986 31.677C18.7457 31.677 18.0133 32.572 18.0133 33.953C18.0133 35.4592 18.6844 36.2877 20.1991 36.2877C20.6337 36.2877 21.2648 36.1852 21.6631 36.0153L21.8871 37.5899C21.2782 37.7834 20.5342 37.8946 19.8142 37.8946Z" fill="white"/>
<path fill-rule="evenodd" clip-rule="evenodd" d="M25.3405 34.5318C25.241 34.5318 24.8436 34.5318 24.6952 34.5423V36.3446C24.8561 36.3647 25.1423 36.3778 25.4401 36.3778C26.297 36.3778 26.7805 36.0153 26.7805 35.4259C26.7805 34.8366 26.2463 34.5318 25.3405 34.5318ZM25.5014 31.5176C25.2045 31.5176 24.9307 31.529 24.6952 31.5403V33.2174C24.8561 33.2279 25.0427 33.2279 25.2659 33.2279C26.209 33.2279 26.6685 32.8776 26.6685 32.2996C26.6685 31.8118 26.3094 31.5176 25.5014 31.5176ZM25.4019 37.8175C24.9067 37.8175 23.9743 37.7921 22.7583 37.7921V30.1585C23.5272 30.1252 24.7823 30.1024 25.8125 30.1024C27.6365 30.1024 28.7165 30.7478 28.7165 32.0281C28.7165 32.7418 28.2205 33.3872 27.5005 33.6815V33.7156C28.3574 33.9197 28.8534 34.6448 28.8534 35.4032C28.8534 36.6265 27.873 37.8175 25.4019 37.8175Z" fill="white"/>
<path fill-rule="evenodd" clip-rule="evenodd" d="M33.6461 37.8946C30.5555 37.8946 29.7244 35.982 29.7244 34.2481C29.7244 31.7663 31.2017 30.0911 33.9697 30.0911C34.5528 30.0911 35.1608 30.1585 35.6817 30.2837L35.4595 31.8802C34.9884 31.7558 34.4533 31.677 33.9333 31.677C32.5795 31.677 31.847 32.572 31.847 33.953C31.847 35.4592 32.5164 36.2877 34.0301 36.2877C34.4666 36.2877 35.1004 36.1852 35.4968 36.0153L35.7199 37.5899C35.1119 37.7834 34.367 37.8946 33.6461 37.8946Z" fill="white"/>
<path fill-rule="evenodd" clip-rule="evenodd" d="M44.0969 37.7921L42.1227 34.4977C41.7636 33.9092 41.4774 33.319 41.2543 32.8215C41.2916 33.3873 41.3165 34.1579 41.3165 34.8821V37.7921H39.4534V30.1471H41.9369L43.7743 33.1718C44.1458 33.8067 44.4934 34.4635 44.792 35.0529C44.7307 34.3943 44.7058 33.3873 44.7058 32.6622V30.1471H46.5671V37.7921H44.0969Z" fill="white"/>
<path fill-rule="evenodd" clip-rule="evenodd" d="M47.4382 37.7921H49.3742V30.1471H47.4382V37.7921Z" fill="white"/>
<path fill-rule="evenodd" clip-rule="evenodd" d="M52.2187 37.9287C51.6356 37.9287 51.0391 37.8727 50.5058 37.758L50.6054 36.1274C51.0774 36.2876 51.76 36.412 52.368 36.412C53.0747 36.412 53.5849 36.1396 53.5849 35.5958C53.5849 34.2927 50.2454 34.9627 50.2454 32.4021C50.2454 30.9624 51.4747 30.0114 53.5716 30.0114C54.0187 30.0114 54.5778 30.056 55.0987 30.1471L54.9867 31.677C54.5156 31.5517 53.9947 31.4721 53.496 31.4721C52.6907 31.4721 52.3191 31.7899 52.3191 32.2199C52.3191 33.4091 55.6578 32.9573 55.6578 35.3462C55.6578 36.8315 54.3538 37.9287 52.2187 37.9287Z" fill="white"/>
<path fill-rule="evenodd" clip-rule="evenodd" d="M58.8389 31.529C58.7058 31.529 58.5709 31.529 58.436 31.5404V33.7831C58.5578 33.7954 58.6681 33.8067 58.7644 33.8067C59.5604 33.7954 60.1603 33.375 60.1603 32.628C60.1603 31.9826 59.7811 31.529 58.8389 31.529ZM58.8748 35.2674C58.7776 35.2674 58.6077 35.2674 58.436 35.2561V37.7921H56.5288V30.1471C57.2364 30.1138 58.0192 30.0911 58.8748 30.0911C60.9799 30.0911 62.1288 30.9738 62.1288 32.5483C62.1288 34.0327 60.9799 35.2674 58.8748 35.2674Z" fill="white"/>
</svg>
