<svg width="70" height="50" viewBox="0 0 70 50" fill="none" xmlns="http://www.w3.org/2000/svg">
<rect width="70" height="50" rx="4" fill="white"/>
<path fill-rule="evenodd" clip-rule="evenodd" d="M35.2605 18.8873C35.0535 18.9025 34.8244 19.1183 34.7422 19.2366C34.5592 19.5001 34.6158 19.6075 34.5966 19.9196C34.5667 19.7777 34.0268 19.2188 33.8961 19.117C33.6214 18.9033 33.3204 18.7006 32.9216 18.5435C30.3616 17.5341 27.6075 19.7295 28.1463 22.5055C28.3151 22.3518 28.3693 22.2336 28.5861 22.1121C29.2544 21.7373 29.9977 21.9742 30.3503 22.5297C30.7662 23.1854 30.5523 24.3102 29.34 24.5302C30.4027 25.5773 32.4346 25.6555 33.7652 24.6395C34.2557 24.2651 34.7433 23.6765 34.993 22.8768C35.3064 21.8729 35.1343 21.2307 34.8387 20.33C34.9773 20.4332 35.1444 20.5411 35.3753 20.5544C35.664 20.5713 35.7988 20.4534 35.997 20.3701C35.9423 20.5568 35.8508 20.7248 35.7866 20.934C35.4262 22.1049 35.776 23.6153 36.619 24.3915C36.8292 24.5854 36.6726 24.4846 37.0122 24.7553C38.3542 25.8269 40.128 25.7037 41.4853 24.6336C41.2805 24.5125 40.7889 24.5443 40.4631 23.9973C39.7028 22.722 41.3061 21.3553 42.4304 22.3479C42.5257 22.4324 42.5342 22.4905 42.6357 22.5658C42.7704 22.2831 42.6938 21.5335 42.6262 21.2143C42.0974 18.7214 39.1282 17.5751 37.0452 19.1296C36.7015 19.3864 36.5656 19.5927 36.2726 19.9016C36.294 19.1593 36.0479 19.1562 35.6938 18.8897C36.7998 18.7241 37.2121 18.527 37.893 17.9602C38.4269 17.5158 38.8717 16.6625 38.9949 15.8946C39.1499 14.9289 38.8857 14.0442 38.4534 13.3901C38.0881 12.837 37.3243 12.1442 36.6444 12.0049C37.0462 13.1358 36.2982 13.8752 35.4819 13.8726C34.6027 13.8697 33.8474 12.9266 34.3143 12.0193C33.7995 12.0423 32.9272 12.8476 32.5796 13.3519C31.5916 14.7858 31.8669 16.8272 33.0808 17.9148C33.752 18.5164 34.1328 18.6827 35.2605 18.8873Z" fill="#2A4095"/>
<path fill-rule="evenodd" clip-rule="evenodd" d="M28.108 10.7627C28.4809 10.7107 40.0437 10.7547 41.0181 10.7547C41.5335 10.7547 42.6505 10.6669 43.0367 10.8828C43.5889 11.1915 43.502 11.8328 43.502 12.5843V27.733C43.5022 28.2373 43.5292 28.9789 42.7042 29.0958C42.1825 29.1701 41.1281 29.108 40.5507 29.108H29.7661C29.2501 29.108 28.1097 29.2024 27.7402 28.9717C27.1879 28.6271 27.2909 28.0429 27.2909 27.2639V12.1152C27.2909 11.7612 27.2681 11.4563 27.4403 11.189C27.5734 10.9825 27.7843 10.8078 28.108 10.7627ZM42.7549 10.0593H28.0285L27.848 10.1207C27.6503 10.1728 27.5491 10.2059 27.3678 10.3221C27.154 10.4592 27.0245 10.5863 26.893 10.7837C26.557 11.2866 26.6136 11.6938 26.6136 12.3679V27.336C26.6136 27.9443 26.5427 28.4981 26.8316 28.9818C27.0499 29.3471 27.3794 29.6556 27.9244 29.76C28.3522 29.842 38.1432 29.7873 39.0768 29.7873C39.6862 29.7873 42.4356 29.8236 42.8022 29.7687C43.3574 29.6856 43.7062 29.3708 43.9275 29.0285C44.2465 28.5358 44.1793 28.0519 44.1793 27.4084V12.4037C44.1793 11.7419 44.238 11.289 43.9142 10.7959C43.507 10.1751 42.9475 10.1587 42.7549 10.0593Z" fill="#2A4095"/>
<path fill-rule="evenodd" clip-rule="evenodd" d="M9.01318 32.6058H12.3134C13.0325 32.6058 13.5705 32.7768 13.9291 33.1202C14.2864 33.4635 14.4658 33.9525 14.4658 34.587C14.4658 35.2376 14.27 35.7475 13.88 36.1134C13.4898 36.4809 12.8934 36.6639 12.0921 36.6639H11.0042V39.0484H9.01318V32.6058ZM11.0042 35.3591H11.4928C11.8787 35.3591 12.149 35.2918 12.3044 35.1581C12.4601 35.0248 12.5378 34.8537 12.5378 34.6452C12.5378 34.4428 12.4703 34.2717 12.3346 34.1309C12.2 33.9899 11.9459 33.9196 11.5721 33.9196H11.0042V35.3591ZM16.8604 35.8901L15.1563 35.7102C15.2206 35.4102 15.3134 35.1748 15.4344 35.0038C15.5554 34.8314 15.7288 34.6827 15.9576 34.5568C16.1204 34.4653 16.3445 34.395 16.6302 34.3454C16.9156 34.2959 17.2252 34.2704 17.5583 34.2704C18.0919 34.2704 18.5195 34.3004 18.8438 34.3603C19.1667 34.4205 19.4373 34.5464 19.6524 34.7367C19.8049 34.8688 19.9244 35.0563 20.011 35.2976C20.0993 35.5391 20.1426 35.77 20.1426 35.9904V38.054C20.1426 38.2744 20.1562 38.447 20.1844 38.5714C20.2114 38.696 20.2726 38.8548 20.3654 39.0484H18.6957C18.6283 38.9283 18.5852 38.8384 18.5641 38.7755C18.5449 38.7124 18.524 38.6148 18.5028 38.4815C18.2697 38.7063 18.0379 38.867 17.8065 38.963C17.4909 39.0918 17.125 39.1563 16.7079 39.1563C16.1532 39.1563 15.7316 39.0274 15.445 38.7678C15.1563 38.5099 15.0129 38.1903 15.0129 37.8125C15.0129 37.4572 15.116 37.1647 15.3237 36.9354C15.5317 36.7058 15.9141 36.5348 16.4716 36.4239C17.1397 36.2889 17.5734 36.1946 17.7721 36.1389C17.9708 36.085 18.1815 36.0146 18.4028 35.926C18.4028 35.7056 18.3581 35.5526 18.2668 35.464C18.1773 35.3756 18.0187 35.332 17.7915 35.332C17.4999 35.332 17.2819 35.3787 17.1352 35.4731C17.0216 35.5481 16.9304 35.686 16.8604 35.8901ZM18.4028 36.8259C18.1576 36.9144 17.9021 36.9924 17.6344 37.0613C17.2729 37.1587 17.0428 37.2546 16.9469 37.3493C16.8469 37.4466 16.7975 37.5577 16.7975 37.6821C16.7975 37.8247 16.8469 37.9417 16.9439 38.0315C17.0428 38.1214 17.1862 38.1664 17.376 38.1664C17.5747 38.1664 17.7599 38.1169 17.9321 38.0196C18.1024 37.9221 18.2235 37.8035 18.2951 37.6627C18.367 37.5217 18.4028 37.3387 18.4028 37.1139V36.8259ZM21.2097 34.3783H22.872V35.1388C23.1199 34.8267 23.3696 34.6048 23.6235 34.4714C23.8777 34.3377 24.1857 34.2704 24.5503 34.2704C25.0438 34.2704 25.4278 34.4173 25.7074 34.713C25.9853 35.0067 26.1244 35.4627 26.1244 36.0789V39.0484H24.3308V36.4794C24.3308 36.1855 24.2769 35.9785 24.1693 35.857C24.0618 35.7356 23.9106 35.6741 23.7164 35.6741C23.5028 35.6741 23.3279 35.7565 23.1947 35.9201C23.0617 36.085 22.9944 36.3789 22.9944 36.805V39.0484H21.2097V34.3783ZM27.2544 39.0483H29.0391V34.3783H27.2544V39.0483ZM30.1779 34.3783H31.84V35.1388C32.0882 34.8267 32.3379 34.6048 32.5918 34.4714C32.846 34.3377 33.1537 34.2704 33.5186 34.2704C34.0117 34.2704 34.396 34.4173 34.6753 34.713C34.9536 35.0067 35.0924 35.4627 35.0924 36.0789V39.0484H33.2987V36.4794C33.2987 36.1855 33.2451 35.9785 33.1373 35.857C33.0297 35.7356 32.8788 35.6741 32.6846 35.6741C32.4708 35.6741 32.2958 35.7565 32.1629 35.9201C32.0297 36.085 31.9627 36.3789 31.9627 36.805V39.0484H30.1779V34.3783Z" fill="#FF0000"/>
<path fill-rule="evenodd" clip-rule="evenodd" d="M36.7283 32.6058H40.4456C41.0644 32.6058 41.5399 32.7604 41.8718 33.0676C42.2035 33.3749 42.3694 33.756 42.3694 34.2104C42.3694 34.5912 42.2513 34.9181 42.0138 35.1897C41.8565 35.3726 41.6251 35.5153 41.3216 35.6216C41.7835 35.7327 42.1213 35.9231 42.3393 36.1946C42.5563 36.4658 42.6655 36.8063 42.6655 37.2157C42.6655 37.5503 42.5875 37.8502 42.4337 38.1169C42.2782 38.3839 42.0661 38.5939 41.7983 38.7501C41.6311 38.8457 41.3797 38.9164 41.0437 38.9597C40.5967 39.0184 40.3008 39.0484 40.1544 39.0484H36.7283V32.6058ZM38.7284 35.1343H39.5939C39.9031 35.1343 40.12 35.0802 40.2407 34.9738C40.3621 34.8657 40.4234 34.7113 40.4234 34.5087C40.4234 34.3215 40.3621 34.1744 40.2407 34.0694C40.12 33.9631 39.9075 33.9106 39.6071 33.9106H38.7284V35.1343ZM38.7284 37.6627H39.7402C40.0824 37.6627 40.3232 37.6012 40.4635 37.4797C40.6042 37.358 40.6744 37.1963 40.6744 36.9907C40.6744 36.8004 40.6057 36.6474 40.4667 36.5318C40.3277 36.4165 40.084 36.3579 39.7358 36.3579H38.7284V37.6627ZM45.2107 35.8901L43.5069 35.7102C43.5711 35.4102 43.6638 35.1748 43.7849 35.0038C43.9059 34.8314 44.0793 34.6827 44.3079 34.5568C44.4709 34.4653 44.695 34.395 44.9807 34.3454C45.2661 34.2959 45.5755 34.2704 45.9088 34.2704C46.4423 34.2704 46.8699 34.3004 47.1942 34.3603C47.5172 34.4205 47.7875 34.5464 48.0029 34.7367C48.155 34.8688 48.2748 35.0563 48.3615 35.2976C48.4498 35.5391 48.4931 35.77 48.4931 35.9904V38.054C48.4931 38.2744 48.5065 38.447 48.5349 38.5714C48.5617 38.696 48.6231 38.8548 48.7159 39.0484H47.0462C46.9791 38.9283 46.9358 38.8384 46.9146 38.7755C46.8954 38.7124 46.8744 38.6148 46.8536 38.4815C46.6203 38.7063 46.3885 38.867 46.157 38.963C45.8414 39.0918 45.4753 39.1563 45.0584 39.1563C44.5037 39.1563 44.0822 39.0274 43.7952 38.7678C43.5069 38.5099 43.3634 38.1903 43.3634 37.8125C43.3634 37.4572 43.4664 37.1647 43.6741 36.9354C43.882 36.7058 44.2646 36.5348 44.8222 36.4239C45.4902 36.2889 45.9236 36.1946 46.1226 36.1389C46.3213 36.085 46.5322 36.0146 46.7531 35.926C46.7531 35.7056 46.7084 35.5526 46.6173 35.464C46.5274 35.3756 46.3692 35.332 46.1418 35.332C45.8504 35.332 45.6324 35.3787 45.4857 35.4731C45.3721 35.5481 45.2809 35.686 45.2107 35.8901ZM46.7531 36.8259C46.5082 36.9144 46.2526 36.9924 45.9849 37.0613C45.6234 37.1587 45.3932 37.2546 45.2975 37.3493C45.1973 37.4466 45.1479 37.5577 45.1479 37.6821C45.1479 37.8247 45.1973 37.9417 45.2944 38.0315C45.3932 38.1214 45.5364 38.1664 45.7264 38.1664C45.9252 38.1664 46.1105 38.1169 46.2825 38.0196C46.453 37.9221 46.5737 37.8035 46.6456 37.6627C46.7174 37.5217 46.7531 37.3387 46.7531 37.1139V36.8259ZM49.5602 34.3783H51.2225V35.1388C51.4706 34.8267 51.7201 34.6048 51.9743 34.4714C52.2283 34.3377 52.5362 34.2704 52.9009 34.2704C53.3942 34.2704 53.7782 34.4173 54.0578 34.713C54.3358 35.0067 54.4748 35.4627 54.4748 36.0789V39.0484H52.6812V36.4794C52.6812 36.1855 52.6273 35.9785 52.5198 35.857C52.4122 35.7356 52.2613 35.6741 52.0668 35.6741C51.853 35.6741 51.6783 35.7565 51.5452 35.9201C51.4122 36.085 51.3448 36.3789 51.3448 36.805V39.0484H49.5602V34.3783ZM55.5419 32.6058H57.3624V35.9231L58.6944 34.3783H60.8871L59.219 36.0129L60.9856 39.0484H58.9783L58.0338 37.1766L57.3624 37.8351V39.0484H55.5419V32.6058Z" fill="#2A4095"/>
<path fill-rule="evenodd" clip-rule="evenodd" d="M28.3484 26.5913H29.0315C29.1803 26.5913 29.2915 26.6267 29.3661 26.6978C29.4401 26.7688 29.4771 26.8699 29.4771 27.0014C29.4771 27.136 29.4363 27.2416 29.3557 27.3174C29.2749 27.3936 29.1514 27.4312 28.9858 27.4312H28.7606V27.9249H28.3484V26.5913ZM28.7606 27.1612H28.8616C28.9414 27.1612 28.9974 27.1472 29.0296 27.1196C29.0616 27.0921 29.0777 27.0566 29.0777 27.0133C29.0777 26.9714 29.064 26.9361 29.0357 26.907C29.008 26.8778 28.9553 26.8632 28.8779 26.8632H28.7606V27.1612ZM30.3508 27.7051H29.8853L29.8188 27.9249H29.3993L29.8996 26.5913H30.3491L30.8473 27.9249H30.4173L30.3508 27.7051ZM30.2638 27.4164L30.1187 26.937L29.973 27.4164H30.2638ZM30.9807 26.5913H31.3639L31.8626 27.3275V26.5913H32.2506V27.9249H31.8626L31.3669 27.1926V27.9249H30.9807V26.5913ZM32.5401 27.9249H32.9521V26.5913H32.5401V27.9249ZM33.2495 26.5913H33.633L34.1313 27.3275V26.5913H34.5193V27.9249H34.1313L33.6356 27.1926V27.9249H33.2495V26.5913ZM36.0795 27.4423V27.1649H36.7146V27.7321C36.593 27.8154 36.4857 27.8721 36.3925 27.9021C36.2991 27.9323 36.1882 27.9472 36.0602 27.9472C35.9024 27.9472 35.7737 27.9202 35.6744 27.8663C35.575 27.8125 35.4978 27.7321 35.4432 27.6253C35.3885 27.5186 35.3613 27.3962 35.3613 27.2581C35.3613 27.1125 35.3911 26.9859 35.4509 26.8784C35.5108 26.7709 35.598 26.6893 35.7138 26.6333C35.8036 26.5904 35.925 26.5688 36.0772 26.5688C36.2239 26.5688 36.3337 26.5822 36.4065 26.609C36.4794 26.6354 36.5397 26.6768 36.5878 26.733C36.6355 26.7893 36.6718 26.8603 36.6961 26.9462L36.3005 27.0179C36.2841 26.9671 36.2565 26.9285 36.2178 26.9017C36.1787 26.8746 36.1293 26.8613 36.0687 26.8613C35.9788 26.8613 35.907 26.8927 35.8533 26.9552C35.7999 27.0181 35.7732 27.1175 35.7732 27.253C35.7732 27.3972 35.8002 27.5002 35.8544 27.5619C35.9083 27.6237 35.9836 27.6546 36.0803 27.6546C36.1261 27.6546 36.1697 27.6484 36.2115 27.6348C36.2529 27.6216 36.3005 27.5987 36.3544 27.5672V27.4423H36.0795ZM36.9632 27.9249V26.5913H37.6477C37.7746 26.5913 37.8718 26.602 37.9387 26.624C38.0058 26.6458 38.06 26.6867 38.1009 26.7455C38.1422 26.8049 38.1625 26.877 38.1625 26.9622C38.1625 27.0361 38.1466 27.1 38.1152 27.1535C38.084 27.2077 38.0407 27.2511 37.9854 27.2847C37.9503 27.3058 37.9019 27.3235 37.8411 27.3375C37.8901 27.3537 37.9255 27.3702 37.9479 27.3866C37.9628 27.3976 37.9847 27.4211 38.0135 27.4566C38.0418 27.4924 38.061 27.52 38.0708 27.5396L38.2704 27.9249H37.8063L37.5867 27.5182C37.5589 27.4654 37.5343 27.4312 37.5124 27.4155C37.4828 27.3951 37.449 27.3845 37.4117 27.3845H37.3755V27.9249H36.9632ZM37.3755 27.1331H37.5489C37.5677 27.1331 37.6042 27.1271 37.658 27.1148C37.6852 27.1096 37.7075 27.0958 37.7246 27.073C37.7418 27.0504 37.7506 27.0247 37.7506 26.9955C37.7506 26.9523 37.7367 26.9191 37.7095 26.8962C37.6823 26.8728 37.6314 26.8613 37.556 26.8613H37.3755V27.1331ZM38.3179 27.2591C38.3179 27.0414 38.3781 26.8719 38.4991 26.7508C38.6202 26.6294 38.7886 26.5688 39.0045 26.5688C39.2257 26.5688 39.3961 26.6286 39.5158 26.7474C39.6356 26.8667 39.6953 27.0337 39.6953 27.2482C39.6953 27.4038 39.6694 27.5314 39.6171 27.6312C39.5647 27.7308 39.4889 27.8085 39.3904 27.8641C39.2912 27.9196 39.168 27.9472 39.0204 27.9472C38.8707 27.9472 38.7468 27.9233 38.6482 27.8756C38.5502 27.8273 38.4704 27.7518 38.4094 27.6478C38.3485 27.5446 38.3179 27.4147 38.3179 27.2591ZM38.728 27.26C38.728 27.3943 38.7531 27.4912 38.8031 27.55C38.853 27.6086 38.9212 27.6379 39.007 27.6379C39.0954 27.6379 39.1641 27.6091 39.2125 27.5518C39.261 27.4941 39.2851 27.3909 39.2851 27.2416C39.2851 27.1162 39.2597 27.0247 39.2093 26.9668C39.1586 26.9089 39.0901 26.8799 39.0034 26.8799C38.9207 26.8799 38.8538 26.9094 38.8036 26.9682C38.7531 27.0269 38.728 27.1241 38.728 27.26ZM40.7815 26.5913H41.1916V27.3856C41.1916 27.4641 41.1795 27.5386 41.1549 27.6086C41.1303 27.6786 41.0922 27.7398 41.0396 27.7923C40.9873 27.8449 40.9326 27.8815 40.8755 27.9028C40.7956 27.9323 40.6998 27.9472 40.588 27.9472C40.5232 27.9472 40.4526 27.9424 40.3763 27.9336C40.2999 27.9246 40.236 27.9066 40.1846 27.8795C40.1332 27.8525 40.0861 27.8143 40.0438 27.7648C40.001 27.7152 39.9719 27.6638 39.9562 27.611C39.9307 27.5263 39.918 27.451 39.918 27.3856V26.5913H40.3284V27.4043C40.3284 27.4773 40.3485 27.534 40.3884 27.5747C40.4286 27.6157 40.4844 27.6362 40.5555 27.6362C40.6258 27.6362 40.681 27.6159 40.7214 27.5757C40.7613 27.5357 40.7815 27.4784 40.7815 27.4043V26.5913ZM41.4609 26.5913H42.144C42.2928 26.5913 42.4041 26.6267 42.4785 26.6978C42.5523 26.7688 42.5896 26.8699 42.5896 27.0014C42.5896 27.136 42.5488 27.2416 42.4683 27.3174C42.3874 27.3936 42.264 27.4312 42.0983 27.4312H41.873V27.9249H41.4609V26.5913ZM41.873 27.1612H41.974C42.0539 27.1612 42.1099 27.1472 42.1422 27.1196C42.1741 27.0921 42.1903 27.0566 42.1903 27.0133C42.1903 26.9714 42.1765 26.9361 42.1482 26.907C42.1204 26.8778 42.0679 26.8632 41.9905 26.8632H41.873V27.1612Z" fill="#2A4095"/>
<path fill-rule="evenodd" clip-rule="evenodd" d="M28.1594 31.6152C28.7789 31.6152 29.2809 32.119 29.2809 32.7405C29.2809 33.362 28.7789 33.8658 28.1594 33.8658C27.54 33.8658 27.0378 33.362 27.0378 32.7405C27.0378 32.119 27.54 31.6152 28.1594 31.6152Z" fill="#2A4095"/>
</svg>
