<svg width="70" height="50" viewBox="0 0 70 50" fill="none" xmlns="http://www.w3.org/2000/svg">
<rect width="70" height="50" rx="4" fill="white"/>
<mask id="mask0_16134_6859" style="mask-type:luminance" maskUnits="userSpaceOnUse" x="0" y="0" width="70" height="50">
<rect width="70" height="50" rx="4" fill="white"/>
</mask>
<g mask="url(#mask0_16134_6859)">
<path fill-rule="evenodd" clip-rule="evenodd" d="M25.0235 14.1894L25 14.6444L33.8029 24.8794L34.1191 24.9298L34.1589 24.9099L34.3134 24.6272L30.5591 12.1728L29.922 11.7472L25.0235 14.1894Z" fill="#0096B8"/>
<path fill-rule="evenodd" clip-rule="evenodd" d="M33.8029 24.8794L34.1187 24.9297L27.627 15.1413L25 14.6444L33.8029 24.8794Z" fill="#005675"/>
<path fill-rule="evenodd" clip-rule="evenodd" d="M29.9222 11.7471L27.678 14.3655L28.5945 14.7626L30.5593 12.1731V12.1727L29.9222 11.7471Z" fill="#0BBBEF"/>
<path fill-rule="evenodd" clip-rule="evenodd" d="M28.5935 14.7627L34.159 24.91L34.3135 24.6264L30.5597 12.1737L28.5935 14.7627Z" fill="#007290"/>
<path fill-rule="evenodd" clip-rule="evenodd" d="M38.6545 11.7738L34.8896 28.6165L35.0224 28.9325L35.0855 28.9606L35.5118 28.85L44.8532 14.8257L44.8428 14.0941L39.1503 11.5002L38.6545 11.7738Z" fill="#81B73E"/>
<path fill-rule="evenodd" clip-rule="evenodd" d="M41.0611 15.1461L35.0862 28.9606L35.5115 28.8499L44.8532 14.8257L41.0611 15.1461Z" fill="#69931D"/>
<path fill-rule="evenodd" clip-rule="evenodd" d="M34.8894 28.6155L35.0226 28.9316L39.9865 14.5597L38.6542 11.7742L34.8894 28.6155Z" fill="#277933"/>
<path fill-rule="evenodd" clip-rule="evenodd" d="M44.8422 14.0945L40.8459 14.1457L41.0613 15.1463L44.853 14.8257L44.8427 14.0945H44.8422Z" fill="#AECC53"/>
<path fill-rule="evenodd" clip-rule="evenodd" d="M38.6545 11.7737L39.9855 14.5587L40.8462 14.1457L39.1504 11.5007L38.6545 11.7737Z" fill="#69931D"/>
<path fill-rule="evenodd" clip-rule="evenodd" d="M37.9699 7L30.6828 7.07776L30.4556 7.51014L34.4819 19.012L34.7211 19.1714L34.7281 19.1725L34.9499 19.0455L38.4408 7.484L37.9699 7Z" fill="#E4032E"/>
<path fill-rule="evenodd" clip-rule="evenodd" d="M30.4556 7.51008L34.4819 19.0119L34.7197 19.1716L33.2793 8.90261L30.4556 7.50964V7.51008Z" fill="#791B15"/>
<path fill-rule="evenodd" clip-rule="evenodd" d="M34.6494 8.90442L34.7281 19.1723L34.9499 19.0445L38.4406 7.48401L34.6494 8.90442Z" fill="#B51227"/>
<path fill-rule="evenodd" clip-rule="evenodd" d="M43.6986 38.0375C43.7044 37.917 43.7113 37.7246 43.7171 37.4617V32.4034L43.7015 31.9128C43.6977 31.8088 43.693 31.7379 43.6879 31.7C43.6828 31.6606 43.6749 31.6269 43.664 31.5962C43.6276 31.4716 43.5478 31.3834 43.428 31.3299C43.317 31.281 43.1528 31.2573 42.9402 31.2558V31.0842L45.6889 31.0833C46.0888 31.085 46.4496 31.1118 46.7717 31.1669C47.094 31.2204 47.3534 31.2951 47.552 31.3905C48.1263 31.6772 48.4103 32.1594 48.4071 32.8444C48.4141 33.8252 47.8005 34.4505 46.5304 34.612L46.3174 34.6482C46.6031 34.6593 46.989 34.7585 47.169 34.8027C47.3474 34.8459 47.5221 34.9145 47.6938 35.0082C48.3676 35.3642 48.6996 35.9328 48.6929 36.7206C48.6962 37.676 48.253 38.2966 47.353 38.5903C47.1567 38.6495 46.9098 38.6958 46.612 38.7299C46.3127 38.7638 45.9886 38.781 45.638 38.7817H42.9402V38.6093C43.2581 38.6052 43.4766 38.5541 43.5734 38.4345C43.6134 38.3943 43.6422 38.3493 43.6611 38.2981C43.6805 38.2463 43.6923 38.1572 43.6986 38.0375ZM44.5448 31.3204V34.5301H45.6175C46.8648 34.5223 47.5109 33.9781 47.5176 32.8878C47.5265 31.8292 46.846 31.3126 45.5256 31.3204H44.5448ZM47.7328 36.6339C47.7251 35.8865 47.4681 35.3572 46.9547 35.061C46.7987 34.9781 46.6009 34.9137 46.3629 34.8678C46.1256 34.8223 45.8631 34.7994 45.5766 34.7987H44.5448V38.5455H45.5766C46.3241 38.5488 46.8706 38.4021 47.2073 38.0951C47.3775 37.9469 47.5071 37.7474 47.597 37.4962C47.6865 37.2452 47.7311 36.9568 47.7328 36.6339Z" fill="black"/>
<path fill-rule="evenodd" clip-rule="evenodd" d="M52.6272 38.5621C52.5713 38.4463 52.532 38.3084 52.5155 37.9554L52.5102 37.8516L52.4443 37.9305C52.3656 38.0225 52.2884 38.1044 52.2135 38.173C52.1374 38.2421 52.0491 38.3131 51.9505 38.3848C51.7337 38.5526 51.5245 38.6707 51.3242 38.7392C51.1235 38.8078 50.8978 38.841 50.6461 38.8385C50.2076 38.841 49.871 38.7314 49.6304 38.5164C49.4963 38.3895 49.3902 38.2297 49.3126 38.0358C49.2362 37.8421 49.1965 37.6343 49.1948 37.4105C49.1995 36.5867 49.6806 36.0558 50.6653 35.8202C50.9256 35.7566 51.2007 35.7044 51.4902 35.6642C51.7801 35.6232 52.1096 35.5895 52.4772 35.5634L52.5155 34.8451C52.5155 34.5994 52.5046 34.4 52.4818 34.2488C52.4589 34.0954 52.421 33.9615 52.3678 33.8488C52.222 33.5495 51.924 33.4063 51.4939 33.4063C50.8034 33.4021 50.4294 33.748 50.3905 34.4339C50.3868 34.5434 50.3771 34.6208 50.3631 34.6663C50.3501 34.7105 50.3276 34.7427 50.296 34.7663C50.2272 34.8152 50.1177 34.8429 49.961 34.8451C49.6223 34.8499 49.4955 34.7444 49.5012 34.5663C49.5033 34.3804 49.5623 34.2002 49.6799 34.0267C49.7984 33.8526 49.9629 33.7008 50.1755 33.5724C50.5576 33.3495 51.047 33.236 51.6472 33.2335C52.3041 33.236 52.7446 33.3918 52.9852 33.6912C53.0827 33.8166 53.1548 33.9724 53.2014 34.1608C53.2485 34.3482 53.2723 34.5869 53.2719 34.8766L53.271 34.9373L53.2658 35.2185L53.2514 35.9606L53.2411 36.9804L53.231 37.4743C53.232 37.7067 53.2411 37.8838 53.2569 38.0823C53.2716 38.2752 53.3374 38.491 53.4846 38.5478C53.6375 38.6076 53.7853 38.6312 54.0662 38.633C54.2725 38.6291 54.4313 38.6038 54.539 38.5558C54.6615 38.5015 54.7373 38.3848 54.7701 38.2194C54.8017 38.0587 54.8151 37.813 54.8122 37.4846V34.6057C54.8189 34.2135 54.7755 33.9379 54.6695 33.7937C54.5655 33.6535 54.3722 33.5928 54.1068 33.596V33.4423L55.5686 33.3312V34.5545L55.6447 34.4112C55.8608 34.007 56.1062 33.7204 56.3798 33.5488C56.6528 33.377 56.995 33.291 57.4072 33.296C58.0275 33.2865 58.4588 33.5046 58.7113 33.941C58.8042 34.0874 58.8713 34.263 58.9116 34.4695C58.9516 34.6758 58.9723 34.939 58.9707 35.2602V37.4846C58.967 37.8162 58.9801 38.0634 59.0105 38.2242C59.0421 38.3895 59.1162 38.5053 59.2395 38.5581C59.3417 38.603 59.5792 38.6267 59.7815 38.632C59.9714 38.6267 60.1179 38.6013 60.2185 38.5558C60.338 38.5006 60.4107 38.384 60.4413 38.2194C60.4712 38.0581 60.4843 37.813 60.4803 37.4846V32.2547C60.4843 31.9547 60.4721 31.7326 60.4436 31.5891C60.4137 31.4392 60.3403 31.337 60.2203 31.292C60.1161 31.2535 59.9598 31.2354 59.7548 31.2345V31.0819L61.2749 31C61.2559 31.355 61.2416 31.7173 61.2314 32.0884C61.2217 32.475 61.2166 32.813 61.2166 33.1021V36.6156L62.891 34.6876C63.1279 34.412 63.2577 34.1804 63.2597 33.9947C63.2714 33.7362 63.0236 33.6196 62.6158 33.5983V33.4455H64.7923V33.6006C64.6616 33.6164 64.5479 33.6417 64.451 33.6764C64.3458 33.7141 64.238 33.7684 64.1278 33.8385C64.0161 33.9093 63.922 33.9749 63.8464 34.0339C63.7692 34.0945 63.678 34.1811 63.5736 34.293C63.469 34.405 63.3168 34.5743 63.1174 34.8019L62.5649 35.4272L64.0116 37.8194C64.1769 38.1029 64.3288 38.3029 64.4684 38.4162C64.6016 38.5251 64.7716 38.595 64.9763 38.6282V38.7842H63.6528C63.6166 38.707 63.5664 38.6061 63.5026 38.4825L63.2921 38.0785L63.1308 37.7743L62.0604 35.9408L61.2188 36.9309L61.2166 37.4846C61.2126 37.813 61.2255 38.0587 61.2559 38.2194C61.2869 38.3848 61.3605 38.5006 61.482 38.5558C61.5884 38.6038 61.7461 38.6291 61.9516 38.633V38.7842H57.4788V38.633C57.7817 38.6242 57.99 38.5724 58.0732 38.4556C58.1065 38.4109 58.1319 38.3596 58.1501 38.3021C58.1675 38.2446 58.1785 38.1697 58.1836 38.0785C58.1896 38.0067 58.1957 37.9027 58.2024 37.7665C58.2101 37.6295 58.2137 37.5356 58.2144 37.4853V35.3248C58.2164 34.7924 58.162 34.3979 58.0473 34.1472C57.8725 33.7528 57.5578 33.555 57.1114 33.5533C56.6133 33.5518 56.2165 33.8008 55.9223 34.293C55.8113 34.479 55.7252 34.6909 55.6629 34.927C55.6014 35.1632 55.5691 35.3966 55.5686 35.625V37.4846C55.5648 37.8162 55.5778 38.0634 55.6081 38.2242C55.6397 38.3895 55.7138 38.5053 55.8372 38.5581C55.9451 38.6053 56.1052 38.6291 56.3143 38.633V38.7842H54.1143C53.9194 38.7912 53.5473 38.8015 53.3633 38.799C53.1699 38.796 53.0769 38.7747 52.9009 38.7606C52.7446 38.7124 52.6788 38.6699 52.6272 38.5621ZM50.033 37.3781C50.0366 37.7288 50.1177 38.013 50.2795 38.2272C50.4418 38.443 50.6609 38.5541 50.9317 38.5589C51.2053 38.555 51.4643 38.48 51.7056 38.3352C51.9468 38.1895 52.1374 37.9949 52.2749 37.7539C52.3589 37.6002 52.4201 37.4027 52.4584 37.1623C52.4966 36.9244 52.5155 36.6276 52.5155 36.2724V35.721C52.0253 35.7659 51.6748 35.8147 51.4204 35.8714C51.1638 35.9282 50.9374 36.0093 50.7398 36.1164C50.2717 36.3606 50.0366 36.7844 50.033 37.3781Z" fill="black"/>
<path fill-rule="evenodd" clip-rule="evenodd" d="M6.99251 35.5415V37.4564C6.9887 37.7634 7.00556 37.9918 7.04272 38.1408C7.08042 38.2895 7.16127 38.388 7.28653 38.436C7.41124 38.484 7.60356 38.5118 7.86224 38.5164V38.7842H5V38.5164C5.24363 38.5118 5.42399 38.484 5.54163 38.436C5.65855 38.388 5.73414 38.2895 5.76876 38.1408C5.80302 37.9918 5.81879 37.7634 5.81517 37.4564V32.4217C5.81843 32.1145 5.80338 31.8861 5.77021 31.7372C5.73686 31.5874 5.66381 31.4884 5.55215 31.4387C5.44012 31.389 5.2681 31.36 5.03607 31.3513V31.0834H7.76236C8.68139 31.0794 9.3548 31.2497 9.78224 31.5945C10.2098 31.9396 10.4212 32.4823 10.4161 33.2252C10.4194 34.268 10.0327 34.9507 9.25674 35.2737C9.05444 35.3564 8.79631 35.4217 8.4829 35.469C8.16876 35.5162 7.82 35.5408 7.43625 35.5415H6.99251ZM6.99251 35.2431H7.46381C8.02991 35.2406 8.44628 35.1006 8.71366 34.8208C8.85885 34.6593 8.96888 34.4467 9.04429 34.1844C9.11897 33.9229 9.15704 33.6236 9.1574 33.2865C9.1545 32.0185 8.62574 31.3836 7.57257 31.3819H6.99251V35.2431Z" fill="black"/>
<path fill-rule="evenodd" clip-rule="evenodd" d="M15.0241 35.8644H11.6942C11.6974 36.2377 11.7183 36.551 11.7564 36.804C11.7942 37.0562 11.8553 37.2869 11.9391 37.4962C12.2157 38.1737 12.6429 38.5124 13.2212 38.5124C13.5486 38.5101 13.8453 38.4091 14.112 38.2084C14.3781 38.0076 14.5997 37.7185 14.7761 37.3429L15.012 37.5067C14.7801 37.9918 14.4968 38.3478 14.1623 38.5754C13.8279 38.8023 13.42 38.915 12.9381 38.9126C12.1802 38.9023 11.4828 38.6478 11.0463 38.1493C10.6095 37.6507 10.3869 36.967 10.3782 36.1006C10.3869 35.227 10.6022 34.5364 11.024 34.0274C11.4455 33.5189 12.1185 33.2589 12.844 33.2478C13.3263 33.2488 13.7922 33.3644 14.1228 33.5945C14.4535 33.8236 14.6973 34.16 14.8544 34.6027C14.9057 34.7491 14.9449 34.9168 14.9712 35.1069C14.9976 35.2958 15.0154 35.5486 15.0241 35.8644ZM11.7034 35.5674H13.7866C13.7781 35.2507 13.7621 34.9956 13.7382 34.8027C13.7148 34.6088 13.6771 34.4364 13.6265 34.2844C13.4503 33.7457 13.1802 33.4787 12.8159 33.4832C12.4071 33.4874 12.1024 33.7882 11.9014 34.3867C11.8499 34.5419 11.8089 34.712 11.7774 34.8964C11.7462 35.0808 11.7214 35.3044 11.7034 35.5674Z" fill="black"/>
<path fill-rule="evenodd" clip-rule="evenodd" d="M15.2372 33.3944L17.0843 33.2605C17.0943 33.4544 17.1015 33.6165 17.1066 33.7481C17.1117 33.8805 17.114 33.9961 17.114 34.0971V34.4066C17.5153 33.6355 18.0001 33.2464 18.5681 33.2401C18.8136 33.2449 19.0132 33.3203 19.1662 33.4653C19.3195 33.611 19.3985 33.7976 19.4031 34.0247C19.3996 34.2136 19.3333 34.3649 19.2042 34.479C19.0753 34.5923 18.9057 34.6515 18.6959 34.6538C18.4436 34.6624 18.2897 34.5531 18.2341 34.3239C18.1976 34.182 18.1601 34.086 18.121 34.0348C18.0822 33.9835 18.0251 33.9599 17.9489 33.9624H17.9295C17.7361 33.9795 17.5529 34.1411 17.379 34.4483C17.3007 34.6011 17.2418 34.7696 17.2025 34.9546C17.1631 35.1397 17.1436 35.3533 17.1436 35.5944V37.5043C17.1396 37.8093 17.1539 38.0336 17.1858 38.1786C17.2175 38.3226 17.29 38.4171 17.4024 38.4622C17.5153 38.5062 17.6906 38.5314 17.9295 38.5369V38.7843H15.198V38.5369C15.4206 38.5376 15.5857 38.515 15.6927 38.4685C15.8004 38.422 15.8696 38.3251 15.9015 38.1786C15.9338 38.0304 15.9479 37.806 15.945 37.5043V34.6437C15.9537 34.2182 15.9135 33.9418 15.8232 33.8142C15.7329 33.6866 15.5377 33.6291 15.2372 33.6426V33.3944Z" fill="black"/>
<path fill-rule="evenodd" clip-rule="evenodd" d="M21.5976 33.2604L21.6076 34.2827C22.0055 33.5945 22.5754 33.2471 23.3173 33.24C24.0718 33.2353 24.5371 33.596 24.7124 34.3246C24.9256 33.9488 25.1695 33.6739 25.4431 33.4999C25.7166 33.3242 26.0364 33.2376 26.4022 33.24C26.9804 33.2431 27.4062 33.4433 27.6798 33.8385C27.7863 33.989 27.8628 34.1717 27.908 34.3884C27.9536 34.6056 27.9758 34.8869 27.9745 35.2328V37.5042C27.9711 37.8059 27.9856 38.0303 28.0175 38.1776C28.0494 38.325 28.1191 38.4219 28.2261 38.4684C28.3338 38.5149 28.4987 38.5376 28.7213 38.536V38.7842H26.0583V38.536C26.2713 38.5376 26.4294 38.5149 26.5325 38.4684C26.6358 38.4219 26.7031 38.325 26.7335 38.1776C26.7651 38.0303 26.7788 37.8059 26.7759 37.5042V35.2429C26.7783 34.7004 26.7145 34.3088 26.5856 34.0686C26.4564 33.8277 26.2479 33.7101 25.9601 33.7149C25.6146 33.7079 25.3229 33.897 25.0858 34.2827C24.8813 34.6042 24.7794 34.9524 24.7809 35.3258V37.5042C24.778 37.8059 24.792 38.0303 24.8231 38.1776C24.8547 38.325 24.9227 38.4219 25.0271 38.4684C25.1318 38.5149 25.2919 38.5376 25.5083 38.536V38.7842H22.8749V38.536C23.0877 38.5376 23.2459 38.5149 23.3492 38.4684C23.4524 38.4219 23.5194 38.325 23.5501 38.1776C23.5813 38.0303 23.5956 37.8059 23.592 37.5042V35.2328C23.597 34.2103 23.3318 33.7046 22.7962 33.7149C22.463 33.7275 22.1835 33.8938 21.9587 34.2128C21.7334 34.5326 21.6163 34.9311 21.6076 35.4082V37.5042C21.6045 37.8092 21.6183 38.0359 21.6495 38.1825C21.6805 38.3296 21.7474 38.4258 21.8505 38.4707C21.9538 38.5157 22.1117 38.5376 22.3249 38.536V38.7842H19.6619V38.536C19.8848 38.5376 20.0492 38.5157 20.1569 38.4707C20.264 38.4258 20.3338 38.3296 20.3657 38.1825C20.3978 38.0359 20.4121 37.8092 20.4085 37.5042V34.6341C20.419 34.2136 20.3788 33.9418 20.2881 33.8174C20.1979 33.6922 19.9958 33.6347 19.6818 33.6425V33.3943L21.5976 33.2604Z" fill="black"/>
<path fill-rule="evenodd" clip-rule="evenodd" d="M35.7071 33.7331V37.1815C35.7067 37.4059 35.7147 37.5918 35.7305 37.739C35.7462 37.8863 35.7713 38.0099 35.8053 38.1106C35.8467 38.2259 35.9112 38.3179 35.9978 38.3874C36.085 38.4558 36.1815 38.4912 36.2864 38.4927C36.4965 38.4897 36.7256 38.3824 36.9747 38.1731L37.1121 38.4304C36.7175 38.7786 36.269 38.9504 35.7662 38.9472C35.2238 38.9386 34.854 38.7487 34.6556 38.3794C34.6168 38.2975 34.5865 38.2045 34.5649 38.099C34.5439 37.9943 34.5287 37.8533 34.5203 37.6744C34.512 37.4964 34.5078 37.2562 34.5082 36.9544V33.7331H33.9482V33.4236C34.1625 33.4148 34.3436 33.3676 34.4924 33.2817C34.6414 33.1952 34.771 33.0605 34.882 32.8762C34.9688 32.736 35.0406 32.58 35.0966 32.4091C35.153 32.2381 35.2024 32.0255 35.2454 31.771L35.7368 31.72C35.7303 31.8562 35.7243 31.9948 35.7201 32.1358C35.716 32.276 35.7125 32.4453 35.7105 32.6428C35.7082 32.8405 35.7071 33.0943 35.7071 33.4023H36.8962V33.7331H35.7071Z" fill="black"/>
<path fill-rule="evenodd" clip-rule="evenodd" d="M33.9433 38.566V38.7841C33.656 38.8039 33.5398 38.8039 33.2376 38.8039C32.9978 38.8039 32.7495 38.7997 32.5434 38.7187C32.4159 38.6683 32.3449 38.625 32.2497 38.5203C32.1834 38.4092 32.1411 38.4027 32.1199 38.0949C31.8662 38.3831 31.6022 38.5942 31.328 38.7306C31.053 38.866 30.7572 38.933 30.4399 38.9315C29.9683 38.926 29.5994 38.7896 29.3329 38.521C29.0666 38.2525 28.9316 37.8831 28.9265 37.4136C28.9249 36.5275 29.4489 35.9768 30.4985 35.7618C30.972 35.665 31.5089 35.5997 32.1101 35.565V34.894C32.115 34.3567 32.0608 33.9843 31.9481 33.777C31.8348 33.5698 31.6334 33.4707 31.3437 33.4803C31.0358 33.473 30.8164 33.5904 30.6854 33.8307C30.6379 33.9142 30.6029 34.0087 30.581 34.1167C30.5592 34.2237 30.5414 34.3725 30.5282 34.5639C30.5204 34.7483 30.4697 34.8789 30.3758 34.9563C30.282 35.0342 30.133 35.0719 29.9288 35.0704C29.4734 35.0666 29.2443 34.9081 29.241 34.5953C29.2425 34.4127 29.2963 34.2378 29.4022 34.0725C29.5077 33.9062 29.6572 33.7605 29.8504 33.6346C30.2594 33.37 30.7967 33.2391 31.4619 33.2424C32.1381 33.2391 32.6228 33.3801 32.9159 33.666C33.048 33.7968 33.145 33.9637 33.207 34.1662C33.2692 34.3694 33.2996 34.6294 33.2989 34.9467L33.2889 35.8447L33.2793 36.7426C33.2714 37.0372 33.2677 37.2229 33.2695 37.3001C33.2659 37.6728 33.2772 37.9445 33.3029 38.1155C33.3288 38.2871 33.3571 38.3627 33.464 38.4557C33.6517 38.5685 33.8126 38.5652 33.9433 38.566ZM32.1101 36.5984V35.8037C31.4066 35.8534 30.9076 35.9902 30.6129 36.2132C30.3187 36.4368 30.1755 36.785 30.1843 37.2586C30.1872 37.6302 30.2598 37.9248 30.4019 38.1429C30.5434 38.3612 30.7365 38.4723 30.9801 38.4768C31.1801 38.4753 31.3646 38.4147 31.5341 38.2949C31.7034 38.1761 31.8362 38.009 31.9332 37.7957C31.9963 37.665 32.0416 37.5058 32.0699 37.3167C32.0973 37.1277 32.1109 36.8883 32.1101 36.5984Z" fill="black"/>
<path fill-rule="evenodd" clip-rule="evenodd" d="M42.4035 38.5661V38.7842C42.116 38.804 42 38.8047 41.6978 38.8047C41.4578 38.8047 41.21 38.8007 41.0033 38.7196C40.8759 38.6693 40.805 38.6267 40.71 38.5204C40.6435 38.4101 40.6011 38.4036 40.5801 38.0958C40.3263 38.3832 40.0624 38.595 39.7879 38.7314C39.5131 38.8661 39.2171 38.9339 38.8999 38.9324C38.4282 38.9267 38.0595 38.7897 37.7931 38.5219C37.5268 38.2533 37.3917 37.884 37.3865 37.4145C37.385 36.5284 37.9091 35.9779 38.9586 35.7628C39.4321 35.6659 39.969 35.6006 40.5701 35.5659V34.8948C40.575 34.3577 40.5208 33.9851 40.408 33.7771C40.2949 33.5699 40.0934 33.4716 39.8037 33.4811C39.4959 33.4741 39.2764 33.5914 39.1453 33.8314C39.0978 33.915 39.0629 34.0095 39.0411 34.1175C39.0193 34.2246 39.0016 34.3733 38.9885 34.5647C38.9806 34.7484 38.9298 34.879 38.8357 34.9571C38.7422 35.035 38.5932 35.0727 38.3887 35.0712C37.9335 35.0674 37.7044 34.9091 37.701 34.5964C37.7024 34.4135 37.7563 34.2387 37.8621 34.0733C37.9676 33.9072 38.1174 33.7613 38.3104 33.6362C38.7195 33.3708 39.2568 33.24 39.9219 33.2432C40.598 33.24 41.0829 33.3809 41.376 33.6668C41.5082 33.7977 41.6051 33.9647 41.667 34.167C41.729 34.3703 41.7598 34.6303 41.7589 34.9468L41.7491 35.8455L41.7395 36.7434C41.7315 37.0379 41.7279 37.2238 41.7295 37.3009C41.7261 37.6735 41.7373 37.9453 41.7629 38.1164C41.789 38.288 41.8171 38.3638 41.9242 38.4566C42.1116 38.5693 42.2728 38.5653 42.4035 38.5661ZM40.5701 36.5994V35.8038C39.8666 35.8543 39.3677 35.9912 39.073 36.2141C38.7781 36.4379 38.6354 36.7859 38.6443 37.2594C38.6474 37.6312 38.7199 37.9257 38.8618 38.1438C39.0036 38.3621 39.1966 38.4731 39.4401 38.4777C39.6402 38.4762 39.8247 38.4156 39.9942 38.2958C40.1633 38.1769 40.2964 38.0099 40.393 37.7966C40.4564 37.6657 40.5018 37.5067 40.5297 37.3175C40.5574 37.1286 40.571 36.8891 40.5701 36.5994Z" fill="black"/>
</g>
</svg>
