<svg width="70" height="50" viewBox="0 0 70 50" fill="none" xmlns="http://www.w3.org/2000/svg">
<rect width="70" height="50" rx="4" fill="white"/>
<mask id="mask0_16134_6899" style="mask-type:luminance" maskUnits="userSpaceOnUse" x="0" y="0" width="70" height="50">
<rect width="70" height="50" rx="4" fill="white"/>
</mask>
<g mask="url(#mask0_16134_6899)">
<path fill-rule="evenodd" clip-rule="evenodd" d="M30.7816 38.9697C30.0115 39.4381 29.3119 39.7172 28.5781 39.7172C26.6785 39.7172 25.0914 38.1303 25 36.2234L28.7003 33.9747L34.4542 36.5979L30.7816 38.9697Z" fill="#78ADD2"/>
<path fill-rule="evenodd" clip-rule="evenodd" d="M32.9822 29.31L30.2338 28.0757C29.0056 27.5153 27.8462 27.0498 27.8462 25.6709C27.8462 24.957 28.0589 24.5825 28.3942 24.2096L34.2093 26.823L32.7673 27.6715C32.3704 27.92 32.0955 28.1381 32.0955 28.4498C32.095 28.7875 32.4726 29.0746 32.9822 29.31Z" fill="#A4D0A0"/>
<path fill-rule="evenodd" clip-rule="evenodd" d="M35.6832 16.3748L32.8638 18.1184C32.6144 18.2728 32.2795 18.5215 32.2795 18.9039C32.2795 19.3388 32.93 19.6723 33.5082 19.9532L29.9819 18.3664C28.9428 17.9001 27.9065 17.3705 27.9065 16.0937C27.9065 15.5567 28.059 15.1225 28.3034 14.7497L35.9262 10C36.8401 10.528 37.7264 11.596 37.7264 13.0289C37.7264 14.5621 36.9644 15.5888 35.6832 16.3748Z" fill="#78ADD2"/>
<path fill-rule="evenodd" clip-rule="evenodd" d="M41.6772 21.9921L40.9774 22.3961L35.1543 19.7752L41.9229 15.6204C42.8366 16.1577 43.7317 17.2152 43.7317 18.6469C43.7317 20.1804 42.991 21.2373 41.6772 21.9921Z" fill="#A4D0A0"/>
<path fill-rule="evenodd" clip-rule="evenodd" d="M36.7621 27.0328L40.2063 28.5758C41.4975 29.1655 41.8934 29.8572 41.8934 30.7308C41.8934 31.228 41.6187 31.7262 41.2234 32.0689L35.4314 29.4458L36.411 28.8854C37.2397 28.4184 37.5152 28.1381 37.5152 27.8268C37.5143 27.504 37.3213 27.2914 36.7621 27.0328Z" fill="#78ADD2"/>
<path fill-rule="evenodd" clip-rule="evenodd" d="M42.901 39.9971C41.4353 38.8456 39.8723 38.0681 37.972 37.1885L29.1889 33.2261C26.9822 32.2227 25.5181 30.8865 25.5181 28.6371C25.5181 26.4507 26.557 25.3917 27.9066 24.5219L28.3942 24.21C28.0588 24.583 27.8454 24.9575 27.8454 25.6715C27.8454 27.0498 29.0049 27.5163 30.2334 28.0757L40.4515 32.6672C42.2293 33.446 43.8554 34.7844 43.8554 37.064C43.8559 38.3167 43.3884 39.4371 42.901 39.9971Z" fill="#21AA47"/>
<path fill-rule="evenodd" clip-rule="evenodd" d="M41.8637 31.6633L41.2225 32.0693C41.6187 31.7272 41.8933 31.2281 41.8933 30.7309C41.8933 29.8583 41.4955 29.1659 40.2063 28.576L29.2796 23.6724C27.0743 22.6781 25.7004 21.3939 25.7004 19.1539C25.7004 17.0917 26.708 15.7448 28.3025 14.7507C28.0583 15.1233 27.9066 15.558 27.9066 16.0946C27.9066 17.3716 28.9429 17.9014 29.9819 18.3674L40.6026 23.1443C42.5332 24.0165 44.0969 25.3308 44.0969 27.735C44.0979 29.6096 43.2372 30.7918 41.8637 31.6633Z" fill="#0072AA"/>
</g>
</svg>
