<svg width="70" height="50" viewBox="0 0 70 50" fill="none" xmlns="http://www.w3.org/2000/svg">
<rect width="70" height="50" rx="4" fill="#123274"/>
<mask id="mask0_16134_6911" style="mask-type:luminance" maskUnits="userSpaceOnUse" x="0" y="0" width="70" height="50">
<rect width="70" height="50" rx="4" fill="white"/>
</mask>
<g mask="url(#mask0_16134_6911)">
<path fill-rule="evenodd" clip-rule="evenodd" d="M19.4506 33.3676C19.4457 33.7541 19.933 33.7959 20.2283 33.7959H20.3871C20.416 33.7959 20.4393 33.795 20.4741 33.791C21.1709 33.755 21.1657 33.4919 21.1657 33.3676C21.1636 33.3021 21.1636 33.2338 21.1657 33.1568V18.7387C21.1709 18.3535 20.6812 18.3076 20.3871 18.3076H20.2283C19.933 18.3076 19.4457 18.3535 19.4506 18.7387C19.4506 18.8205 19.4481 18.8984 19.4481 18.9799V33.1245C19.4481 33.1322 19.4481 33.1433 19.4506 33.1645" fill="#E2051D"/>
<path fill-rule="evenodd" clip-rule="evenodd" d="M10.3031 33.3676C10.2978 33.7541 10.7858 33.7959 11.0804 33.7959H11.239C11.2682 33.7959 11.2918 33.795 11.3262 33.791C12.0231 33.755 12.0179 33.4919 12.0179 33.3676C12.0164 33.3021 12.0164 33.2338 12.0179 33.1568V18.7387C12.0231 18.3535 11.5333 18.3076 11.239 18.3076H11.0804C10.7858 18.3076 10.2978 18.3535 10.3031 18.7387C10.3031 18.8205 10.2997 18.8984 10.2997 18.9799V33.1245C10.2997 33.1322 10.2997 33.1433 10.3031 33.1645" fill="#E2051D"/>
<path fill-rule="evenodd" clip-rule="evenodd" d="M13.3517 33.3676C13.348 33.7541 13.8347 33.7959 14.13 33.7959H14.2885C14.3177 33.7959 14.3414 33.795 14.3761 33.791C15.0727 33.755 15.0678 33.4919 15.0678 33.3676C15.0647 33.3021 15.0647 33.2338 15.0678 33.1568V18.7387C15.0727 18.3535 14.5829 18.3076 14.2885 18.3076H14.13C13.8347 18.3076 13.348 18.3535 13.3517 18.7387C13.3517 18.8205 13.3499 18.8984 13.3499 18.9799V33.1245C13.3499 33.1322 13.3499 33.1433 13.3517 33.1645" fill="#E2051D"/>
<path fill-rule="evenodd" clip-rule="evenodd" d="M16.4017 33.3676C16.3971 33.7541 16.8841 33.7959 17.1791 33.7959H17.3379C17.3668 33.7959 17.3905 33.795 17.4246 33.791C18.1221 33.755 18.1159 33.4919 18.1159 33.3676C18.1147 33.3021 18.1147 33.2338 18.1159 33.1568V18.7387C18.1221 18.3535 17.6317 18.3076 17.3379 18.3076H17.1791C16.8841 18.3076 16.3971 18.3535 16.4017 18.7387C16.4017 18.8205 16.3983 18.8984 16.3983 18.9799V33.1245C16.3983 33.1322 16.3983 33.1433 16.4017 33.1645" fill="#E2051D"/>
<path fill-rule="evenodd" clip-rule="evenodd" d="M8.42709 25.1939C8.04117 25.189 8 25.677 8 25.9733V26.1327C8 26.1616 8.00092 26.185 8.00369 26.2192C8.03964 26.9164 8.30235 26.9115 8.42709 26.9115C8.49285 26.9096 8.56014 26.9096 8.63788 26.9115H23.0353C23.4203 26.9164 23.4654 26.4265 23.4654 26.1327V25.9733C23.4654 25.677 23.4203 25.189 23.0353 25.1939C22.9539 25.1939 22.8761 25.1912 22.7941 25.1912H8.66922C8.66154 25.1912 8.65232 25.1912 8.62989 25.1939" fill="#E2051D"/>
<path fill-rule="evenodd" clip-rule="evenodd" d="M44.7732 19.4427C40.6611 19.4427 38.8276 21.4707 38.8276 26.0181C38.8276 30.4597 40.7385 32.6338 44.669 32.6612H44.8607C48.7983 32.6415 50.7132 30.468 50.7132 26.0181C50.7132 21.4707 48.8813 19.4427 44.7732 19.4427ZM44.7842 30.7132H44.7541C42.3937 30.7132 41.4738 29.3895 41.4738 25.9966C41.4738 22.64 42.3562 21.3926 44.7302 21.3926H44.8067C47.1812 21.3926 48.0643 22.64 48.0643 25.9966C48.0643 29.3895 47.1443 30.7132 44.7842 30.7132Z" fill="white"/>
<path fill-rule="evenodd" clip-rule="evenodd" d="M28.2601 31.6549C29.094 32.2998 30.2284 32.5749 32.0541 32.5749H32.1697C34.0089 32.5749 35.1467 32.2998 35.9739 31.6558C37.174 30.7414 37.3762 29.666 37.3762 27.5989L37.3784 20.1832C37.3796 20.0755 37.3821 19.9401 37.2622 19.8189C37.073 19.6266 36.6511 19.5297 36.0083 19.5297C35.3713 19.5297 34.9532 19.6266 34.7645 19.8177C34.6437 19.9398 34.6459 20.0755 34.6474 20.1844L34.6477 21.5207V27.9321C34.648 29.2226 34.648 29.4912 34.0753 29.9641C33.5477 30.393 32.7507 30.449 32.1156 30.449C31.4808 30.449 30.6844 30.393 30.1571 29.9641C29.5862 29.4952 29.5862 29.2309 29.5865 27.9607L29.5871 20.1844C29.5893 20.0755 29.5908 19.9401 29.4704 19.8177C29.2814 19.6266 28.862 19.5297 28.2229 19.5297C27.5822 19.5297 27.1625 19.6266 26.9742 19.8183C26.8531 19.9401 26.8552 20.0755 26.8565 20.1838L26.8571 20.2155V27.5989C26.8571 29.6647 27.0596 30.7404 28.2601 31.6549Z" fill="white"/>
<path fill-rule="evenodd" clip-rule="evenodd" d="M60.9815 20.2995C60.3024 19.794 59.4919 19.6146 57.8846 19.6146H52.5978C52.3575 19.6146 52.1621 19.8097 52.1621 20.0494V32.0519C52.1621 32.294 52.3575 32.4894 52.5978 32.4894H58.1439C59.6492 32.4894 60.7019 32.4411 61.5757 31.7811C62.5565 31.0195 62.763 29.7722 62.763 28.8599C62.763 27.6549 62.3589 26.7008 61.6258 26.174C61.3078 25.9368 60.9317 25.7943 60.5737 25.6685L60.3341 25.5842L60.5633 25.4743C61.643 24.958 62.0385 24.2402 62.0216 22.8251C62.012 22.1632 61.8645 20.9537 60.9815 20.2995ZM54.854 21.4143H57.8071C59.3364 21.4143 59.4578 22.1903 59.4578 23.2054C59.4578 24.4186 58.9022 24.9355 57.6019 24.9355H54.854V21.4143ZM57.7466 30.6457H54.8519V26.7617H57.9565C59.6778 26.7617 60.0237 27.5115 60.0237 28.7232C60.0237 30.3549 59.4273 30.6457 57.7466 30.6457Z" fill="white"/>
</g>
</svg>
